<svg width="48" height="48" viewBox="0 0 48 48" fill="none" xmlns="http://www.w3.org/2000/svg">
<circle cx="24" cy="24" r="24" fill="#FF779C"/>
<g clip-path="url(#clip0_1007_452949)">
<path d="M32.353 11.4567C32.3482 11.2586 32.3038 11.0634 32.2222 10.8825C32.1407 10.7017 32.0236 10.5387 31.8779 10.4031C31.7322 10.2675 31.5607 10.1621 31.3735 10.0929C31.1862 10.0238 30.987 9.99225 30.7874 10.0002L11.6124 10.7434C11.3887 10.7528 11.1691 10.8059 10.9662 10.8999C10.7634 10.9938 10.5813 11.1267 10.4305 11.2908C10.2796 11.4548 10.1631 11.6469 10.0874 11.8559C10.0118 12.0649 9.97869 12.2867 9.98993 12.5084L10.6924 26.4428C10.705 26.6783 10.7652 26.9089 10.8695 27.1209C10.9738 27.3329 11.1201 27.5219 11.2995 27.6767C11.479 27.8314 11.6881 27.9488 11.9142 28.0218C12.1404 28.0948 12.379 28.122 12.616 28.1016L31.2256 26.5124C31.6252 26.4822 31.9983 26.3027 32.2697 26.0102C32.541 25.7177 32.6903 25.334 32.6875 24.9365L32.353 11.4567Z" fill="#634DAA"/>
<path d="M32.2961 11.4565C32.2926 11.2594 32.2496 11.065 32.1696 10.8846C32.0895 10.7042 31.974 10.5415 31.8298 10.4059C31.6856 10.2703 31.5156 10.1645 31.3297 10.0948C31.1438 10.0252 30.9458 9.9929 30.7472 9.99998L11.7796 10.7432C11.5564 10.7516 11.3371 10.8042 11.1346 10.8981C10.9322 10.9919 10.7508 11.125 10.6012 11.2896C10.4515 11.4541 10.3366 11.6467 10.2632 11.856C10.1898 12.0653 10.1595 12.287 10.1739 12.5082L10.8697 26.4425C10.8811 26.6767 10.9398 26.9062 11.0424 27.1174C11.145 27.3287 11.2894 27.5173 11.4669 27.672C11.6445 27.8268 11.8517 27.9446 12.0761 28.0183C12.3005 28.0921 12.5375 28.1203 12.7732 28.1014L31.1721 26.5122C31.5704 26.4761 31.9399 26.2911 32.2058 25.9948C32.4717 25.6984 32.614 25.3129 32.6038 24.9164L32.2961 11.4565Z" fill="#8467C9"/>
<path d="M31.7676 11.9438L32.1021 24.5112C32.1119 24.8725 31.9818 25.2237 31.7385 25.4928C31.4952 25.7618 31.1573 25.9282 30.7941 25.9578L13.0643 27.4043C12.8759 27.4196 12.6864 27.3971 12.507 27.3382C12.3277 27.2792 12.1621 27.1849 12.0203 27.061C11.8786 26.9371 11.7634 26.7862 11.6818 26.6171C11.6003 26.4481 11.5539 26.2644 11.5455 26.0772L10.9768 12.8296C10.9642 12.491 11.0873 12.1612 11.3193 11.9125C11.5513 11.6638 11.8732 11.5164 12.2146 11.5025L30.4763 10.7561C30.64 10.749 30.8034 10.7741 30.9572 10.8302C31.111 10.8862 31.252 10.9719 31.3721 11.0824C31.4922 11.1929 31.5891 11.3259 31.6569 11.4738C31.7248 11.6216 31.7624 11.7814 31.7676 11.9438Z" fill="url(#paint0_linear_1007_452949)"/>
<path opacity="0.7" d="M10.1539 12.5575C10.1539 12.5575 10.3981 11.0944 11.492 10.9351L15.4126 10.6465L11.5556 10.7626C11.3436 10.7867 11.1387 10.8526 10.9529 10.9564C10.767 11.0602 10.604 11.1999 10.4734 11.3671C10.3428 11.5344 10.2472 11.7258 10.1923 11.9303C10.1375 12.1347 10.1244 12.348 10.1539 12.5575Z" fill="white"/>
<path d="M15.9412 37.7494V38.9371C15.7109 38.9174 15.49 38.8376 15.3009 38.706C15.1117 38.5743 14.961 38.3954 14.864 38.1873L11.1675 29.8068C11.1675 29.8068 10.8965 28.5196 11.6559 28.3271L15.9412 37.7494Z" fill="url(#paint1_linear_1007_452949)"/>
<path d="M15.9412 38.9367C16.4351 39.0218 16.9392 39.033 17.4365 38.9699L38.1202 36.6243C38.1202 36.6243 38.8528 36.5081 38.9364 35.8612C38.9364 35.8612 39.1606 34.8858 38.7792 34.6934L15.8174 37.5798L15.9412 38.9367Z" fill="url(#paint2_linear_1007_452949)"/>
<path d="M11.4317 29.1231L15.2922 37.205C15.4111 37.4577 15.6074 37.6668 15.853 37.8025C16.0986 37.9383 16.3811 37.9939 16.6604 37.9615L38.4045 35.5263C38.497 35.5164 38.5853 35.4826 38.6606 35.4283C38.7358 35.374 38.7954 35.301 38.8333 35.2167C38.8712 35.1325 38.8862 35.0398 38.8767 34.948C38.8672 34.8562 38.8336 34.7684 38.7792 34.6935L33.3565 27.2685C33.1676 27.0094 32.9143 26.8032 32.6211 26.6701C32.328 26.5369 32.0051 26.4814 31.6839 26.5088L11.9971 28.1676C11.8865 28.1734 11.7791 28.2062 11.6845 28.2633C11.5899 28.3203 11.5111 28.3997 11.455 28.4944C11.399 28.5891 11.3676 28.6961 11.3635 28.8058C11.3594 28.9156 11.3829 29.0246 11.4317 29.1231Z" fill="#DCDBE6"/>
<path d="M13.8236 28.4599L16.1854 28.377C16.2468 28.372 16.3084 28.3859 16.3616 28.4168C16.4149 28.4476 16.4573 28.4939 16.4831 28.5495L17.0585 29.7472C17.0707 29.7717 17.0766 29.7989 17.0756 29.8263C17.0746 29.8536 17.0668 29.8804 17.0529 29.904C17.039 29.9277 17.0194 29.9475 16.9958 29.9619C16.9723 29.9762 16.9455 29.9845 16.918 29.986L14.5228 30.1486C14.4576 30.1522 14.3928 30.1369 14.3364 30.1045C14.2799 30.0721 14.2342 30.024 14.205 29.9661L13.6196 28.8083C13.6063 28.7721 13.6011 28.7336 13.6045 28.6953C13.6079 28.657 13.6198 28.6199 13.6393 28.5866C13.6588 28.5534 13.6854 28.5248 13.7172 28.5029C13.7491 28.481 13.7854 28.4663 13.8236 28.4599Z" fill="#634DAA"/>
<path d="M13.8972 28.4368L16.1619 28.3041C16.2209 28.3011 16.2794 28.3157 16.33 28.3458C16.3807 28.3759 16.4211 28.4203 16.4462 28.4733L16.9949 29.6113C17.0063 29.635 17.0118 29.6611 17.0109 29.6874C17.0099 29.7137 17.0025 29.7393 16.9894 29.7622C16.9762 29.785 16.9577 29.8043 16.9353 29.8185C16.913 29.8327 16.8875 29.8413 16.8611 29.8435L14.5729 29.9961C14.5112 29.9999 14.4497 29.9856 14.3961 29.9549C14.3426 29.9242 14.2993 29.8785 14.2718 29.8236L13.7266 28.7155C13.7127 28.6863 13.7064 28.6541 13.7082 28.6219C13.7099 28.5897 13.7197 28.5584 13.7365 28.5308C13.7534 28.5032 13.7769 28.4802 13.8049 28.4638C13.833 28.4474 13.8646 28.4381 13.8972 28.4368Z" fill="url(#paint3_radial_1007_452949)"/>
<path opacity="0.8" d="M14.4191 29.9091C14.4191 29.9091 14.4626 29.9755 14.6566 29.9622L16.8612 29.8096L14.7001 29.8925C14.7001 29.8925 14.4024 29.8792 14.4191 29.9091Z" fill="url(#paint4_radial_1007_452949)"/>
<path d="M14.7369 30.3145L17.0987 30.1719C17.1601 30.1669 17.2217 30.1808 17.2749 30.2117C17.3282 30.2425 17.3706 30.2889 17.3964 30.3444L18.042 31.562C18.0541 31.5868 18.0599 31.6141 18.0589 31.6416C18.0579 31.6691 18.0501 31.696 18.0362 31.7199C18.0224 31.7437 18.0029 31.7639 17.9794 31.7786C17.9559 31.7933 17.9292 31.8021 17.9015 31.8042L15.4361 31.9999C15.3713 32.0039 15.3068 31.989 15.2503 31.9572C15.1939 31.9254 15.148 31.878 15.1183 31.8208L14.5462 30.6629C14.5329 30.6277 14.5273 30.5901 14.5299 30.5526C14.5325 30.5151 14.5432 30.4785 14.5613 30.4455C14.5794 30.4125 14.6044 30.3837 14.6347 30.3611C14.665 30.3385 14.6999 30.3226 14.7369 30.3145Z" fill="#634DAA"/>
<path d="M14.8105 30.2914L17.0752 30.099C17.1342 30.0961 17.1927 30.1106 17.2434 30.1407C17.294 30.1708 17.3344 30.2152 17.3596 30.2682L17.9785 31.4294C17.99 31.4529 17.9956 31.4789 17.9947 31.505C17.9938 31.5311 17.9864 31.5566 17.9731 31.5793C17.9599 31.6019 17.9413 31.621 17.9189 31.6347C17.8964 31.6485 17.871 31.6566 17.8446 31.6583L15.4862 31.8507C15.4249 31.8521 15.3644 31.8368 15.3113 31.8063C15.2582 31.7759 15.2146 31.7316 15.1852 31.6782L14.6399 30.5701C14.6261 30.5409 14.6198 30.5088 14.6215 30.4765C14.6232 30.4443 14.633 30.413 14.6499 30.3854C14.6668 30.3578 14.6903 30.3348 14.7183 30.3184C14.7463 30.302 14.778 30.2927 14.8105 30.2914Z" fill="url(#paint5_radial_1007_452949)"/>
<path opacity="0.8" d="M15.3323 31.7643C15.3323 31.7643 15.3758 31.8307 15.5698 31.8174L17.8413 31.625L15.6167 31.7478C15.6167 31.7478 15.3156 31.7312 15.3323 31.7643Z" fill="url(#paint6_radial_1007_452949)"/>
<path d="M15.6502 32.2188L18.0855 32.0695C18.1487 32.0675 18.2111 32.0833 18.2655 32.115C18.32 32.1467 18.3643 32.193 18.3933 32.2487L19.0623 33.5061C19.0743 33.5318 19.0798 33.56 19.0784 33.5883C19.077 33.6166 19.0687 33.6441 19.0542 33.6686C19.0398 33.693 19.0196 33.7136 18.9954 33.7286C18.9712 33.7437 18.9436 33.7527 18.9152 33.7549L16.3728 33.9573C16.3045 33.964 16.2358 33.9499 16.176 33.9166C16.1162 33.8834 16.0681 33.8327 16.0382 33.7715L15.4461 32.5771C15.4323 32.5404 15.4267 32.5011 15.4298 32.462C15.4329 32.4229 15.4445 32.3849 15.464 32.3508C15.4834 32.3167 15.5102 32.2872 15.5423 32.2643C15.5745 32.2415 15.6113 32.226 15.6502 32.2188Z" fill="#634DAA"/>
<path d="M15.7237 32.2022L18.0653 32.0065C18.1262 32.0027 18.1868 32.0171 18.2393 32.0478C18.2918 32.0786 18.3337 32.1243 18.3597 32.179L18.9987 33.3767C19.0108 33.401 19.0167 33.4279 19.0159 33.455C19.0151 33.4821 19.0076 33.5086 18.9941 33.5322C18.9805 33.5558 18.9614 33.5757 18.9382 33.5902C18.9151 33.6048 18.8888 33.6135 18.8615 33.6155L16.4295 33.8113C16.3654 33.8166 16.3012 33.8022 16.2456 33.7702C16.1899 33.7381 16.1456 33.69 16.1184 33.6321L15.5564 32.4942C15.5415 32.4645 15.5342 32.4316 15.5351 32.3984C15.536 32.3653 15.5452 32.3329 15.5617 32.304C15.5782 32.2752 15.6016 32.2508 15.6299 32.2331C15.6581 32.2153 15.6903 32.2047 15.7237 32.2022Z" fill="url(#paint7_radial_1007_452949)"/>
<path opacity="0.8" d="M16.2624 33.7149C16.2624 33.7149 16.3092 33.7813 16.5099 33.768L18.8516 33.5723L16.5534 33.695C16.5534 33.695 16.2457 33.6784 16.2624 33.7149Z" fill="url(#paint8_radial_1007_452949)"/>
<path d="M17.0084 28.2211L19.3701 28.1381C19.4317 28.1349 19.4929 28.1498 19.5459 28.1811C19.599 28.2124 19.6414 28.2587 19.6678 28.314L20.2432 29.5083C20.2553 29.5331 20.2611 29.5605 20.26 29.588C20.259 29.6155 20.2513 29.6424 20.2374 29.6662C20.2236 29.6901 20.2041 29.7102 20.1806 29.7249C20.1571 29.7396 20.1304 29.7484 20.1027 29.7505L17.7075 29.9098C17.6397 29.9168 17.5712 29.9031 17.5114 29.8705C17.4516 29.8379 17.4033 29.7879 17.373 29.7273L16.8177 28.5529C16.8071 28.5187 16.8037 28.4827 16.8076 28.4471C16.8116 28.4115 16.8229 28.3772 16.8407 28.3461C16.8586 28.315 16.8827 28.2879 16.9115 28.2664C16.9403 28.2449 16.9733 28.2295 17.0084 28.2211Z" fill="#634DAA"/>
<path d="M17.082 28.1806L19.3467 28.0512C19.4053 28.048 19.4636 28.062 19.5142 28.0916C19.5647 28.1211 19.6054 28.1648 19.631 28.2171L20.1797 29.3584C20.1913 29.3819 20.1968 29.4079 20.1959 29.434C20.195 29.4602 20.1876 29.4857 20.1744 29.5083C20.1611 29.5309 20.1425 29.55 20.1201 29.5638C20.0977 29.5775 20.0722 29.5856 20.0459 29.5873L17.7577 29.7399C17.6959 29.7442 17.6342 29.73 17.5806 29.6993C17.527 29.6686 17.4838 29.6226 17.4566 29.5674L16.9114 28.4626C16.8977 28.4332 16.8915 28.4009 16.8932 28.3685C16.895 28.3362 16.9047 28.3047 16.9216 28.2769C16.9384 28.2491 16.9618 28.2258 16.9897 28.2091C17.0177 28.1923 17.0493 28.1825 17.082 28.1806Z" fill="url(#paint9_radial_1007_452949)"/>
<path opacity="0.8" d="M17.6037 29.6575C17.6037 29.6575 17.6472 29.7206 17.8412 29.7106L20.0457 29.5547L17.8847 29.6376C17.8847 29.6376 17.587 29.621 17.6037 29.6575Z" fill="url(#paint10_radial_1007_452949)"/>
<path d="M20.0291 27.9123L22.2738 27.8393C22.3354 27.836 22.3966 27.851 22.4496 27.8823C22.5026 27.9136 22.545 27.9599 22.5715 28.0151L23.2673 29.1996C23.2786 29.2244 23.2837 29.2516 23.2823 29.2788C23.2809 29.3061 23.2731 29.3326 23.2594 29.3562C23.2457 29.3799 23.2265 29.3999 23.2035 29.4148C23.1804 29.4297 23.1541 29.4389 23.1268 29.4418L20.7283 29.601C20.6637 29.604 20.5996 29.5883 20.5438 29.556C20.488 29.5236 20.4428 29.4758 20.4138 29.4185L19.8418 28.2607C19.8278 28.2257 19.8216 28.1882 19.8238 28.1507C19.8259 28.1132 19.8362 28.0766 19.8541 28.0434C19.8719 28.0103 19.8968 27.9814 19.927 27.9587C19.9572 27.9361 19.9921 27.9202 20.0291 27.9123Z" fill="#634DAA"/>
<path d="M20.1026 27.8892L22.2503 27.7698C22.3087 27.7674 22.3667 27.7818 22.4171 27.8112C22.4675 27.8406 22.5083 27.8838 22.5346 27.9357L23.2037 29.067C23.2153 29.0905 23.2209 29.1165 23.2199 29.1426C23.219 29.1687 23.2116 29.1942 23.1984 29.2169C23.1852 29.2395 23.1665 29.2585 23.1441 29.2723C23.1217 29.2861 23.0962 29.2942 23.0699 29.2959L20.7851 29.4485C20.7232 29.4532 20.6613 29.4393 20.6076 29.4085C20.5539 29.3777 20.5108 29.3315 20.484 29.276L19.9354 28.1712C19.9218 28.142 19.9155 28.11 19.9171 28.0779C19.9187 28.0458 19.9281 28.0145 19.9446 27.9868C19.961 27.9591 19.984 27.9357 20.0115 27.9187C20.039 27.9017 20.0703 27.8916 20.1026 27.8892Z" fill="url(#paint11_radial_1007_452949)"/>
<path opacity="0.8" d="M20.6446 29.3655C20.6446 29.3655 20.6881 29.4286 20.8821 29.4153L23.0833 29.2627L20.9256 29.3456C20.9256 29.3456 20.6078 29.329 20.6446 29.3655Z" fill="url(#paint12_radial_1007_452949)"/>
<path d="M21.0695 29.7005L23.3142 29.6275C23.3754 29.6239 23.4364 29.6384 23.4893 29.6691C23.5423 29.6998 23.5849 29.7453 23.6119 29.8L24.3077 30.9877C24.3191 31.0124 24.3243 31.0394 24.3229 31.0665C24.3216 31.0935 24.3137 31.1199 24.2999 31.1433C24.2861 31.1667 24.2669 31.1865 24.2438 31.201C24.2207 31.2155 24.1944 31.2243 24.1672 31.2266L21.7686 31.3859C21.7044 31.3891 21.6406 31.374 21.5848 31.3422C21.5291 31.3104 21.4837 31.2634 21.4542 31.2067L20.8822 30.0488C20.8682 30.0139 20.8621 29.9764 20.8642 29.9389C20.8663 29.9014 20.8766 29.8648 20.8945 29.8316C20.9123 29.7985 20.9372 29.7696 20.9674 29.7469C20.9976 29.7243 21.0325 29.7084 21.0695 29.7005Z" fill="#634DAA"/>
<path d="M21.143 29.6769L23.2907 29.5541C23.3492 29.551 23.4074 29.5654 23.4576 29.5956C23.5077 29.6258 23.5475 29.6703 23.5717 29.7233L24.2407 30.8514C24.2522 30.8751 24.2577 30.9012 24.2567 30.9275C24.2558 30.9538 24.2484 30.9794 24.2352 31.0023C24.2221 31.0251 24.2035 31.0445 24.1812 31.0586C24.1588 31.0728 24.1333 31.0814 24.1069 31.0836L21.8221 31.2362C21.7603 31.2405 21.6986 31.2263 21.645 31.1956C21.5913 31.1648 21.5482 31.1189 21.521 31.0637L20.9791 29.9556C20.9662 29.9268 20.9605 29.8954 20.9622 29.8639C20.964 29.8325 20.9732 29.8019 20.9892 29.7747C21.0052 29.7475 21.0275 29.7245 21.0543 29.7074C21.081 29.6904 21.1114 29.68 21.143 29.6769Z" fill="url(#paint13_radial_1007_452949)"/>
<path opacity="0.8" d="M21.6682 31.1503C21.6682 31.1503 21.7117 31.2167 21.9057 31.2034L24.1069 31.0508L21.9492 31.1337C21.9492 31.1337 21.6481 31.1171 21.6682 31.1503Z" fill="url(#paint14_radial_1007_452949)"/>
<path d="M23.0867 27.7L25.328 27.5839C25.3894 27.5793 25.4508 27.593 25.5044 27.6231C25.558 27.6532 25.6014 27.6985 25.6291 27.7531L26.3483 28.9242C26.361 28.9489 26.3674 28.9763 26.3669 29.004C26.3665 29.0317 26.3591 29.0589 26.3456 29.0832C26.332 29.1074 26.3127 29.128 26.2893 29.1431C26.2658 29.1582 26.239 29.1673 26.2111 29.1697L23.8159 29.3754C23.7488 29.3831 23.6809 29.3703 23.6212 29.339C23.5615 29.3076 23.5127 29.259 23.4814 29.1996L22.886 28.0517C22.8721 28.0156 22.8664 27.9769 22.8693 27.9384C22.8722 27.8999 22.8836 27.8625 22.9028 27.8289C22.922 27.7953 22.9484 27.7664 22.9802 27.7441C23.012 27.7218 23.0483 27.7067 23.0867 27.7Z" fill="#634DAA"/>
<path d="M23.1569 27.673L25.3012 27.5138C25.3601 27.5087 25.4192 27.5215 25.4706 27.5505C25.522 27.5796 25.5632 27.6235 25.5889 27.6764L26.2813 28.7911C26.2927 28.8146 26.2983 28.8404 26.2975 28.8665C26.2967 28.8925 26.2896 28.918 26.2768 28.9408C26.2641 28.9636 26.2459 28.983 26.224 28.9973C26.2021 29.0117 26.177 29.0206 26.1509 29.0234L23.8661 29.2224C23.8041 29.2276 23.7419 29.2143 23.6877 29.1841C23.6334 29.154 23.5895 29.1084 23.5616 29.0532L22.9929 27.9584C22.9787 27.9293 22.9718 27.8972 22.9729 27.8649C22.974 27.8325 22.983 27.801 22.9991 27.7729C23.0152 27.7448 23.038 27.721 23.0655 27.7036C23.093 27.6862 23.1244 27.6757 23.1569 27.673Z" fill="url(#paint15_radial_1007_452949)"/>
<path opacity="0.8" d="M23.7121 29.1401C23.7121 29.1401 23.7556 29.2065 23.9497 29.1866L26.1475 28.9941L23.9931 29.1169C23.9931 29.1169 23.6921 29.1069 23.7121 29.1401Z" fill="url(#paint16_radial_1007_452949)"/>
<path d="M24.1604 29.4687L26.4017 29.3526C26.4632 29.3476 26.5248 29.3611 26.5785 29.3912C26.6322 29.4214 26.6755 29.4669 26.7028 29.5218L27.422 30.6929C27.4349 30.7174 27.4414 30.7446 27.441 30.7722C27.4405 30.7998 27.4332 30.8268 27.4196 30.8508C27.4059 30.8749 27.3865 30.8952 27.363 30.9099C27.3395 30.9246 27.3126 30.9333 27.2849 30.9351L24.893 31.1408C24.8262 31.1487 24.7586 31.1365 24.6989 31.1057C24.6392 31.075 24.5903 31.0271 24.5585 30.9683L23.9898 29.8204C23.9751 29.7864 23.9679 29.7497 23.9687 29.7127C23.9695 29.6757 23.9783 29.6394 23.9944 29.606C24.0106 29.5727 24.0338 29.5432 24.0624 29.5195C24.091 29.4958 24.1245 29.4785 24.1604 29.4687Z" fill="#634DAA"/>
<path d="M24.234 29.4415L26.375 29.2823C26.4335 29.2774 26.4921 29.2899 26.5434 29.3183C26.5947 29.3466 26.6362 29.3896 26.6627 29.4415L27.3551 30.5596C27.3665 30.5831 27.3721 30.6089 27.3713 30.635C27.3705 30.661 27.3634 30.6865 27.3507 30.7093C27.3379 30.7321 27.3197 30.7515 27.2978 30.7658C27.2759 30.7802 27.2508 30.7891 27.2247 30.7918L24.9399 30.9876C24.8783 30.9927 24.8166 30.9796 24.7625 30.9501C24.7083 30.9206 24.6641 30.876 24.6354 30.8217L24.0701 29.7269C24.0558 29.6978 24.049 29.6657 24.05 29.6334C24.0511 29.601 24.0601 29.5695 24.0763 29.5414C24.0924 29.5133 24.1152 29.4895 24.1427 29.4721C24.1702 29.4547 24.2015 29.4442 24.234 29.4415Z" fill="url(#paint17_radial_1007_452949)"/>
<path opacity="0.8" d="M24.786 30.9081C24.786 30.9081 24.8295 30.9711 25.0235 30.9545L27.2247 30.7588L25.067 30.8849C25.067 30.8849 24.7659 30.8749 24.786 30.9081Z" fill="url(#paint18_radial_1007_452949)"/>
<path d="M26.0773 27.4209L28.3153 27.2816C28.3765 27.2789 28.4372 27.293 28.4909 27.3222C28.5446 27.3515 28.5891 27.3948 28.6197 27.4474L29.3489 28.612C29.3616 28.6364 29.3681 28.6635 29.3678 28.691C29.3675 28.7185 29.3604 28.7455 29.3472 28.7697C29.3341 28.7938 29.3152 28.8145 29.2921 28.8298C29.2691 28.8451 29.2427 28.8546 29.2151 28.8575L26.8233 29.0864C26.7565 29.0943 26.6889 29.0821 26.6292 29.0513C26.5695 29.0205 26.5206 28.9726 26.4888 28.9139L25.8833 27.7726C25.8687 27.737 25.8623 27.6987 25.8646 27.6604C25.8668 27.6221 25.8776 27.5848 25.8962 27.5511C25.9147 27.5174 25.9406 27.4883 25.9719 27.4658C26.0033 27.4433 26.0393 27.4279 26.0773 27.4209Z" fill="#634DAA"/>
<path d="M26.1475 27.3944L28.2884 27.2119C28.3474 27.2072 28.4064 27.2198 28.4581 27.2481C28.5099 27.2764 28.5521 27.3192 28.5795 27.3712L29.2786 28.4793C29.2907 28.5026 29.2969 28.5286 29.2966 28.5548C29.2964 28.5811 29.2897 28.6069 29.2772 28.63C29.2647 28.6532 29.2468 28.673 29.2249 28.6878C29.203 28.7025 29.1778 28.7118 29.1515 28.7148L26.87 28.9338C26.8088 28.9396 26.7472 28.9273 26.693 28.8983C26.6388 28.8694 26.5945 28.8252 26.5656 28.7712L25.9969 27.6797C25.9829 27.6516 25.9757 27.6205 25.9761 27.5891C25.9764 27.5577 25.9843 27.5269 25.9989 27.499C26.0136 27.4712 26.0347 27.4472 26.0606 27.429C26.0864 27.4108 26.1162 27.399 26.1475 27.3944Z" fill="url(#paint19_radial_1007_452949)"/>
<path opacity="0.8" d="M26.7162 28.8542C26.7162 28.8542 26.7597 28.9172 26.9537 28.9006L29.1515 28.6816L26.9972 28.8276C26.9972 28.8276 26.6961 28.8177 26.7162 28.8542Z" fill="url(#paint20_radial_1007_452949)"/>
<path d="M27.1678 29.1763L29.4091 29.037C29.4702 29.0326 29.5311 29.0459 29.5846 29.0754C29.6381 29.1048 29.6817 29.1491 29.7102 29.2028L30.4428 30.3674C30.4555 30.3918 30.4619 30.4189 30.4616 30.4464C30.4613 30.4739 30.4543 30.5009 30.4411 30.5251C30.4279 30.5492 30.409 30.5699 30.386 30.5852C30.363 30.6005 30.3366 30.61 30.309 30.6129L27.9172 30.8418C27.8507 30.85 27.7833 30.8383 27.7237 30.8081C27.6641 30.778 27.6149 30.7307 27.5826 30.6726L27.0006 29.528C26.9858 29.4942 26.9785 29.4577 26.979 29.4209C26.9796 29.3841 26.9881 29.3479 27.0039 29.3146C27.0198 29.2813 27.0426 29.2518 27.0708 29.2279C27.0991 29.2041 27.1322 29.1865 27.1678 29.1763Z" fill="#634DAA"/>
<path d="M27.2415 29.1493L29.3824 28.9669C29.4409 28.9619 29.4996 28.9745 29.5508 29.0028C29.6021 29.0312 29.6436 29.0742 29.6701 29.1261L30.3726 30.2375C30.3848 30.2607 30.3911 30.2864 30.3908 30.3125C30.3906 30.3386 30.3839 30.3643 30.3714 30.3872C30.3588 30.4102 30.3408 30.4297 30.3188 30.4441C30.2969 30.4585 30.2717 30.4673 30.2455 30.4698L27.964 30.6888C27.9061 30.6946 27.8476 30.6839 27.7955 30.6581C27.7434 30.6322 27.6998 30.5922 27.6696 30.5428L27.0909 29.4513C27.0732 29.4226 27.0631 29.3899 27.0616 29.3563C27.0601 29.3227 27.0672 29.2893 27.0822 29.2591C27.0972 29.229 27.1197 29.2031 27.1476 29.1839C27.1754 29.1647 27.2077 29.1528 27.2415 29.1493Z" fill="url(#paint21_radial_1007_452949)"/>
<path opacity="0.8" d="M27.8068 30.61C27.8068 30.61 27.8537 30.6731 28.0477 30.6565L30.2422 30.4375L28.0878 30.5835C28.0878 30.5835 27.7901 30.5768 27.8068 30.61Z" fill="url(#paint22_radial_1007_452949)"/>
<path d="M29.0078 27.1624L31.1822 27.0197C31.2433 27.0144 31.3047 27.0274 31.3583 27.057C31.412 27.0865 31.4555 27.1313 31.4833 27.1856L32.2159 28.3501C32.2285 28.3746 32.235 28.4017 32.2347 28.4292C32.2344 28.4566 32.2273 28.4836 32.2142 28.5078C32.201 28.532 32.1821 28.5526 32.1591 28.5679C32.136 28.5832 32.1096 28.5927 32.0821 28.5956L29.7571 28.8278C29.6903 28.8358 29.6227 28.8236 29.563 28.7928C29.5033 28.762 29.4544 28.7141 29.4226 28.6553L28.8171 27.514C28.8019 27.4788 28.7949 27.4406 28.7966 27.4022C28.7984 27.3639 28.8088 27.3265 28.8271 27.2927C28.8454 27.2589 28.8712 27.2297 28.9025 27.2071C28.9337 27.1845 28.9697 27.1692 29.0078 27.1624Z" fill="#634DAA"/>
<path d="M29.0814 27.1361L31.1554 26.9503C31.2139 26.9453 31.2726 26.9579 31.3238 26.9862C31.3751 27.0146 31.4166 27.0575 31.4431 27.1095L32.1456 28.2176C32.1577 28.241 32.1638 28.2669 32.1636 28.2932C32.1633 28.3194 32.1567 28.3452 32.1442 28.3684C32.1317 28.3916 32.1137 28.4114 32.0919 28.4261C32.07 28.4409 32.0448 28.4502 32.0185 28.4532L29.8039 28.6755C29.7422 28.6787 29.6807 28.6649 29.6264 28.6357C29.5721 28.6064 29.527 28.5627 29.4962 28.5096L28.9174 27.4214C28.9023 27.3924 28.8948 27.3601 28.8954 27.3275C28.8961 27.2949 28.905 27.2629 28.9213 27.2346C28.9376 27.2062 28.9607 27.1824 28.9887 27.1651C29.0167 27.1479 29.0485 27.1379 29.0814 27.1361Z" fill="url(#paint23_radial_1007_452949)"/>
<path opacity="0.8" d="M29.6467 28.5924C29.6467 28.5924 29.6935 28.6588 29.8875 28.6389L32.0185 28.4199L29.9277 28.5692C29.9277 28.5692 29.6299 28.5526 29.6467 28.5924Z" fill="url(#paint24_radial_1007_452949)"/>
<path d="M30.1585 28.9172L32.3964 28.7778C32.4581 28.7718 32.5202 28.7845 32.5745 28.8141C32.6288 28.8437 32.6729 28.8889 32.7009 28.9437L33.4602 30.0883C33.4729 30.1123 33.4796 30.139 33.4795 30.1661C33.4794 30.1931 33.4726 30.2198 33.4597 30.2437C33.4469 30.2676 33.4283 30.288 33.4056 30.3031C33.383 30.3183 33.3569 30.3276 33.3298 30.3305L30.9379 30.5627C30.8711 30.5707 30.8035 30.5584 30.7438 30.5277C30.6841 30.4969 30.6352 30.449 30.6034 30.3902L29.9644 29.2688C29.9499 29.2333 29.9435 29.195 29.9457 29.1566C29.948 29.1183 29.9588 29.081 29.9773 29.0473C29.9959 29.0137 30.0218 28.9845 30.0531 28.962C30.0845 28.9395 30.1204 28.9242 30.1585 28.9172Z" fill="#634DAA"/>
<path d="M30.2288 28.8846L32.3697 28.7021C32.4286 28.6974 32.4877 28.71 32.5394 28.7383C32.5912 28.7666 32.6334 28.8094 32.6608 28.8614L33.3934 29.9496C33.4055 29.9727 33.4118 29.9985 33.4116 30.0246C33.4114 30.0507 33.4047 30.0763 33.3921 30.0993C33.3796 30.1222 33.3615 30.1417 33.3396 30.1561C33.3176 30.1705 33.2924 30.1794 33.2662 30.1818L30.9848 30.4008C30.9229 30.4078 30.8604 30.3959 30.8054 30.3669C30.7505 30.3379 30.7057 30.293 30.677 30.2382L30.0682 29.1699C30.0532 29.1412 30.0455 29.1092 30.046 29.0768C30.0465 29.0444 30.0551 29.0127 30.071 28.9844C30.087 28.9561 30.1097 28.9322 30.1372 28.9148C30.1647 28.8974 30.1962 28.887 30.2288 28.8846Z" fill="url(#paint25_radial_1007_452949)"/>
<path opacity="0.8" d="M30.8276 30.3274C30.8276 30.3274 30.8744 30.3938 31.0684 30.3739L33.2629 30.1582L31.1086 30.3042C31.1086 30.3042 30.8109 30.2942 30.8276 30.3274Z" fill="url(#paint26_radial_1007_452949)"/>
<path d="M31.5 30.752L33.7413 30.6126C33.8025 30.61 33.8632 30.6241 33.9169 30.6533C33.9706 30.6826 34.0151 30.7259 34.0457 30.7785L34.8051 31.9231C34.8177 31.9476 34.8242 31.9747 34.8239 32.0022C34.8236 32.0297 34.8166 32.0566 34.8034 32.0808C34.7902 32.105 34.7713 32.1256 34.7483 32.1409C34.7253 32.1562 34.6988 32.1657 34.6713 32.1686L32.2794 32.3975C32.2126 32.4055 32.145 32.3933 32.0853 32.3625C32.0256 32.3317 31.9767 32.2838 31.9449 32.225L31.3093 31.1036C31.2947 31.0683 31.2883 31.0302 31.2903 30.9921C31.2923 30.954 31.3028 30.9168 31.321 30.8832C31.3393 30.8496 31.3648 30.8204 31.3957 30.7977C31.4266 30.775 31.4622 30.7594 31.5 30.752Z" fill="#634DAA"/>
<path d="M31.5736 30.7255L33.7145 30.543C33.773 30.5381 33.8317 30.5506 33.8829 30.579C33.9342 30.6074 33.9757 30.6503 34.0022 30.7023L34.7348 31.7905C34.7469 31.8139 34.7531 31.8398 34.7528 31.8661C34.7526 31.8923 34.7459 31.9181 34.7334 31.9413C34.7209 31.9644 34.703 31.9842 34.6811 31.999C34.6592 32.0138 34.634 32.023 34.6077 32.0261L32.3263 32.245C32.2647 32.2501 32.203 32.2371 32.1489 32.2076C32.0947 32.178 32.0505 32.1334 32.0218 32.0791L31.413 31.0108C31.3988 30.982 31.3919 30.9502 31.3928 30.9181C31.3937 30.886 31.4024 30.8546 31.4181 30.8266C31.4339 30.7986 31.4563 30.7747 31.4834 30.7571C31.5104 30.7395 31.5414 30.7287 31.5736 30.7255Z" fill="url(#paint27_radial_1007_452949)"/>
<path opacity="0.8" d="M32.1723 32.1657C32.1723 32.1657 32.2158 32.2287 32.4099 32.2088L34.6077 31.9932L32.4533 32.1391C32.4533 32.1391 32.1523 32.1292 32.1723 32.1657Z" fill="url(#paint28_radial_1007_452949)"/>
<path d="M17.9215 30.0591L20.2833 29.9165C20.3449 29.9132 20.4061 29.9282 20.4591 29.9595C20.5121 29.9908 20.5545 30.037 20.581 30.0923L21.2266 31.3099C21.2388 31.3345 21.2447 31.3617 21.2437 31.389C21.2427 31.4164 21.2349 31.4431 21.221 31.4667C21.2071 31.4904 21.1875 31.5103 21.164 31.5246C21.1404 31.5389 21.1137 31.5472 21.0861 31.5488L18.6207 31.7478C18.5561 31.7508 18.492 31.7352 18.4362 31.7028C18.3804 31.6704 18.3352 31.6227 18.3062 31.5654L17.7308 30.4075C17.7175 30.3723 17.7119 30.3347 17.7145 30.2972C17.7171 30.2597 17.7278 30.2231 17.7459 30.1901C17.764 30.157 17.789 30.1282 17.8193 30.1057C17.8496 30.0831 17.8845 30.0672 17.9215 30.0591Z" fill="#634DAA"/>
<path d="M17.9952 30.0352L20.2599 29.846C20.3184 29.8433 20.3765 29.8575 20.427 29.8869C20.4775 29.9164 20.5183 29.9598 20.5443 30.0119L21.1631 31.1731C21.1746 31.1968 21.1801 31.223 21.1791 31.2493C21.1782 31.2756 21.1708 31.3012 21.1576 31.324C21.1445 31.3469 21.1259 31.3662 21.1036 31.3804C21.0812 31.3945 21.0557 31.4031 21.0293 31.4054L18.6876 31.5945C18.6259 31.5983 18.5644 31.5839 18.5109 31.5532C18.4573 31.5226 18.4141 31.4769 18.3866 31.422L17.8413 30.3172C17.8279 30.2889 17.8213 30.258 17.8222 30.2268C17.8231 30.1956 17.8314 30.165 17.8463 30.1376C17.8613 30.1101 17.8826 30.0866 17.9084 30.0688C17.9343 30.051 17.964 30.0395 17.9952 30.0352Z" fill="url(#paint29_radial_1007_452949)"/>
<path opacity="0.8" d="M18.517 31.5124C18.517 31.5124 18.5639 31.5754 18.7545 31.5655L21.026 31.373L18.8014 31.4925C18.8014 31.4925 18.5003 31.4759 18.517 31.5124Z" fill="url(#paint30_radial_1007_452949)"/>
<path d="M18.8349 31.9635L30.6403 30.8322C30.7034 30.8302 30.7658 30.846 30.8203 30.8777C30.8747 30.9094 30.919 30.9557 30.948 31.0114L31.7676 32.2422C31.7796 32.268 31.7851 32.2962 31.7837 32.3245C31.7822 32.3528 31.774 32.3803 31.7595 32.4047C31.745 32.4292 31.7248 32.4498 31.7006 32.4648C31.6764 32.4798 31.6489 32.4888 31.6204 32.491L19.5541 33.7053C19.4859 33.7121 19.4172 33.6979 19.3573 33.6647C19.2975 33.6314 19.2494 33.5808 19.2196 33.5195L18.6375 32.3218C18.6236 32.2856 18.6178 32.2468 18.6205 32.2081C18.6232 32.1694 18.6343 32.1317 18.653 32.0976C18.6718 32.0636 18.6978 32.034 18.7291 32.0108C18.7605 31.9877 18.7966 31.9715 18.8349 31.9635Z" fill="#634DAA"/>
<path d="M18.9084 31.9402L30.6168 30.7591C30.677 30.7564 30.7367 30.7714 30.7884 30.802C30.8401 30.8327 30.8817 30.8778 30.9078 30.9316L31.7006 32.1061C31.712 32.1303 31.7174 32.1568 31.7162 32.1835C31.7151 32.2102 31.7074 32.2362 31.694 32.2593C31.6805 32.2824 31.6616 32.302 31.6389 32.3163C31.6162 32.3307 31.5903 32.3394 31.5635 32.3416L19.6075 33.5493C19.5439 33.5519 19.4808 33.5364 19.4256 33.5047C19.3705 33.473 19.3257 33.4263 19.2964 33.3701L18.7344 32.2288C18.7201 32.1988 18.7135 32.1657 18.7151 32.1325C18.7167 32.0993 18.7266 32.067 18.7437 32.0385C18.7609 32.0099 18.785 31.9861 18.8137 31.9689C18.8424 31.9518 18.8749 31.9419 18.9084 31.9402Z" fill="url(#paint31_radial_1007_452949)"/>
<path opacity="0.8" d="M19.4469 33.4598C19.4469 33.4598 19.4938 33.5295 19.6945 33.5162L31.5601 32.3086L19.738 33.4432C19.738 33.4432 19.4302 33.4233 19.4469 33.4598Z" fill="url(#paint32_radial_1007_452949)"/>
<path d="M21.8154 33.9302L30.1986 33.197C30.2617 33.1927 30.3247 33.2075 30.379 33.2395C30.4334 33.2715 30.4767 33.3192 30.5031 33.3762L31.9315 35.5659C31.9434 35.5916 31.9489 35.6198 31.9475 35.6481C31.9461 35.6764 31.9378 35.7039 31.9234 35.7284C31.9089 35.7528 31.8887 35.7734 31.8645 35.7885C31.8403 35.8035 31.8128 35.8125 31.7843 35.8147L23.1435 36.6309C23.0753 36.6376 23.0066 36.6234 22.9467 36.5902C22.8869 36.557 22.8388 36.5063 22.809 36.4451L21.6114 34.2919C21.5969 34.255 21.5909 34.2153 21.5937 34.1758C21.5965 34.1363 21.608 34.0979 21.6275 34.0634C21.647 34.0288 21.674 33.999 21.7065 33.976C21.7389 33.953 21.7762 33.9373 21.8154 33.9302Z" fill="#634DAA"/>
<path d="M21.8891 33.9037L30.1719 33.1207C30.2328 33.1169 30.2934 33.1314 30.3459 33.1621C30.3983 33.1929 30.4403 33.2386 30.4663 33.2932L31.8646 35.4232C31.8768 35.4475 31.8827 35.4744 31.8819 35.5015C31.8811 35.5287 31.8736 35.5552 31.86 35.5788C31.8465 35.6023 31.8273 35.6223 31.8042 35.6368C31.7811 35.6513 31.7548 35.66 31.7275 35.6621L23.1971 36.4716C23.1334 36.4742 23.0703 36.4588 23.0152 36.427C22.9601 36.3953 22.9152 36.3486 22.886 36.2924L21.7151 34.1923C21.7016 34.1622 21.6956 34.1293 21.6976 34.0964C21.6996 34.0635 21.7096 34.0316 21.7266 34.0033C21.7437 33.975 21.7674 33.9512 21.7956 33.9338C21.8239 33.9165 21.8559 33.9062 21.8891 33.9037Z" fill="url(#paint33_radial_1007_452949)"/>
<path opacity="0.8" d="M23.0364 36.3853C23.0364 36.3853 23.0833 36.4517 23.284 36.4384L31.7241 35.6289L23.3208 36.3654C23.3208 36.3654 23.0197 36.3488 23.0364 36.3853Z" fill="url(#paint34_radial_1007_452949)"/>
<path d="M32.1991 14.1766L33.4837 13.46L34.7181 14.1766L33.4 14.8368L32.1991 14.1766Z" fill="#91E1C0"/>
<path d="M33.4 14.837V16.2868L32.2191 15.5901V14.1768L33.4 14.837Z" fill="#C8FDE8"/>
<path d="M33.4034 14.837V16.2868L34.7215 15.5901V14.1768L33.4034 14.837Z" fill="#7DB383"/>
<path d="M22.8893 15.7996L24.1772 15.083L25.4116 15.7996L24.0936 16.4565L22.8893 15.7996Z" fill="#91E1C0"/>
<path d="M24.0935 16.4567V17.9065L22.9093 17.2131V15.7998L24.0935 16.4567Z" fill="#C8FDE8"/>
<path d="M24.0969 16.4567V17.9065L25.4116 17.2131V15.7998L24.0969 16.4567Z" fill="#7DB383"/>
<path d="M26.8467 18.8614C26.7948 18.8621 26.7445 18.8431 26.7062 18.8083L24.6991 17.1495C24.6771 17.1316 24.6589 17.1095 24.6457 17.0845C24.6324 17.0595 24.6243 17.0322 24.6218 17.0041C24.6193 16.976 24.6225 16.9477 24.6312 16.9208C24.6398 16.8939 24.6538 16.869 24.6723 16.8476C24.7088 16.8038 24.7613 16.7762 24.8183 16.7706C24.8753 16.765 24.9322 16.7819 24.9767 16.8177L26.9839 18.4932C27.0058 18.5111 27.024 18.5332 27.0373 18.5581C27.0505 18.5831 27.0586 18.6104 27.0611 18.6385C27.0636 18.6667 27.0604 18.695 27.0518 18.7218C27.0431 18.7487 27.0291 18.7736 27.0106 18.7951C26.9899 18.8174 26.9645 18.835 26.9362 18.8465C26.9078 18.8579 26.8773 18.863 26.8467 18.8614Z" fill="url(#paint35_linear_1007_452949)"/>
<path d="M20.3636 18.6557C20.3784 18.6082 20.4106 18.5679 20.4539 18.5428L23.2706 16.8077C23.2945 16.7929 23.3212 16.7829 23.349 16.7783C23.3769 16.7737 23.4053 16.7746 23.4328 16.7809C23.4603 16.7872 23.4863 16.7988 23.5093 16.8151C23.5322 16.8314 23.5517 16.852 23.5667 16.8757C23.5816 16.8994 23.5917 16.9259 23.5963 16.9535C23.6009 16.9811 23.6001 17.0093 23.5937 17.0366C23.5873 17.0639 23.5756 17.0896 23.5592 17.1124C23.5428 17.1352 23.522 17.1545 23.4981 17.1693L20.6814 18.9078C20.6323 18.9366 20.5739 18.9454 20.5184 18.9324C20.4629 18.9194 20.4146 18.8856 20.3837 18.8381C20.3674 18.8109 20.3572 18.7805 20.3537 18.749C20.3503 18.7176 20.3536 18.6857 20.3636 18.6557Z" fill="url(#paint36_linear_1007_452949)"/>
<path d="M27.3753 18.6398C27.3897 18.5921 27.4205 18.5511 27.4623 18.5236L32.5504 15.1595C32.5979 15.1278 32.6561 15.1161 32.7122 15.127C32.7684 15.1379 32.8178 15.1705 32.8498 15.2175C32.8817 15.2646 32.8935 15.3224 32.8825 15.378C32.8715 15.4337 32.8387 15.4828 32.7912 15.5145L27.7031 18.8786C27.6796 18.8942 27.6533 18.905 27.6256 18.9104C27.5979 18.9158 27.5694 18.9158 27.5417 18.9102C27.5141 18.9047 27.4878 18.8937 27.4644 18.8781C27.441 18.8624 27.4209 18.8423 27.4054 18.8189C27.3875 18.793 27.3756 18.7636 27.3704 18.7326C27.3652 18.7017 27.3669 18.67 27.3753 18.6398Z" fill="url(#paint37_linear_1007_452949)"/>
<path d="M26.064 18.6561L27.3519 17.9395L28.5863 18.6561L27.2683 19.3163L26.064 18.6561Z" fill="#91E1C0"/>
<path d="M27.2682 19.3165V20.7663L26.0873 20.0696V18.6562L27.2682 19.3165Z" fill="#C8FDE8"/>
<path d="M27.2715 19.3165V20.7663L28.5895 20.0696V18.6562L27.2715 19.3165Z" fill="#7DB383"/>
<path d="M18.5571 18.8944L19.8417 18.1777L21.0794 18.8944L19.7581 19.5513L18.5571 18.8944Z" fill="#91E1C0"/>
<path d="M19.7581 19.5514V21.0013L18.5773 20.3079V18.8945L19.7581 19.5514Z" fill="#C8FDE8"/>
<path d="M19.7648 19.5514V21.0013L21.0795 20.3079V18.8945L19.7648 19.5514Z" fill="#7DB383"/>
</g>
<defs>
<linearGradient id="paint0_linear_1007_452949" x1="22.247" y1="30.6224" x2="21.092" y2="7.50044" gradientUnits="userSpaceOnUse">
<stop offset="0.07" stop-color="#DCDDDD"/>
<stop offset="0.08" stop-color="#DDDEDE"/>
<stop offset="0.23" stop-color="#ECEAE9"/>
<stop offset="0.42" stop-color="#F4F1EF"/>
<stop offset="0.7" stop-color="#F7F3F1"/>
</linearGradient>
<linearGradient id="paint1_linear_1007_452949" x1="13.1713" y1="33.9208" x2="15.6593" y2="32.7371" gradientUnits="userSpaceOnUse">
<stop offset="0.07" stop-color="#CCC7E2"/>
<stop offset="0.09" stop-color="#D4D0E7"/>
<stop offset="0.13" stop-color="#E7E5F1"/>
<stop offset="0.17" stop-color="#F5F4F9"/>
<stop offset="0.22" stop-color="#FDFCFE"/>
<stop offset="0.3" stop-color="white"/>
</linearGradient>
<linearGradient id="paint2_linear_1007_452949" x1="27.5157" y1="37.4437" x2="27.0813" y2="33.6574" gradientUnits="userSpaceOnUse">
<stop offset="0.07" stop-color="#CCC7E2"/>
<stop offset="0.09" stop-color="#D4D0E7"/>
<stop offset="0.13" stop-color="#E7E5F1"/>
<stop offset="0.17" stop-color="#F5F4F9"/>
<stop offset="0.22" stop-color="#FDFCFE"/>
<stop offset="0.3" stop-color="white"/>
</linearGradient>
<radialGradient id="paint3_radial_1007_452949" cx="0" cy="0" r="1" gradientUnits="userSpaceOnUse" gradientTransform="translate(15.2988 28.3406) scale(2.5725 2.55131)">
<stop offset="0.36" stop-color="#B09AEF"/>
<stop offset="0.56" stop-color="#A58EE6"/>
<stop offset="0.93" stop-color="#8A6ECE"/>
<stop offset="1" stop-color="#8467C9"/>
</radialGradient>
<radialGradient id="paint4_radial_1007_452949" cx="0" cy="0" r="1" gradientUnits="userSpaceOnUse" gradientTransform="translate(16.8812 29.2688) scale(2.713 2.6906)">
<stop offset="0.36" stop-color="#B09AEF"/>
<stop offset="0.48" stop-color="#BAA6F1"/>
<stop offset="0.69" stop-color="#D3C7F6"/>
<stop offset="0.98" stop-color="#FCFBFE"/>
<stop offset="1" stop-color="white"/>
</radialGradient>
<radialGradient id="paint5_radial_1007_452949" cx="0" cy="0" r="1" gradientUnits="userSpaceOnUse" gradientTransform="translate(16.2456 30.1388) scale(2.64275 2.62098)">
<stop offset="0.36" stop-color="#B09AEF"/>
<stop offset="0.56" stop-color="#A58EE6"/>
<stop offset="0.93" stop-color="#8A6ECE"/>
<stop offset="1" stop-color="#8467C9"/>
</radialGradient>
<radialGradient id="paint6_radial_1007_452949" cx="0" cy="0" r="1" gradientUnits="userSpaceOnUse" gradientTransform="translate(17.8647 30.9515) scale(3.3854 3.35743)">
<stop offset="0.36" stop-color="#B09AEF"/>
<stop offset="0.48" stop-color="#BAA6F1"/>
<stop offset="0.69" stop-color="#D3C7F6"/>
<stop offset="0.98" stop-color="#FCFBFE"/>
<stop offset="1" stop-color="white"/>
</radialGradient>
<radialGradient id="paint7_radial_1007_452949" cx="0" cy="0" r="1" gradientUnits="userSpaceOnUse" gradientTransform="translate(17.2056 32.0363) scale(2.72638 2.70393)">
<stop offset="0.36" stop-color="#B09AEF"/>
<stop offset="0.56" stop-color="#A58EE6"/>
<stop offset="0.93" stop-color="#8A6ECE"/>
<stop offset="1" stop-color="#8467C9"/>
</radialGradient>
<radialGradient id="paint8_radial_1007_452949" cx="0" cy="0" r="1" gradientUnits="userSpaceOnUse" gradientTransform="translate(18.875 32.8756) scale(3.49245 3.46366)">
<stop offset="0.36" stop-color="#B09AEF"/>
<stop offset="0.48" stop-color="#BAA6F1"/>
<stop offset="0.69" stop-color="#D3C7F6"/>
<stop offset="0.98" stop-color="#FCFBFE"/>
<stop offset="1" stop-color="white"/>
</radialGradient>
<radialGradient id="paint9_radial_1007_452949" cx="0" cy="0" r="1" gradientUnits="userSpaceOnUse" gradientTransform="translate(18.4836 28.0877) scale(2.5725 2.55131)">
<stop offset="0.36" stop-color="#B09AEF"/>
<stop offset="0.56" stop-color="#A58EE6"/>
<stop offset="0.93" stop-color="#8A6ECE"/>
<stop offset="1" stop-color="#8467C9"/>
</radialGradient>
<radialGradient id="paint10_radial_1007_452949" cx="0" cy="0" r="1" gradientUnits="userSpaceOnUse" gradientTransform="translate(20.0658 29.0139) scale(2.713 2.69066)">
<stop offset="0.36" stop-color="#B09AEF"/>
<stop offset="0.48" stop-color="#BAA6F1"/>
<stop offset="0.69" stop-color="#D3C7F6"/>
<stop offset="0.98" stop-color="#FCFBFE"/>
<stop offset="1" stop-color="white"/>
</radialGradient>
<radialGradient id="paint11_radial_1007_452949" cx="0" cy="0" r="1" gradientUnits="userSpaceOnUse" gradientTransform="translate(21.3571 27.0697) scale(4.38228 4.34618)">
<stop offset="0.36" stop-color="#B09AEF"/>
<stop offset="0.56" stop-color="#A58EE6"/>
<stop offset="0.93" stop-color="#8A6ECE"/>
<stop offset="1" stop-color="#8467C9"/>
</radialGradient>
<radialGradient id="paint12_radial_1007_452949" cx="0" cy="0" r="1" gradientUnits="userSpaceOnUse" gradientTransform="translate(23.09 28.7219) scale(2.713 2.6906)">
<stop offset="0.36" stop-color="#B09AEF"/>
<stop offset="0.48" stop-color="#BAA6F1"/>
<stop offset="0.69" stop-color="#D3C7F6"/>
<stop offset="0.98" stop-color="#FCFBFE"/>
<stop offset="1" stop-color="white"/>
</radialGradient>
<radialGradient id="paint13_radial_1007_452949" cx="0" cy="0" r="1" gradientUnits="userSpaceOnUse" gradientTransform="translate(22.6584 28.2901) scale(3.60618 3.57648)">
<stop offset="0.36" stop-color="#B09AEF"/>
<stop offset="0.56" stop-color="#A58EE6"/>
<stop offset="0.93" stop-color="#8A6ECE"/>
<stop offset="1" stop-color="#8467C9"/>
</radialGradient>
<radialGradient id="paint14_radial_1007_452949" cx="0" cy="0" r="1" gradientUnits="userSpaceOnUse" gradientTransform="translate(24.1303 30.51) scale(2.713 2.6906)">
<stop offset="0.36" stop-color="#B09AEF"/>
<stop offset="0.48" stop-color="#BAA6F1"/>
<stop offset="0.69" stop-color="#D3C7F6"/>
<stop offset="0.98" stop-color="#FCFBFE"/>
<stop offset="1" stop-color="white"/>
</radialGradient>
<radialGradient id="paint15_radial_1007_452949" cx="0" cy="0" r="1" gradientUnits="userSpaceOnUse" gradientTransform="translate(24.5585 26.9631) scale(3.98754 3.95469)">
<stop offset="0.36" stop-color="#B09AEF"/>
<stop offset="0.56" stop-color="#A58EE6"/>
<stop offset="0.93" stop-color="#8A6ECE"/>
<stop offset="1" stop-color="#8467C9"/>
</radialGradient>
<radialGradient id="paint16_radial_1007_452949" cx="0" cy="0" r="1" gradientUnits="userSpaceOnUse" gradientTransform="translate(26.2674 28.3768) rotate(-1.13636) scale(2.71353 2.69127)">
<stop offset="0.36" stop-color="#B09AEF"/>
<stop offset="0.48" stop-color="#BAA6F1"/>
<stop offset="0.69" stop-color="#D3C7F6"/>
<stop offset="0.98" stop-color="#FCFBFE"/>
<stop offset="1" stop-color="white"/>
</radialGradient>
<radialGradient id="paint17_radial_1007_452949" cx="0" cy="0" r="1" gradientUnits="userSpaceOnUse" gradientTransform="translate(25.7628 27.8889) scale(5.35911 5.31494)">
<stop offset="0.36" stop-color="#B09AEF"/>
<stop offset="0.56" stop-color="#A58EE6"/>
<stop offset="0.93" stop-color="#8A6ECE"/>
<stop offset="1" stop-color="#8467C9"/>
</radialGradient>
<radialGradient id="paint18_radial_1007_452949" cx="0" cy="0" r="1" gradientUnits="userSpaceOnUse" gradientTransform="translate(27.3439 30.1441) rotate(-1.13632) scale(2.71354 2.69119)">
<stop offset="0.36" stop-color="#B09AEF"/>
<stop offset="0.48" stop-color="#BAA6F1"/>
<stop offset="0.69" stop-color="#D3C7F6"/>
<stop offset="0.98" stop-color="#FCFBFE"/>
<stop offset="1" stop-color="white"/>
</radialGradient>
<radialGradient id="paint19_radial_1007_452949" cx="0" cy="0" r="1" gradientUnits="userSpaceOnUse" gradientTransform="translate(27.4689 26.3725) scale(4.47594 4.43908)">
<stop offset="0.36" stop-color="#B09AEF"/>
<stop offset="0.56" stop-color="#A58EE6"/>
<stop offset="0.93" stop-color="#8A6ECE"/>
<stop offset="1" stop-color="#8467C9"/>
</radialGradient>
<radialGradient id="paint20_radial_1007_452949" cx="0" cy="0" r="1" gradientUnits="userSpaceOnUse" gradientTransform="translate(29.1668 28.1285) rotate(-1.67602) scale(2.71298 2.69057)">
<stop offset="0.36" stop-color="#B09AEF"/>
<stop offset="0.48" stop-color="#BAA6F1"/>
<stop offset="0.69" stop-color="#D3C7F6"/>
<stop offset="0.98" stop-color="#FCFBFE"/>
<stop offset="1" stop-color="white"/>
</radialGradient>
<radialGradient id="paint21_radial_1007_452949" cx="0" cy="0" r="1" gradientUnits="userSpaceOnUse" gradientTransform="translate(28.9174 24.6738) scale(10.2733 10.1887)">
<stop offset="0.36" stop-color="#B09AEF"/>
<stop offset="0.56" stop-color="#A58EE6"/>
<stop offset="0.93" stop-color="#8A6ECE"/>
<stop offset="1" stop-color="#8467C9"/>
</radialGradient>
<radialGradient id="paint22_radial_1007_452949" cx="0" cy="0" r="1" gradientUnits="userSpaceOnUse" gradientTransform="translate(30.26 29.8863) rotate(-1.6761) scale(2.71298 2.69069)">
<stop offset="0.36" stop-color="#B09AEF"/>
<stop offset="0.48" stop-color="#BAA6F1"/>
<stop offset="0.69" stop-color="#D3C7F6"/>
<stop offset="0.98" stop-color="#FCFBFE"/>
<stop offset="1" stop-color="white"/>
</radialGradient>
<radialGradient id="paint23_radial_1007_452949" cx="0" cy="0" r="1" gradientUnits="userSpaceOnUse" gradientTransform="translate(30.0916 26.0014) scale(4.99111 4.94999)">
<stop offset="0.36" stop-color="#B09AEF"/>
<stop offset="0.56" stop-color="#A58EE6"/>
<stop offset="0.93" stop-color="#8A6ECE"/>
<stop offset="1" stop-color="#8467C9"/>
</radialGradient>
<radialGradient id="paint24_radial_1007_452949" cx="0" cy="0" r="1" gradientUnits="userSpaceOnUse" gradientTransform="translate(32.0334 27.8492) rotate(-1.6761) scale(2.78992 2.76699)">
<stop offset="0.36" stop-color="#B09AEF"/>
<stop offset="0.48" stop-color="#BAA6F1"/>
<stop offset="0.69" stop-color="#D3C7F6"/>
<stop offset="0.98" stop-color="#FCFBFE"/>
<stop offset="1" stop-color="white"/>
</radialGradient>
<radialGradient id="paint25_radial_1007_452949" cx="0" cy="0" r="1" gradientUnits="userSpaceOnUse" gradientTransform="translate(28.9174 24.6745) scale(10.2733 10.1886)">
<stop offset="0.36" stop-color="#B09AEF"/>
<stop offset="0.56" stop-color="#A58EE6"/>
<stop offset="0.93" stop-color="#8A6ECE"/>
<stop offset="1" stop-color="#8467C9"/>
</radialGradient>
<radialGradient id="paint26_radial_1007_452949" cx="0" cy="0" r="1" gradientUnits="userSpaceOnUse" gradientTransform="translate(33.2803 29.6015) rotate(-1.67607) scale(2.71298 2.69065)">
<stop offset="0.36" stop-color="#B09AEF"/>
<stop offset="0.48" stop-color="#BAA6F1"/>
<stop offset="0.69" stop-color="#D3C7F6"/>
<stop offset="0.98" stop-color="#FCFBFE"/>
<stop offset="1" stop-color="white"/>
</radialGradient>
<radialGradient id="paint27_radial_1007_452949" cx="0" cy="0" r="1" gradientUnits="userSpaceOnUse" gradientTransform="translate(33.0018 30.5888) rotate(-1.67609) scale(2.56245 2.54138)">
<stop offset="0.36" stop-color="#B09AEF"/>
<stop offset="0.56" stop-color="#A58EE6"/>
<stop offset="0.93" stop-color="#8A6ECE"/>
<stop offset="1" stop-color="#8467C9"/>
</radialGradient>
<radialGradient id="paint28_radial_1007_452949" cx="0" cy="0" r="1" gradientUnits="userSpaceOnUse" gradientTransform="translate(34.6234 31.4378) rotate(-1.67608) scale(2.71298 2.69065)">
<stop offset="0.36" stop-color="#B09AEF"/>
<stop offset="0.48" stop-color="#BAA6F1"/>
<stop offset="0.69" stop-color="#D3C7F6"/>
<stop offset="0.98" stop-color="#FCFBFE"/>
<stop offset="1" stop-color="white"/>
</radialGradient>
<radialGradient id="paint29_radial_1007_452949" cx="0" cy="0" r="1" gradientUnits="userSpaceOnUse" gradientTransform="translate(19.4303 29.8825) scale(2.64275 2.62099)">
<stop offset="0.36" stop-color="#B09AEF"/>
<stop offset="0.56" stop-color="#A58EE6"/>
<stop offset="0.93" stop-color="#8A6ECE"/>
<stop offset="1" stop-color="#8467C9"/>
</radialGradient>
<radialGradient id="paint30_radial_1007_452949" cx="0" cy="0" r="1" gradientUnits="userSpaceOnUse" gradientTransform="translate(21.0494 30.6963) scale(3.3854 3.35744)">
<stop offset="0.36" stop-color="#B09AEF"/>
<stop offset="0.48" stop-color="#BAA6F1"/>
<stop offset="0.69" stop-color="#D3C7F6"/>
<stop offset="0.98" stop-color="#FCFBFE"/>
<stop offset="1" stop-color="white"/>
</radialGradient>
<radialGradient id="paint31_radial_1007_452949" cx="0" cy="0" r="1" gradientUnits="userSpaceOnUse" gradientTransform="translate(24.4147 26.2138) scale(17.2615 17.1193)">
<stop offset="0.36" stop-color="#B09AEF"/>
<stop offset="0.56" stop-color="#A58EE6"/>
<stop offset="0.93" stop-color="#8A6ECE"/>
<stop offset="1" stop-color="#8467C9"/>
</radialGradient>
<radialGradient id="paint32_radial_1007_452949" cx="0" cy="0" r="1" gradientUnits="userSpaceOnUse" gradientTransform="translate(31.6705 28.0785) scale(21.1888 21.0142)">
<stop offset="0.36" stop-color="#B09AEF"/>
<stop offset="0.48" stop-color="#BAA6F1"/>
<stop offset="0.69" stop-color="#D3C7F6"/>
<stop offset="0.98" stop-color="#FCFBFE"/>
<stop offset="1" stop-color="white"/>
</radialGradient>
<radialGradient id="paint33_radial_1007_452949" cx="0" cy="0" r="1" gradientUnits="userSpaceOnUse" gradientTransform="translate(26.6126 28.3731) scale(14.6556 14.5348)">
<stop offset="0.36" stop-color="#B09AEF"/>
<stop offset="0.56" stop-color="#A58EE6"/>
<stop offset="0.93" stop-color="#8A6ECE"/>
<stop offset="1" stop-color="#8467C9"/>
</radialGradient>
<radialGradient id="paint34_radial_1007_452949" cx="0" cy="0" r="1" gradientUnits="userSpaceOnUse" gradientTransform="translate(31.8043 32.7823) scale(14.2541 14.1367)">
<stop offset="0.09" stop-color="#B09AEF"/>
<stop offset="0.21" stop-color="#BAA6F1"/>
<stop offset="0.43" stop-color="#D3C7F6"/>
<stop offset="0.71" stop-color="#FCFBFE"/>
<stop offset="0.73" stop-color="white"/>
</radialGradient>
<linearGradient id="paint35_linear_1007_452949" x1="25.6625" y1="18.0154" x2="26.0435" y2="17.5578" gradientUnits="userSpaceOnUse">
<stop offset="0.19" stop-color="#C9CACA"/>
<stop offset="0.52" stop-color="white"/>
<stop offset="1" stop-color="#9FA0A0"/>
</linearGradient>
<linearGradient id="paint36_linear_1007_452949" x1="21.8373" y1="17.6643" x2="22.1536" y2="18.1846" gradientUnits="userSpaceOnUse">
<stop offset="0.19" stop-color="#C9CACA"/>
<stop offset="0.52" stop-color="white"/>
<stop offset="1" stop-color="#9FA0A0"/>
</linearGradient>
<linearGradient id="paint37_linear_1007_452949" x1="29.9645" y1="16.7644" x2="30.3068" y2="17.2768" gradientUnits="userSpaceOnUse">
<stop offset="0.19" stop-color="#C9CACA"/>
<stop offset="0.52" stop-color="white"/>
<stop offset="1" stop-color="#9FA0A0"/>
</linearGradient>
<clipPath id="clip0_1007_452949">
<rect width="29" height="29" fill="white" transform="translate(10 10)"/>
</clipPath>
</defs>
</svg>
