<svg width="48" height="48" viewBox="0 0 48 48" fill="none" xmlns="http://www.w3.org/2000/svg">
<circle cx="24" cy="24" r="24" fill="#53D6FF"/>
<mask id="mask0_1007_452898" style="mask-type:alpha" maskUnits="userSpaceOnUse" x="0" y="0" width="48" height="48">
<circle cx="24" cy="24" r="24" fill="#53D6FF"/>
</mask>
<g mask="url(#mask0_1007_452898)">
<path d="M26.2933 19.7292V18.6211H21.2964V19.7292C21.4831 21.463 20.9932 22.7654 20.1836 23.3783C19.6542 23.7654 19.0687 24.0647 18.4486 24.2651C19.1125 26.9905 24.2959 26.5889 24.2959 26.5889C27.7619 26.6706 28.8087 24.2651 28.8087 24.2651C27.9427 24.1137 27.4839 23.6035 27.0864 23.177C26.0289 22.037 26.2933 19.7292 26.2933 19.7292Z" fill="url(#paint0_radial_1007_452898)"/>
<path d="M29.2024 15.121C29.529 15.7438 29.252 16.8678 28.4044 17.1299C27.76 17.3102 27.3848 16.9894 27.0583 16.3666C26.7317 15.7438 26.997 15.1309 27.5948 14.7224C28.2849 14.2999 28.8748 14.4972 29.2024 15.121Z" fill="url(#paint1_radial_1007_452898)"/>
<path d="M18.436 15.121C18.1104 15.7438 18.3855 16.8678 19.234 17.1299C19.8784 17.3102 20.2536 16.9894 20.5802 16.3666C20.9067 15.7438 20.6414 15.1309 20.0446 14.7224C19.3526 14.2999 18.7636 14.4972 18.436 15.121Z" fill="url(#paint2_radial_1007_452898)"/>
<path d="M28.1877 15.625C28.1877 18.167 26.6423 20.8066 23.8139 20.8066C21.0418 20.8066 19.4401 18.164 19.4401 15.625V14.5129C19.4401 11.9699 21.3976 9.90918 23.8139 9.90918C26.2282 9.90918 28.1877 11.9699 28.1877 14.5129V15.625Z" fill="url(#paint3_radial_1007_452898)"/>
<path d="M21.9195 11.427C21.9195 11.427 23.6263 11.8754 25.335 11.4579C25.8375 11.2755 26.3886 11.7369 26.4858 11.8824C27.2828 13.0662 27.864 13.8126 28.1255 14.2111C28.1954 14.7144 28.4725 14.8359 28.7436 13.7707C28.7436 13.7707 29.3482 10.2731 27.1661 9.29852C26.1242 8.2283 24.0627 7.84864 22.2976 8.32695C22.043 8.3967 21.2285 8.1725 20.9816 8.02801C20.6764 7.85163 20.6064 8.54518 20.7872 9.07431C20.7872 9.07431 18.23 9.47987 18.8433 13.7747C18.8433 13.7747 19.3545 16.5269 19.5032 14.1603C20.0864 13.39 20.2808 12.84 20.6161 12.3876C21.2042 11.3214 21.9195 11.427 21.9195 11.427Z" fill="url(#paint4_linear_1007_452898)"/>
<path d="M22.7777 15.2708C22.7777 15.522 22.6349 15.7262 22.4589 15.7262C22.283 15.7262 22.1392 15.522 22.1392 15.2708C22.1392 15.0197 22.283 14.8145 22.4589 14.8145C22.6349 14.8145 22.7777 15.0187 22.7777 15.2708Z" fill="url(#paint5_radial_1007_452898)"/>
<path opacity="0.3" d="M22.459 15.1355C22.4544 15.1556 22.4444 15.1739 22.4301 15.1884C22.4158 15.203 22.3978 15.213 22.3782 15.2175C22.3586 15.2221 22.3381 15.2208 22.3192 15.2139C22.3002 15.207 22.2835 15.1948 22.2711 15.1787C22.2586 15.1625 22.2508 15.1431 22.2486 15.1226C22.2464 15.1021 22.2498 15.0814 22.2586 15.0628C22.2674 15.0443 22.2811 15.0286 22.2981 15.0177C22.3151 15.0067 22.3349 15.001 22.355 15.001C22.3859 15.0052 22.4141 15.0216 22.4335 15.0467C22.4529 15.0718 22.462 15.1036 22.459 15.1355Z" fill="white"/>
<path d="M25.5158 15.2708C25.5158 15.522 25.3729 15.7262 25.197 15.7262C25.021 15.7262 24.8772 15.522 24.8772 15.2708C24.8772 15.0197 25.021 14.8145 25.197 14.8145C25.3729 14.8145 25.5158 15.0187 25.5158 15.2708Z" fill="url(#paint6_radial_1007_452898)"/>
<path opacity="0.3" d="M25.196 15.1355C25.1914 15.1556 25.1814 15.1739 25.1672 15.1884C25.1529 15.203 25.1349 15.213 25.1153 15.2175C25.0957 15.2221 25.0752 15.2208 25.0562 15.2139C25.0373 15.207 25.0206 15.1948 25.0081 15.1787C24.9956 15.1625 24.9878 15.1431 24.9856 15.1226C24.9834 15.1021 24.9869 15.0814 24.9957 15.0628C25.0044 15.0443 25.0181 15.0286 25.0352 15.0177C25.0522 15.0067 25.0719 15.001 25.092 15.001C25.123 15.0052 25.1511 15.0216 25.1705 15.0467C25.1899 15.0718 25.1991 15.1036 25.196 15.1355Z" fill="white"/>
<path d="M24.2599 15.974C24.3066 16.3607 24.2599 16.6795 23.8206 16.6795C23.4697 16.6795 23.3346 16.3607 23.3832 15.974C23.4318 15.5874 23.5776 15.2705 23.8206 15.2705C24.0636 15.2705 24.2104 15.5784 24.2599 15.974Z" fill="url(#paint7_radial_1007_452898)"/>
<path d="M28.1265 14.2107C28.1265 14.2107 28.176 14.3941 28.176 15.9655C28.176 15.9655 28.3879 15.8539 28.4608 14.1719L28.1265 14.2107Z" fill="url(#paint8_linear_1007_452898)"/>
<path d="M19.512 14.1103C19.512 14.1103 19.4624 14.3943 19.4624 15.9657C19.4624 15.9657 19.1708 15.5961 19.1008 13.917L19.512 14.1103Z" fill="url(#paint9_linear_1007_452898)"/>
<path d="M23.8634 17.6758C23.2073 17.6758 22.9138 17.3529 22.9012 17.3389C22.8925 17.3293 22.8859 17.3179 22.8815 17.3056C22.8772 17.2933 22.8752 17.2802 22.8758 17.2671C22.8764 17.254 22.8795 17.2412 22.8849 17.2293C22.8904 17.2174 22.898 17.2068 22.9075 17.1979C22.9169 17.1891 22.928 17.1823 22.94 17.1778C22.952 17.1734 22.9648 17.1714 22.9776 17.172C22.9903 17.1726 23.0029 17.1758 23.0144 17.1813C23.026 17.1869 23.0364 17.1947 23.045 17.2044C23.0557 17.2164 23.3006 17.4765 23.8634 17.4765C24.0209 17.4765 24.4466 17.4296 24.5992 17.2144C24.6147 17.1949 24.6369 17.1822 24.6613 17.1788C24.6856 17.1754 24.7103 17.1816 24.7304 17.1961C24.7505 17.2106 24.7644 17.2324 24.7695 17.2571C24.7745 17.2817 24.7703 17.3074 24.7576 17.329C24.5224 17.6688 23.9062 17.6758 23.8634 17.6758Z" fill="#C65750"/>
<path d="M29.598 23.2781C28.8158 22.8919 28.0053 22.5694 27.1739 22.3135C24.6634 24.0354 20.1758 22.3135 20.1758 22.3135C19.8065 22.6323 18.2912 23.2761 18.2912 23.2761L18.2582 23.289L18.228 23.301L23.4766 36.2851L30.116 23.5102C29.8283 23.3717 29.631 23.291 29.598 23.2781Z" fill="url(#paint10_linear_1007_452898)"/>
<path d="M23.1967 25.0244H24.4689L25.2475 32.0874L23.9859 35.5253L22.527 32.2608L23.1967 25.0244Z" fill="url(#paint11_linear_1007_452898)"/>
<path d="M40.9816 38.6944C40.9816 34.6926 36.0781 27.4662 36.0781 27.4662C34.1215 24.6152 32.2962 23.9725 32.2962 23.9725C31.8826 23.6915 31.4259 23.4836 30.9452 23.3577L28.1877 22.6602L24.3048 33.7081C24.3048 33.7081 23.5427 35.3114 23.6166 36.4693V47.7554C23.6166 47.7554 23.8596 49 25.337 49H33.1078V37.6322C34.7601 39.4418 34.7339 40.2599 34.7339 40.2599C35.1226 41.0382 35.3005 41.078 35.3005 41.078L37.6925 44.489C41.4559 41.7486 40.9816 38.6944 40.9816 38.6944Z" fill="url(#paint12_linear_1007_452898)"/>
<path d="M28.1401 22.6602L23.2803 36.3796C23.2803 36.3796 29.1752 27.7103 29.3404 26.6441C29.3404 26.6441 29.4814 26.1369 29.0576 25.8469L28.3257 25.2191L29.4571 24.4757C29.4571 24.4757 29.7399 24.3312 29.6699 23.8958L29.2685 22.978L28.1401 22.6602Z" fill="url(#paint13_linear_1007_452898)"/>
<path d="M24.9666 36.4696C25.0404 35.3117 24.2775 33.7084 24.2775 33.7084L19.3069 22.6953L17.0782 23.4008C16.5249 23.5399 15.9947 23.7619 15.5046 24.0595C14.9817 24.3106 13.4946 25.1745 11.922 27.4664C11.922 27.4664 7.01747 34.6929 7.01941 38.6947C7.01941 38.6947 6.54704 41.7489 10.3075 44.4892L12.6995 41.0783C12.6995 41.0783 12.8803 41.0384 13.2662 40.2602C13.2662 40.2602 13.7288 39.1431 14.6114 38.3878V49.0003H23.2452C25.0414 49.0003 24.9666 47.7557 24.9666 47.7557V36.4696Z" fill="url(#paint14_linear_1007_452898)"/>
<path d="M23.4912 23.1631H24.1716L24.989 24.1845C24.989 24.1845 24.6712 24.887 24.5176 25.2049H23.1549C23.1549 25.2049 22.7302 24.5023 22.6952 24.1845L23.4912 23.1631Z" fill="url(#paint15_linear_1007_452898)"/>
<path d="M23.808 23.1047C23.808 23.1047 24.5136 24.2786 24.7547 24.6991C24.7547 24.6991 25.1512 25.4724 25.8083 24.8805C25.8083 24.8805 27.342 23.4954 27.8086 22.7769L26.6782 21.3818C26.6782 21.3818 24.2949 22.8945 23.808 23.1047Z" fill="url(#paint16_linear_1007_452898)"/>
<path d="M23.8081 23.1047C23.8081 23.1047 23.1015 24.2786 22.8614 24.6991C22.8614 24.6991 22.4639 25.4724 21.8078 24.8805C21.8078 24.8805 20.274 23.4954 19.8075 22.7769L20.9379 21.3818C20.9379 21.3818 23.3211 22.8945 23.8081 23.1047Z" fill="url(#paint17_linear_1007_452898)"/>
<path d="M24.3922 37.207C24.3922 37.3038 24.3642 37.3984 24.3118 37.4789C24.2593 37.5593 24.1848 37.622 24.0976 37.6591C24.0104 37.6961 23.9144 37.7058 23.8219 37.6869C23.7293 37.668 23.6443 37.6214 23.5775 37.553C23.5108 37.4846 23.4653 37.3974 23.4469 37.3025C23.4285 37.2076 23.4379 37.1092 23.4741 37.0198C23.5102 36.9304 23.5714 36.854 23.6498 36.8002C23.7283 36.7465 23.8206 36.7178 23.915 36.7178C24.0415 36.7178 24.1629 36.7693 24.2524 36.8611C24.3419 36.9528 24.3922 37.0773 24.3922 37.207Z" fill="url(#paint18_radial_1007_452898)"/>
<path d="M24.3922 41.3623C24.3922 41.4591 24.3642 41.5537 24.3118 41.6341C24.2593 41.7146 24.1848 41.7773 24.0976 41.8143C24.0104 41.8514 23.9144 41.8611 23.8219 41.8422C23.7293 41.8233 23.6443 41.7767 23.5775 41.7083C23.5108 41.6399 23.4653 41.5527 23.4469 41.4578C23.4285 41.3629 23.4379 41.2645 23.4741 41.1751C23.5102 41.0857 23.5714 41.0093 23.6498 40.9555C23.7283 40.9017 23.8206 40.873 23.915 40.873C24.0415 40.873 24.1629 40.9246 24.2524 41.0163C24.3419 41.1081 24.3922 41.2326 24.3922 41.3623Z" fill="url(#paint19_radial_1007_452898)"/>
<path d="M24.3922 45.5195C24.3922 45.6163 24.3642 45.7109 24.3118 45.7914C24.2593 45.8718 24.1848 45.9345 24.0976 45.9716C24.0104 46.0086 23.9144 46.0183 23.8219 45.9994C23.7293 45.9805 23.6443 45.9339 23.5775 45.8655C23.5108 45.7971 23.4653 45.7099 23.4469 45.615C23.4285 45.5201 23.4379 45.4217 23.4741 45.3323C23.5102 45.2429 23.5714 45.1665 23.6498 45.1127C23.7283 45.059 23.8206 45.0303 23.915 45.0303C24.0415 45.0303 24.1629 45.0818 24.2524 45.1736C24.3419 45.2653 24.3922 45.3898 24.3922 45.5195Z" fill="url(#paint20_radial_1007_452898)"/>
<path d="M19.4313 22.6602L24.7654 35.0314C24.7654 35.0314 18.3942 27.7103 18.226 26.6481C18.226 26.6481 18.0851 26.1408 18.5089 25.8509L19.2398 25.2161L18.1084 24.4727C18.1084 24.4727 17.8256 24.3283 17.8966 23.8928L18.297 22.975L19.4313 22.6602Z" fill="url(#paint21_linear_1007_452898)"/>
<path d="M9.12085 39.7535C9.12085 39.7535 8.24609 40.8327 8.55711 42.2586C8.55711 42.2586 8.76608 44.424 11.1027 44.7498L9.91299 39.5303C9.91299 39.5303 9.47853 39.1078 9.12085 39.7535Z" fill="url(#paint22_linear_1007_452898)"/>
<path opacity="0.5" d="M14.451 46.5811H34.0729C35.5104 46.5811 36.6758 45.3863 36.6758 43.9125V29.6719C36.6758 28.198 35.5104 27.0033 34.0729 27.0033L14.451 27.0033C13.0135 27.0033 11.8481 28.198 11.8481 29.6719L11.8481 43.9125C11.8481 45.3863 13.0135 46.5811 14.451 46.5811Z" fill="#ABC9FF"/>
<g opacity="0.7">
<path d="M11.7771 44.1249V29.4567C11.7781 28.787 12.038 28.145 12.4998 27.6714C12.9617 27.1977 13.5878 26.931 14.241 26.9297H34.2818C34.9353 26.9305 35.5618 27.197 36.0239 27.6707C36.4859 28.1445 36.7459 28.7868 36.7467 29.4567V44.1249C36.7459 44.7949 36.486 45.4374 36.0239 45.9113C35.5619 46.3852 34.9354 46.6519 34.2818 46.6529H14.241C13.5876 46.6516 12.9613 46.3848 12.4995 45.9109C12.0376 45.437 11.7779 44.7948 11.7771 44.1249ZM14.241 27.0752C13.625 27.0757 13.0343 27.3268 12.5986 27.7732C12.163 28.2197 11.9178 28.8252 11.9171 29.4567V44.1249C11.9178 44.7565 12.1629 45.3621 12.5986 45.8087C13.0342 46.2554 13.6249 46.5067 14.241 46.5075H34.2818C34.8978 46.5067 35.4884 46.2554 35.9239 45.8087C36.3594 45.362 36.6042 44.7564 36.6048 44.1249V29.4567C36.604 28.8254 36.359 28.2201 35.9235 27.7736C35.488 27.3271 34.8976 27.076 34.2818 27.0752H14.241Z" fill="url(#paint23_linear_1007_452898)"/>
</g>
<path d="M15.8303 29.8037H22.1849C22.3455 29.8037 22.5045 29.8361 22.6528 29.8991C22.8012 29.9621 22.936 30.0545 23.0495 30.1709C23.163 30.2873 23.2531 30.4255 23.3146 30.5776C23.376 30.7296 23.4076 30.8927 23.4076 31.0573V34.9386C23.4076 35.2713 23.2787 35.5904 23.0492 35.8257C22.8197 36.0609 22.5085 36.1931 22.1839 36.1931H15.8303C15.5057 36.1931 15.1945 36.0609 14.965 35.8257C14.7355 35.5904 14.6066 35.2713 14.6066 34.9386V31.0573C14.6066 30.8926 14.6382 30.7295 14.6997 30.5773C14.7612 30.4252 14.8514 30.2869 14.965 30.1705C15.0787 30.0541 15.2136 29.9618 15.362 29.8988C15.5105 29.8359 15.6696 29.8036 15.8303 29.8037Z" fill="#1384FD"/>
<path d="M21.9429 31.4385H16.0509V31.844H21.9429V31.4385Z" fill="#ABC9FF"/>
<path d="M21.9429 32.7949H16.0509V33.2005H21.9429V32.7949Z" fill="#ABC9FF"/>
<path d="M18.8229 34.1523H16.0509V34.5579H18.8229V34.1523Z" fill="#ABC9FF"/>
<path d="M31.8675 41.7286V43.5541C31.869 43.6713 31.8252 43.7843 31.7456 43.8684C31.6659 43.9524 31.557 44.0007 31.4427 44.0025H16.4765C16.3623 44.0007 16.2533 43.9524 16.1737 43.8684C16.0941 43.7843 16.0502 43.6713 16.0518 43.5541V37.5294C16.0518 37.4138 16.3755 37.1388 16.6602 37.5294C16.8167 37.7446 17.1929 40.0664 17.6215 40.5009C17.6215 40.5009 18.0161 40.9692 18.471 40.9772C18.7217 40.9774 18.9675 40.9056 19.1805 40.7699C19.1961 40.761 19.4575 40.5368 19.4721 40.5228C19.65 40.3165 20.7668 39.1198 21.2333 38.6455C21.2333 38.6455 21.5414 38.3027 21.9273 38.2927C22.0745 38.2885 22.2208 38.3182 22.3553 38.3796C22.4899 38.441 22.6093 38.5325 22.7048 38.6475C22.7048 38.6475 23.5796 39.8552 24.0374 39.9947C24.1668 40.0356 24.3042 40.0426 24.437 40.0151C24.5697 39.9876 24.6936 39.9264 24.7975 39.8372C24.8114 39.8264 24.826 39.8164 24.8412 39.8074C24.987 39.7236 25.6761 39.3848 26.4391 40.0256C26.4391 40.0256 27.1933 40.6235 27.725 40.8995L27.7629 40.9174C27.9165 40.9772 28.8991 41.3419 29.5727 40.9862C29.5727 40.9862 30.9402 40.2438 31.7887 41.4685C31.8406 41.5447 31.8682 41.6356 31.8675 41.7286Z" fill="#CFF1FF"/>
<path d="M31.8665 31.627H27.826V31.9229H31.8665V31.627Z" fill="#CFF1FF"/>
<path d="M31.8665 32.8975H27.826V33.1944H31.8665V32.8975Z" fill="#CFF1FF"/>
<path d="M38.8792 39.7535C38.8792 39.7535 39.7539 40.8327 39.4429 42.2586C39.4429 42.2586 39.2339 44.424 36.8973 44.7498L38.087 39.5303C38.087 39.5303 38.5186 39.1078 38.8792 39.7535Z" fill="url(#paint24_linear_1007_452898)"/>
<path d="M38.1279 38.9963C38.1279 38.9963 39.2165 39.4687 38.3806 40.5219C38.3806 40.5219 39.1504 41.4646 38.2183 42.4272C38.2183 42.4272 38.8364 43.1915 37.6818 43.8402C37.6818 43.8402 38.0453 44.3175 37.1443 44.7211C36.8323 44.8616 35.8273 44.5716 34.8291 44.3723C33.548 43.8571 34.0515 43.1307 34.4247 43.1377C34.4247 43.1377 33.4849 43.038 33.5237 42.3096C33.5315 42.0306 33.9388 41.8303 34.8135 41.7456C34.8135 41.7456 33.2584 41.7625 33.2166 41.0909C33.2166 41.0909 32.996 40.3177 34.7601 40.3535C34.7601 40.3535 33.4508 40.497 33.4732 39.645C33.4732 39.645 33.3391 38.9854 36.0333 38.814C36.0333 38.814 37.464 38.6426 38.1279 38.9963Z" fill="url(#paint25_linear_1007_452898)"/>
<path d="M37.3561 40.5123C35.8234 40.4635 34.8903 40.3539 34.3557 40.3549C34.3557 40.3549 36.4036 40.2134 37.4388 40.3549C37.4388 40.3509 37.6555 40.4545 37.3561 40.5123Z" fill="url(#paint26_linear_1007_452898)"/>
<path d="M37.3541 42.1226C37.3541 42.1226 35.2158 41.8705 34.7561 41.7519C34.7561 41.7519 34.8776 41.6403 37.326 41.9801C37.326 41.9801 37.4824 42.016 37.3541 42.1226Z" fill="url(#paint27_linear_1007_452898)"/>
<path d="M36.7758 43.5801C36.7758 43.5801 34.9243 43.2752 34.4247 43.1377C34.4247 43.1377 35.9798 43.3081 36.805 43.4177C36.805 43.4177 36.9732 43.5233 36.7758 43.5801Z" fill="url(#paint28_linear_1007_452898)"/>
<path d="M10.049 38.9963C10.049 38.9963 8.96038 39.4687 9.79626 40.5219C9.79626 40.5219 9.02647 41.4646 9.95858 42.4272C9.95858 42.4272 9.34041 43.1915 10.4951 43.8402C10.4951 43.8402 10.1316 44.3175 11.0326 44.7211C11.3446 44.8616 12.3496 44.5716 13.3478 44.3723C14.6288 43.8571 14.1254 43.1307 13.7521 43.1377C13.7521 43.1377 14.692 43.038 14.6531 42.3096C14.6453 42.0306 14.2381 41.8303 13.3633 41.7456C13.3633 41.7456 14.9185 41.7625 14.9603 41.0909C14.9603 41.0909 15.1809 40.3177 13.4168 40.3535C13.4168 40.3535 14.7251 40.497 14.7037 39.645C14.7037 39.645 14.8378 38.9854 12.1435 38.814C12.1435 38.814 10.7128 38.6426 10.049 38.9963Z" fill="url(#paint29_linear_1007_452898)"/>
<path d="M10.8197 40.5123C12.3535 40.4635 13.2866 40.3539 13.8211 40.3549C13.8211 40.3549 11.7732 40.2134 10.7381 40.3549C10.742 40.3509 10.5214 40.4545 10.8197 40.5123Z" fill="url(#paint30_linear_1007_452898)"/>
<path d="M10.8227 42.1226C10.8227 42.1226 12.9611 41.8705 13.4208 41.7519C13.4208 41.7519 13.2983 41.6403 10.8509 41.9801C10.8509 41.9801 10.6944 42.016 10.8227 42.1226Z" fill="url(#paint31_linear_1007_452898)"/>
<path d="M11.401 43.5801C11.401 43.5801 13.2526 43.2752 13.7522 43.1377C13.7522 43.1377 12.197 43.3081 11.3718 43.4177C11.3718 43.4177 11.2037 43.5233 11.401 43.5801Z" fill="url(#paint32_linear_1007_452898)"/>
</g>
<defs>
<radialGradient id="paint0_radial_1007_452898" cx="0" cy="0" r="1" gradientUnits="userSpaceOnUse" gradientTransform="translate(23.7825 23.8616) rotate(-90) scale(5.08701 4.66413)">
<stop stop-color="#F6DCDB"/>
<stop offset="0.39" stop-color="#EDBDC7"/>
<stop offset="0.7" stop-color="#E4AEAD"/>
<stop offset="0.87" stop-color="#D598A9"/>
<stop offset="0.97" stop-color="#BA7F8C"/>
</radialGradient>
<radialGradient id="paint1_radial_1007_452898" cx="0" cy="0" r="1" gradientUnits="userSpaceOnUse" gradientTransform="translate(26.7808 17.0142) rotate(-35.6655) scale(1.34757 1.22309)">
<stop stop-color="#BA7F8C"/>
<stop offset="0.28" stop-color="#D598A9"/>
<stop offset="0.5" stop-color="#E4AEAD"/>
<stop offset="0.63" stop-color="#EDBDC7"/>
<stop offset="0.82" stop-color="#F6DCDB"/>
<stop offset="1" stop-color="#D598A9"/>
</radialGradient>
<radialGradient id="paint2_radial_1007_452898" cx="0" cy="0" r="1" gradientUnits="userSpaceOnUse" gradientTransform="translate(20.0556 16.5617) rotate(-144.335) scale(1.34757 1.22309)">
<stop stop-color="#BA7F8C"/>
<stop offset="0.28" stop-color="#D598A9"/>
<stop offset="0.5" stop-color="#E4AEAD"/>
<stop offset="0.63" stop-color="#EDBDC7"/>
<stop offset="0.82" stop-color="#F6DCDB"/>
<stop offset="1" stop-color="#D598A9"/>
</radialGradient>
<radialGradient id="paint3_radial_1007_452898" cx="0" cy="0" r="1" gradientUnits="userSpaceOnUse" gradientTransform="translate(23.7004 14.5782) scale(4.48583 5.83172)">
<stop offset="0.2" stop-color="#F6DCDB"/>
<stop offset="0.39" stop-color="#EDBDC7"/>
<stop offset="0.7" stop-color="#E4AEAD"/>
<stop offset="0.87" stop-color="#D598A9"/>
<stop offset="0.97" stop-color="#BA7F8C"/>
</radialGradient>
<linearGradient id="paint4_linear_1007_452898" x1="28.8214" y1="11.5605" x2="18.7539" y2="11.5605" gradientUnits="userSpaceOnUse">
<stop stop-color="#723522"/>
<stop offset="0.18" stop-color="#853628"/>
<stop offset="0.45" stop-color="#9A4B41"/>
<stop offset="0.65" stop-color="#9A4B41"/>
<stop offset="0.9" stop-color="#954438"/>
<stop offset="1" stop-color="#73382A"/>
</linearGradient>
<radialGradient id="paint5_radial_1007_452898" cx="0" cy="0" r="1" gradientUnits="userSpaceOnUse" gradientTransform="translate(22.2314 15.1893) scale(0.398578 0.510795)">
<stop stop-color="#584D4E"/>
<stop offset="0.51" stop-color="#362122"/>
<stop offset="1" stop-color="#07070B"/>
</radialGradient>
<radialGradient id="paint6_radial_1007_452898" cx="0" cy="0" r="1" gradientUnits="userSpaceOnUse" gradientTransform="translate(24.9839 15.1893) scale(0.397725 0.509699)">
<stop stop-color="#584D4E"/>
<stop offset="0.51" stop-color="#362122"/>
<stop offset="1" stop-color="#07070B"/>
</radialGradient>
<radialGradient id="paint7_radial_1007_452898" cx="0" cy="0" r="1" gradientUnits="userSpaceOnUse" gradientTransform="translate(23.723 16.0262) scale(0.661843 1.05628)">
<stop offset="0.17" stop-color="#F6D9D6"/>
<stop offset="0.48" stop-color="#EDB4B3"/>
<stop offset="0.68" stop-color="#E4A6A5"/>
<stop offset="0.87" stop-color="#D09392"/>
<stop offset="1" stop-color="#C17E70"/>
</radialGradient>
<linearGradient id="paint8_linear_1007_452898" x1="28.2188" y1="15.4125" x2="28.3189" y2="13.8912" gradientUnits="userSpaceOnUse">
<stop stop-color="#9A4B41"/>
<stop offset="0.42" stop-color="#954438"/>
<stop offset="1" stop-color="#662E2A"/>
</linearGradient>
<linearGradient id="paint9_linear_1007_452898" x1="19.3069" y1="16.0485" x2="19.3069" y2="13.349" gradientUnits="userSpaceOnUse">
<stop stop-color="#9A4B41"/>
<stop offset="0.42" stop-color="#954438"/>
<stop offset="1" stop-color="#73382A"/>
</linearGradient>
<linearGradient id="paint10_linear_1007_452898" x1="21.2576" y1="22.456" x2="35.677" y2="40.869" gradientUnits="userSpaceOnUse">
<stop stop-color="#F9F3F8"/>
<stop offset="0.51" stop-color="#E4E2E8"/>
<stop offset="1" stop-color="#D3CFD5"/>
</linearGradient>
<linearGradient id="paint11_linear_1007_452898" x1="22.527" y1="30.2748" x2="25.2475" y2="30.2748" gradientUnits="userSpaceOnUse">
<stop stop-color="#AA7EEF"/>
<stop offset="0.51" stop-color="#8F6ACF"/>
<stop offset="1" stop-color="#6B48AB"/>
</linearGradient>
<linearGradient id="paint12_linear_1007_452898" x1="23.6108" y1="35.8306" x2="39.7491" y2="35.8306" gradientUnits="userSpaceOnUse">
<stop stop-color="#21253A"/>
<stop offset="0.19" stop-color="#3F4762"/>
<stop offset="0.53" stop-color="#39425D"/>
<stop offset="0.81" stop-color="#2C3249"/>
<stop offset="1" stop-color="#21253A"/>
</linearGradient>
<linearGradient id="paint13_linear_1007_452898" x1="25.4264" y1="29.2748" x2="29.5158" y2="31.131" gradientUnits="userSpaceOnUse">
<stop stop-color="#60687E"/>
<stop offset="0.33" stop-color="#39425D"/>
<stop offset="0.56" stop-color="#2C3249"/>
<stop offset="0.7" stop-color="#21253A"/>
<stop offset="1" stop-color="#21253A"/>
</linearGradient>
<linearGradient id="paint14_linear_1007_452898" x1="25.265" y1="35.8478" x2="8.80003" y2="35.8478" gradientUnits="userSpaceOnUse">
<stop offset="0.02" stop-color="#535270"/>
<stop offset="0.26" stop-color="#3F4762"/>
<stop offset="0.51" stop-color="#39425D"/>
<stop offset="0.81" stop-color="#2C3249"/>
<stop offset="1" stop-color="#21253A"/>
</linearGradient>
<linearGradient id="paint15_linear_1007_452898" x1="22.6952" y1="24.1845" x2="24.9929" y2="24.1845" gradientUnits="userSpaceOnUse">
<stop stop-color="#AA7EEF"/>
<stop offset="0.51" stop-color="#8F6ACF"/>
<stop offset="1" stop-color="#6B48AB"/>
</linearGradient>
<linearGradient id="paint16_linear_1007_452898" x1="25.332" y1="22.2777" x2="26.6054" y2="24.1407" gradientUnits="userSpaceOnUse">
<stop stop-color="white"/>
<stop offset="1" stop-color="#EAE3EB"/>
</linearGradient>
<linearGradient id="paint17_linear_1007_452898" x1="22.284" y1="22.2787" x2="21.0107" y2="24.1407" gradientUnits="userSpaceOnUse">
<stop stop-color="white"/>
<stop offset="1" stop-color="#EAE3EB"/>
</linearGradient>
<radialGradient id="paint18_radial_1007_452898" cx="0" cy="0" r="1" gradientUnits="userSpaceOnUse" gradientTransform="translate(23.809 37.1114) scale(0.338241 0.346773)">
<stop offset="0.2" stop-color="white"/>
<stop offset="1" stop-color="#D0C8E0"/>
</radialGradient>
<radialGradient id="paint19_radial_1007_452898" cx="0" cy="0" r="1" gradientUnits="userSpaceOnUse" gradientTransform="translate(23.809 41.2686) scale(0.338241 0.346773)">
<stop offset="0.2" stop-color="white"/>
<stop offset="1" stop-color="#D0C8E0"/>
</radialGradient>
<radialGradient id="paint20_radial_1007_452898" cx="0" cy="0" r="1" gradientUnits="userSpaceOnUse" gradientTransform="translate(23.809 45.4249) scale(0.338241 0.346773)">
<stop offset="0.2" stop-color="white"/>
<stop offset="1" stop-color="#D0C8E0"/>
</radialGradient>
<linearGradient id="paint21_linear_1007_452898" x1="22.421" y1="28.5792" x2="18.3473" y2="30.4278" gradientUnits="userSpaceOnUse">
<stop stop-color="#6A7A8B"/>
<stop offset="0.46" stop-color="#39425D"/>
<stop offset="0.79" stop-color="#2C3249"/>
<stop offset="1" stop-color="#21253A"/>
</linearGradient>
<linearGradient id="paint22_linear_1007_452898" x1="8.6172" y1="40.8326" x2="11.7673" y2="43.4881" gradientUnits="userSpaceOnUse">
<stop stop-color="white"/>
<stop offset="1" stop-color="#D9CDDD"/>
</linearGradient>
<linearGradient id="paint23_linear_1007_452898" x1="36.7467" y1="36.7908" x2="11.7771" y2="36.7908" gradientUnits="userSpaceOnUse">
<stop stop-color="#AAA5D9"/>
<stop offset="1" stop-color="white"/>
</linearGradient>
<linearGradient id="paint24_linear_1007_452898" x1="39.52" y1="40.2703" x2="36.368" y2="42.9052" gradientUnits="userSpaceOnUse">
<stop stop-color="white"/>
<stop offset="1" stop-color="#D9CDDD"/>
</linearGradient>
<linearGradient id="paint25_linear_1007_452898" x1="38.2415" y1="39.1343" x2="32.4649" y2="39.4229" gradientUnits="userSpaceOnUse">
<stop offset="0.16" stop-color="#E5CFC7"/>
<stop offset="0.56" stop-color="#F7B5B1"/>
<stop offset="0.93" stop-color="#FF8F88"/>
</linearGradient>
<linearGradient id="paint26_linear_1007_452898" x1="32.8914" y1="40.5805" x2="36.8875" y2="40.7059" gradientUnits="userSpaceOnUse">
<stop stop-color="#F7B5B1"/>
<stop offset="1" stop-color="#E57676"/>
</linearGradient>
<linearGradient id="paint27_linear_1007_452898" x1="33.8651" y1="41.8934" x2="36.9042" y2="42.2971" gradientUnits="userSpaceOnUse">
<stop stop-color="#F7B5B1"/>
<stop offset="1" stop-color="#E57676"/>
</linearGradient>
<linearGradient id="paint28_linear_1007_452898" x1="34.3184" y1="43.3587" x2="36.8397" y2="43.812" gradientUnits="userSpaceOnUse">
<stop stop-color="#F7B5B1"/>
<stop offset="1" stop-color="#E57676"/>
</linearGradient>
<linearGradient id="paint29_linear_1007_452898" x1="9.29702" y1="41.6348" x2="15.0445" y2="41.9318" gradientUnits="userSpaceOnUse">
<stop offset="0.16" stop-color="#E5CFC7"/>
<stop offset="0.56" stop-color="#F7B5B1"/>
<stop offset="0.93" stop-color="#FF8F88"/>
</linearGradient>
<linearGradient id="paint30_linear_1007_452898" x1="19.3853" y1="41.2841" x2="15.3893" y2="41.4096" gradientUnits="userSpaceOnUse">
<stop stop-color="#F7B5B1"/>
<stop offset="1" stop-color="#E57676"/>
</linearGradient>
<linearGradient id="paint31_linear_1007_452898" x1="18.4128" y1="42.5964" x2="15.3734" y2="43.001" gradientUnits="userSpaceOnUse">
<stop stop-color="#F7B5B1"/>
<stop offset="1" stop-color="#E57676"/>
</linearGradient>
<linearGradient id="paint32_linear_1007_452898" x1="17.9586" y1="44.0614" x2="15.4382" y2="44.515" gradientUnits="userSpaceOnUse">
<stop stop-color="#F7B5B1"/>
<stop offset="1" stop-color="#E57676"/>
</linearGradient>
</defs>
</svg>
