<svg width="48" height="48" viewBox="0 0 48 48" fill="none" xmlns="http://www.w3.org/2000/svg">
<mask id="mask0_1056_491642" style="mask-type:luminance" maskUnits="userSpaceOnUse" x="40" y="26" width="5" height="5">
<path d="M44.5935 28.3103C44.5935 29.5866 43.5656 30.6207 42.2968 30.6207C41.028 30.6207 40 29.5866 40 28.3103C40 27.034 41.028 26 42.2968 26C43.5656 26 44.5935 27.034 44.5935 28.3103Z" fill="white"/>
</mask>
<g mask="url(#mask0_1056_491642)">
<path d="M44.5935 26H40V30.6207H44.5935V26Z" fill="#6A7AFD"/>
<path d="M44.119 29.371C42.9132 31.0222 40.691 31.4434 39.1555 30.3084H39.8566V25.855H44.4315V25.3604C44.6537 25.7569 44.7928 26.1968 44.8473 26.654C44.9548 27.5668 44.7211 28.5446 44.119 29.371Z" fill="#6A7AFD"/>
<path d="M44.0372 29.3118C42.8673 30.9155 40.7096 31.3236 39.2172 30.2232H39.8552V25.8564H44.3412V25.418C44.5562 25.803 44.6924 26.2313 44.7455 26.6741C44.8501 27.561 44.6236 28.5099 44.0387 29.3118H44.0372Z" fill="#6B7AFC"/>
<path d="M43.957 29.2521C42.8215 30.8082 40.7283 31.2048 39.2803 30.1347H39.8552V25.8544H44.2509V25.4736C44.4602 25.8472 44.5921 26.2625 44.6423 26.6923C44.7441 27.5518 44.5233 28.4733 43.9555 29.2521H43.957Z" fill="#6C79FB"/>
<path d="M43.8767 29.1929C42.7756 30.7014 40.747 31.085 39.3434 30.0481H39.8552V25.8557H44.162V25.5312C44.3642 25.8932 44.4918 26.2956 44.542 26.7124C44.6409 27.5459 44.4273 28.4386 43.8767 29.1929Z" fill="#6D79FA"/>
<path d="M43.7964 29.1332C42.7311 30.5941 40.7655 30.9647 39.4078 29.9624H39.8566V25.8552H44.0731V25.5869C44.2695 25.9374 44.3928 26.3267 44.4415 26.7305C44.5376 27.5381 44.3297 28.402 43.7978 29.1332H43.7964Z" fill="#6F78F8"/>
<path d="M43.7161 29.0735C42.6853 30.4868 40.7842 30.8459 39.4709 29.8753H39.8566V25.8546H43.9842V25.6426C44.1749 25.9829 44.2939 26.3593 44.3398 26.7487C44.4315 27.5289 44.2322 28.3654 43.7161 29.072V29.0735Z" fill="#7078F7"/>
<path d="M43.6358 29.0145C42.6394 30.3788 40.8043 30.7263 39.5341 29.7889H39.8566V25.8562H43.1412V24.8467C44.41 25.7841 44.6323 27.6502 43.6358 29.0145Z" fill="#7177F6"/>
<path d="M43.5555 28.9553C42.5949 30.2719 40.8214 30.6065 39.597 29.7023H39.8565V25.8546H43.0781V24.9316C44.3024 25.8359 44.5175 27.6371 43.5555 28.9538V28.9553Z" fill="#7277F5"/>
<path d="M43.4752 28.8966C42.549 30.1656 40.8415 30.4887 39.6602 29.6176H39.8566V25.8579H43.015V25.0215C44.1949 25.8925 44.4014 27.6289 43.4752 28.898V28.8966Z" fill="#7277F5"/>
<path d="M43.4595 28.8848C42.5405 30.1438 40.8444 30.4654 39.6731 29.6001H39.8566V25.8563H43.0021V25.0371C44.1749 25.9024 44.3785 27.6258 43.4595 28.8848Z" fill="#7378F5"/>
<path d="M43.4437 28.8735C42.5305 30.1253 40.8488 30.4426 39.686 29.5845H39.8581V25.858H42.9921V25.0547C44.1549 25.9142 44.3584 27.6246 43.4452 28.875L43.4437 28.8735Z" fill="#7479F5"/>
<path d="M43.428 28.8617C42.5219 30.1034 40.8516 30.4193 39.6975 29.5669H39.8567V25.8563H42.9778V25.0703C44.1319 25.9226 44.3341 27.62 43.428 28.8617Z" fill="#7579F6"/>
<path d="M43.4122 28.85C42.5133 30.083 40.8559 30.3959 39.709 29.5494H39.8567V25.856H42.9663V25.0859C44.1118 25.9325 44.3126 27.6169 43.4122 28.8485V28.85Z" fill="#767AF6"/>
<path d="M43.3963 28.8387C42.5046 30.0616 40.8587 30.3717 39.7218 29.5324H39.8566V25.8563H42.9533V25.1035C44.0903 25.9428 44.2895 27.6157 43.3963 28.8387Z" fill="#777BF6"/>
<path d="M43.3806 28.8274C42.4946 30.0417 40.8616 30.3503 39.7333 29.5168H39.8566V25.8566H42.9419V25.1211C44.0702 25.9547 44.268 27.6146 43.382 28.8274H43.3806Z" fill="#787CF6"/>
<path d="M43.3648 28.8152C42.486 30.0194 40.8659 30.3251 39.7448 29.4988H39.8551V25.8559H42.9275V25.1377C44.0473 25.964 44.2437 27.611 43.3648 28.8152Z" fill="#797CF6"/>
<path d="M43.3491 28.8044C42.4774 29.9999 40.8688 30.3028 39.7577 29.4822H39.8552V25.8566H42.9147V25.1543C44.0258 25.9749 44.2208 27.6088 43.3477 28.8029L43.3491 28.8044Z" fill="#7A7DF6"/>
<path d="M43.3333 28.7921C42.4674 29.9776 40.8731 30.279 39.7692 29.4656H39.8552V25.8559H42.9032V25.1709C44.0072 25.9843 44.1993 27.6067 43.3333 28.7921Z" fill="#7B7EF7"/>
<path d="M43.3189 28.7813C42.4602 29.9581 40.8774 30.2567 39.7834 29.4491H39.8566V25.8567H42.8931V25.1875C43.987 25.9951 44.1777 27.6045 43.3189 28.7813Z" fill="#7C7FF7"/>
<path d="M43.3032 28.7694C42.4516 29.9361 40.8817 30.2331 39.7964 29.4313H39.858V25.8663H39.3734C39.5856 25.575 39.8451 25.337 40.129 25.1582V25.8562H42.8817V25.2044C43.967 26.0062 44.1562 27.6012 43.3046 28.7694H43.3032Z" fill="#7D7FF7"/>
<path d="M43.2874 28.7581C42.4415 29.9161 40.8831 30.2103 39.8064 29.4157H39.8552V25.8796H39.3864C39.5971 25.5897 39.8537 25.3546 40.1347 25.1758V25.8565H42.8659V25.2205C43.9426 26.0166 44.1304 27.6 43.286 28.7567L43.2874 28.7581Z" fill="#7E80F7"/>
<path d="M43.2717 28.7463C42.433 29.8957 40.8874 30.187 39.8193 29.3982H39.8566V25.8894H39.4036C39.6129 25.6024 39.8666 25.3688 40.1462 25.1914V25.8548H42.8559V25.2361C43.924 26.025 44.1104 27.5955 43.2731 28.7449L43.2717 28.7463Z" fill="#7F81F7"/>
<path d="M43.2558 28.7344C42.4243 29.8737 40.8902 30.1636 39.8308 29.3805H39.8551V25.9006H39.4178C39.8336 25.3309 40.4243 24.9733 41.0437 24.8564V25.8559H42.8415V25.2545C43.901 26.0376 44.0859 27.5951 43.2544 28.7344H43.2558Z" fill="#8082F8"/>
<path d="M43.2402 28.7227C42.4158 29.8534 40.8946 30.1404 39.8437 29.3645H39.8567V25.9134H39.4337C39.8466 25.3481 40.433 24.9933 41.0466 24.8779V25.8572H42.8301V25.2731C43.881 26.049 44.0645 27.5949 43.2402 28.7242V28.7227Z" fill="#8183F8"/>
<path d="M43.2243 28.712C42.4057 29.8325 40.8975 30.1181 39.8552 29.3479C39.3333 28.9629 39.0279 28.3875 38.9534 27.7688H39.8552V25.9243H39.448C39.858 25.3633 40.4387 25.0128 41.048 24.8975V25.8565H42.8172V25.2883C43.8595 26.0584 44.0415 27.59 43.2243 28.712Z" fill="#8283F8"/>
<path d="M43.2085 28.7003C42.3971 29.8122 40.9017 30.0948 39.868 29.3319C39.3505 28.9512 39.048 28.3801 38.9749 27.7658H39.8551V25.9371H39.4637C39.8695 25.3804 40.4458 25.0329 41.0508 24.9189V25.8578H42.8042V25.3069C43.8379 26.0698 44.0186 27.5898 43.2071 28.7017L43.2085 28.7003Z" fill="#8384F8"/>
<path d="M43.1928 28.6885C42.3885 29.7903 40.9046 30.0716 39.8796 29.3144C39.3663 28.9366 39.0652 28.3698 38.9935 27.7598H39.8552V25.947H39.4796C39.881 25.3961 40.453 25.05 41.0537 24.9375V25.8562H42.7928V25.3211C43.8179 26.0782 43.9971 27.5853 43.1928 28.6885Z" fill="#8485F8"/>
<path d="M43.177 28.6768C42.3799 29.77 40.9089 30.0469 39.8924 29.2969C39.3849 28.9205 39.0867 28.3595 39.015 27.7567H39.8566V25.9584H39.4967C39.8953 25.4118 40.463 25.07 41.0566 24.9561V25.8545H42.7813V25.3368C43.7978 26.0881 43.9756 27.5822 43.177 28.6754V28.6768Z" fill="#8586F8"/>
<path d="M43.1626 28.6651C42.3712 29.7496 40.9132 30.0251 39.9053 29.2809C39.4006 28.9088 39.1053 28.3522 39.035 27.7537H39.8565V25.9712H39.5125C39.9082 25.4289 40.4702 25.09 41.0594 24.9775V25.8558H42.7698V25.3554C43.7777 26.0995 43.954 27.5821 43.1626 28.6651Z" fill="#8686F9"/>
<path d="M43.1469 28.6539C42.3627 29.7283 40.9175 30.0023 39.9168 29.2639C39.4179 28.8947 39.124 28.3438 39.0537 27.7497H39.8566V25.983H39.5283C39.9197 25.4451 40.4774 25.1091 41.0623 24.998V25.8561H42.7569V25.3716C43.7562 26.1085 43.9311 27.5781 43.1469 28.6525V28.6539Z" fill="#8787F9"/>
<path d="M43.1312 28.6427C42.3541 29.7084 40.9204 29.9796 39.9298 29.2484C39.4351 28.8821 39.1441 28.3355 39.0739 27.7471H39.8567V25.9949H39.5441C39.9326 25.4613 40.486 25.1282 41.0653 25.0186V25.8579H42.7455V25.3906C43.7362 26.1218 43.9097 27.5798 43.1326 28.6441L43.1312 28.6427Z" fill="#8888F9"/>
<path d="M43.1153 28.631C42.3455 29.6866 40.9232 29.9549 39.9412 29.2309C39.4494 28.8675 39.1612 28.3267 39.0924 27.7426H39.8551V26.0048H39.5584C39.944 25.477 40.4917 25.1453 41.0666 25.0371V25.8563H42.7326V25.4063C43.7146 26.1317 43.8867 27.5753 43.1153 28.6324V28.631Z" fill="#8989F9"/>
<path d="M43.0996 28.6197C42.3355 29.6667 40.9276 29.9335 39.9541 29.2139C39.4681 28.8548 39.1814 28.3169 39.1125 27.7386H39.8552V26.0166H39.5742C39.9556 25.4931 40.4989 25.1643 41.0681 25.0576V25.8566H42.7197V25.4225C43.6932 26.1407 43.8638 27.5727 43.0996 28.6197Z" fill="#8A89F9"/>
<path d="M43.0838 28.6075C42.3268 29.6445 40.9304 29.9084 39.9655 29.1959C39.4824 28.8397 39.1999 28.3076 39.1311 27.7336H39.8551V26.0275H39.5885C39.9669 25.5084 40.5046 25.1839 41.0695 25.0771V25.8559H42.7067V25.4391C43.6716 26.1516 43.8394 27.5706 43.0824 28.6075H43.0838Z" fill="#8B8AF9"/>
<path d="M43.068 28.5963C42.3182 29.6246 40.9347 29.8871 39.9784 29.1804C39.0221 28.4752 38.8544 27.0691 39.6057 26.0408C39.9813 25.526 40.5146 25.2044 41.0738 25.0977V25.8562H42.6967V25.4568C43.653 26.162 43.8193 27.5681 43.0695 28.5963H43.068Z" fill="#8C8BFA"/>
<path d="M43.0523 28.5851C42.3096 29.6047 40.9376 29.8628 39.9899 29.1634C39.0422 28.464 38.8759 27.0708 39.62 26.0512C39.9913 25.5422 40.5204 25.222 41.0738 25.1182V25.8565H42.6809V25.4729C43.6286 26.1724 43.7935 27.5655 43.0494 28.5851H43.0523Z" fill="#8D8CFA"/>
<path d="M43.0379 28.5729C42.301 29.5824 40.9419 29.8391 40.0028 29.1469C39.0637 28.4532 38.9003 27.0731 39.6372 26.0636C40.0057 25.5588 40.529 25.2415 41.0781 25.1377V25.8559H42.6709V25.4896C43.61 26.1833 43.7734 27.5634 43.0365 28.5729H43.0379Z" fill="#8F8DFA"/>
<path d="M43.0222 28.5622C42.2924 29.563 40.9462 29.8168 40.0157 29.1304C39.0853 28.4439 38.9232 27.0753 39.653 26.0744C40.0186 25.574 40.5361 25.2611 41.081 25.1572V25.8552H42.6594V25.5048C43.5899 26.1913 43.7519 27.5599 43.0222 28.5607V28.5622Z" fill="#908DFA"/>
<path d="M43.0064 28.55C42.2824 29.5422 40.949 29.7931 40.0272 29.1124C39.1053 28.4317 38.9447 27.0761 39.6687 26.0853C40.03 25.5892 40.5447 25.2792 41.0838 25.1768V25.8546H42.6479V25.5214C43.5698 26.2021 43.7304 27.5578 43.0078 28.5485L43.0064 28.55Z" fill="#918EFA"/>
<path d="M42.9906 28.5389C42.2738 29.521 40.9533 29.7704 40.0401 29.0955C39.1268 28.4206 38.9677 27.0794 39.6845 26.0973C40.4014 25.1152 41.7218 24.8657 42.6351 25.5406C43.5483 26.2155 43.7075 27.5567 42.9906 28.5389Z" fill="#928FFB"/>
<path d="M42.9748 28.5275C42.2652 29.4995 40.9562 29.7476 40.0515 29.0798C39.1469 28.4121 38.9892 27.081 39.6989 26.109C40.4085 25.137 41.7175 24.8889 42.6222 25.5567C43.5268 26.2244 43.6845 27.5555 42.9748 28.5275Z" fill="#9390FB"/>
<path d="M42.9591 28.5152C42.2566 29.4785 40.9591 29.7237 40.0645 29.0618C39.1684 28.3998 39.0122 27.0831 39.7147 26.1198C40.4172 25.1564 41.7147 24.9112 42.6093 25.5732C43.5053 26.2351 43.6616 27.5518 42.9591 28.5152Z" fill="#9490FB"/>
<path d="M42.9433 28.5037C42.2465 29.4585 40.9634 29.7007 40.0759 29.046C39.1885 28.3913 39.0336 27.0861 39.7304 26.1328C40.4272 25.1781 41.7103 24.9359 42.5978 25.5906C43.4852 26.2453 43.6401 27.5505 42.9433 28.5037Z" fill="#9591FB"/>
<path d="M42.9276 28.4925C42.238 29.4371 40.9663 29.678 40.0889 29.029C39.2115 28.38 39.0566 27.0878 39.7462 26.1432C40.4358 25.1986 41.7075 24.9578 42.585 25.6068C43.4624 26.2557 43.6172 27.5479 42.9276 28.4925Z" fill="#9692FB"/>
<path d="M42.9118 28.4811C42.2293 29.4157 40.9705 29.6536 40.1003 29.0119C39.23 28.3701 39.0795 27.0909 39.7619 26.1549C40.4444 25.2204 41.7031 24.9825 42.5734 25.6242C43.4437 26.266 43.5956 27.5452 42.9118 28.4811Z" fill="#9793FB"/>
<path d="M42.8974 28.4689C42.2222 29.3962 40.9749 29.6313 40.1132 28.9938C39.2516 28.3578 39.1025 27.0916 39.7777 26.1658C40.453 25.2385 41.7003 25.0034 42.5605 25.6408C43.4222 26.2768 43.5727 27.543 42.896 28.4689H42.8974Z" fill="#9893FC"/>
<path d="M42.8817 28.4579C42.2122 29.3751 40.9792 29.6073 40.1261 28.9785C39.2731 28.3483 39.1254 27.095 39.7935 26.1778C40.4631 25.2606 41.696 25.0284 42.5491 25.6572C43.4021 26.2874 43.5512 27.5407 42.8817 28.4579Z" fill="#9994FC"/>
<path d="M42.8659 28.4465C42.2036 29.3551 40.9821 29.5844 40.1376 28.9614C39.2932 28.3384 39.1469 27.0967 39.8079 26.1896C40.4702 25.281 41.6917 25.0517 42.5362 25.6747C43.3806 26.2977 43.5283 27.5394 42.8659 28.4465Z" fill="#9A95FC"/>
<path d="M42.8501 28.4352C42.195 29.3336 40.9864 29.5615 40.1505 28.9457C39.3147 28.3285 39.1699 27.0997 39.8251 26.2013C40.4803 25.3028 41.6903 25.075 42.5261 25.6908C43.3605 26.308 43.5068 27.5367 42.8516 28.4352H42.8501Z" fill="#9B96FC"/>
<path d="M42.8344 28.4229C42.1849 29.3127 40.9892 29.5377 40.162 28.9276C39.3347 28.3176 39.1899 27.1019 39.8394 26.2121C40.4889 25.3223 41.6846 25.0973 42.5118 25.7073C43.339 26.3173 43.4824 27.5331 42.8344 28.4229Z" fill="#9C96FC"/>
<path d="M42.8186 28.4116C42.1763 29.2914 40.9935 29.5149 40.1749 28.9106C39.3563 28.3064 39.2129 27.1022 39.8552 26.2224C40.4975 25.3427 41.6803 25.1192 42.5003 25.7235C43.319 26.3277 43.4609 27.5319 42.8186 28.4116Z" fill="#9D97FD"/>
<path d="M42.8042 28.4002C42.1691 29.2713 40.9963 29.4919 40.1877 28.8949C39.3791 28.2964 39.2372 27.1066 39.8723 26.2355C40.5074 25.3645 41.6788 25.1438 42.4888 25.7409C43.2988 26.3394 43.4393 27.5291 42.8042 28.4002Z" fill="#9E98FD"/>
<path d="M42.7885 28.3885C42.1591 29.2495 41.0007 29.4687 40.1993 28.8774C39.3978 28.2861 39.2588 27.1079 39.8867 26.2469C40.5147 25.3859 41.6745 25.1667 42.4745 25.758C43.276 26.3493 43.415 27.5275 42.7871 28.3885H42.7885Z" fill="#9F99FD"/>
<path d="M42.7727 28.3767C42.1505 29.229 41.0036 29.4453 40.2122 28.8598C39.4193 28.2757 39.2817 27.109 39.9039 26.2567C40.5261 25.4044 41.6717 25.1881 42.4645 25.7736C43.2573 26.3576 43.395 27.5243 42.7742 28.3767H42.7727Z" fill="#A09AFD"/>
<path d="M42.757 28.3658C42.1419 29.208 41.0079 29.4229 40.2236 28.8446C39.4394 28.2663 39.3032 27.114 39.9183 26.2704C40.5333 25.4281 41.6674 25.2133 42.4516 25.7916C43.2358 26.3699 43.372 27.5221 42.757 28.3658Z" fill="#A19AFD"/>
<path d="M42.7412 28.3545C42.1333 29.188 41.0108 29.4 40.2366 28.8275C39.4609 28.255 39.3262 27.1157 39.9341 26.2821C40.5434 25.4485 41.6645 25.2365 42.4387 25.8091C43.2143 26.3816 43.3491 27.5209 42.7412 28.3545Z" fill="#A29BFD"/>
<path d="M42.7255 28.3425C42.1233 29.1674 41.0151 29.3766 40.248 28.8112C39.481 28.2445 39.3477 27.1181 39.9484 26.2932C40.5505 25.4683 41.6588 25.2592 42.4258 25.8245C43.1928 26.3913 43.3262 27.5176 42.7255 28.3425Z" fill="#A39CFE"/>
<path d="M42.7097 28.3308C42.1147 29.1456 41.0179 29.3533 40.2609 28.7937C39.5025 28.2342 39.3706 27.1194 39.9656 26.3046C40.5606 25.4898 41.6573 25.2821 42.4158 25.8417C43.1742 26.4012 43.3061 27.516 42.7111 28.3308H42.7097Z" fill="#A49DFE"/>
<path d="M42.6939 28.3195C42.1061 29.1257 41.0222 29.3304 40.2724 28.7767C39.5226 28.2229 39.3921 27.1211 39.9799 26.3163C40.5677 25.5102 41.6516 25.3054 42.4014 25.8592C43.1513 26.413 43.2817 27.5148 42.6939 28.3195Z" fill="#A59DFE"/>
<path d="M42.6781 28.3083C42.0975 29.1043 41.0251 29.3077 40.2839 28.7596C39.5441 28.2131 39.4136 27.1242 39.9957 26.3267C40.5764 25.5307 41.6488 25.3273 42.39 25.8753C43.1312 26.4219 43.2602 27.5107 42.6781 28.3083Z" fill="#A69EFE"/>
<path d="M42.6624 28.2958C42.0874 29.0832 41.0294 29.2837 40.2968 28.7429C39.5641 28.2021 39.4365 27.1262 40.0115 26.3388C40.5849 25.5514 41.6444 25.351 42.3771 25.8918C43.1097 26.4326 43.2373 27.5084 42.6624 28.2958Z" fill="#A79FFE"/>
<path d="M42.648 28.2846C42.0803 29.0619 41.0337 29.2609 40.3097 28.7259C39.5857 28.1923 39.4595 27.128 40.0273 26.3492C40.595 25.5719 41.6416 25.3729 42.3656 25.9079C43.0896 26.4415 43.2158 27.5058 42.648 28.2846Z" fill="#A8A0FE"/>
<path d="M42.6322 28.2736C42.0717 29.0423 41.0365 29.237 40.3226 28.7091C39.6086 28.1813 39.4824 27.13 40.043 26.3613C40.6036 25.5926 41.6387 25.398 42.3527 25.9258C43.0681 26.4536 43.1928 27.5049 42.6322 28.2736Z" fill="#A9A0FF"/>
<path d="M42.6165 28.2618C42.0617 29.0218 41.0409 29.2151 40.3341 28.693C39.6272 28.171 39.504 27.1326 40.0588 26.374C40.6136 25.614 41.6344 25.4208 42.3412 25.9428C43.048 26.4649 43.1713 27.5032 42.6165 28.2618Z" fill="#AAA1FF"/>
<path d="M42.6006 28.2501C42.053 29 41.0436 29.1918 40.3469 28.6756C39.6487 28.1607 39.5282 27.1353 40.0745 26.3854C40.6221 25.6355 41.6315 25.4437 42.3297 25.96C43.0264 26.4748 43.1483 27.5002 42.6006 28.2501Z" fill="#ABA2FF"/>
<path d="M42.585 28.2383C42.0445 28.9796 41.048 29.1685 40.3584 28.6579C39.6688 28.1503 39.5498 27.1365 40.0903 26.3952C40.6308 25.6539 41.6272 25.465 42.3168 25.9755C43.005 26.4832 43.1255 27.497 42.585 28.2383Z" fill="#ABA2FF"/>
<path d="M42.5605 28.2216C42.03 28.9485 41.0523 29.1331 40.3755 28.6341C39.7003 28.1351 39.5813 27.14 40.1117 26.4146C40.6422 25.6878 41.62 25.5032 42.2967 26.0022C42.972 26.5011 43.091 27.4962 42.5605 28.2216Z" fill="#ACA3FF"/>
<path d="M42.5376 28.2045C42.0172 28.9184 41.058 29.0986 40.3956 28.6097C39.7333 28.1209 39.6172 27.1445 40.1376 26.4321C40.658 25.7182 41.6171 25.538 42.2809 26.0268C42.9433 26.5157 43.0594 27.4921 42.539 28.2045H42.5376Z" fill="#ADA4FF"/>
<path d="M42.5147 28.1863C42.0043 28.8843 41.0638 29.0631 40.4143 28.5828C39.7648 28.1026 39.6516 27.1465 40.1605 26.4485C40.6709 25.7505 41.6114 25.5716 42.2609 26.0519C42.9118 26.5321 43.0236 27.4883 42.5147 28.1863Z" fill="#AEA4FE"/>
<path d="M42.4903 28.1691C41.9913 28.8542 41.0695 29.0287 40.4315 28.5585C39.7949 28.0884 39.6831 27.151 40.1834 26.4659C40.6824 25.7809 41.6042 25.6064 42.2422 26.0766C42.8802 26.5467 42.9906 27.4841 42.4903 28.1691Z" fill="#AFA5FE"/>
<path d="M42.4674 28.1517C41.977 28.8237 41.0752 28.9939 40.4501 28.5324C39.8265 28.0709 39.7175 27.1537 40.2064 26.4831C40.6953 25.811 41.5985 25.6409 42.2236 26.1024C42.8473 26.5638 42.9562 27.4811 42.4674 28.1517Z" fill="#B0A6FE"/>
<path d="M42.4444 28.1345C41.9641 28.7921 41.0795 28.958 40.4688 28.508C39.858 28.0566 39.7519 27.1581 40.2308 26.5005C40.7096 25.8429 41.5942 25.6771 42.205 26.127C42.8157 26.5784 42.9233 27.4769 42.443 28.1345H42.4444Z" fill="#B1A7FE"/>
<path d="M42.42 28.1176C41.9498 28.7608 41.0853 28.9238 40.4874 28.4825C39.8896 28.0412 39.7849 27.1615 40.2551 26.5183C40.724 25.8751 41.5899 25.7121 42.1878 26.1534C42.7856 26.5947 42.8903 27.4744 42.4215 28.1176H42.42Z" fill="#B2A8FE"/>
<path d="M42.3971 28.1001C41.9383 28.7289 41.091 28.889 40.5061 28.4577C39.9211 28.0251 39.8193 27.1656 40.2781 26.5354C40.7369 25.9066 41.5842 25.7465 42.1692 26.1777C42.7541 26.6103 42.8573 27.4699 42.3971 28.1001Z" fill="#B3A9FD"/>
<path d="M42.3742 28.0826C41.9254 28.6984 41.0967 28.8542 40.5247 28.4316C39.9527 28.0091 39.8523 27.1683 40.3025 26.5525C40.7512 25.9367 41.5799 25.7809 42.1505 26.2035C42.7226 26.626 42.8229 27.4668 42.3742 28.0826Z" fill="#B4A9FD"/>
<path d="M42.3498 28.0656C41.9111 28.667 41.101 28.8199 40.5419 28.4074C39.9828 27.995 39.8853 27.1729 40.324 26.5715C40.7627 25.9702 41.5713 25.8173 42.1304 26.2298C42.6896 26.6422 42.7871 27.4642 42.3484 28.0656H42.3498Z" fill="#B5AAFD"/>
<path d="M42.3269 28.0482C41.8982 28.6352 41.1082 28.7852 40.562 28.3814C40.0158 27.9776 39.9197 27.1757 40.3498 26.5873C40.7785 26.0004 41.5685 25.8504 42.1147 26.2542C42.6609 26.658 42.7555 27.4598 42.3269 28.0482Z" fill="#B6ABFD"/>
<path d="M42.3025 28.0306C41.8839 28.6046 41.1125 28.7503 40.5792 28.3566C40.0459 27.9629 39.9527 27.1798 40.3713 26.6058C40.79 26.0318 41.5613 25.8862 42.0946 26.2799C42.6279 26.6736 42.7211 27.4567 42.3025 28.0306Z" fill="#B7ACFC"/>
<path d="M42.2796 28.0136C41.8709 28.5731 41.1183 28.7145 40.5978 28.3309C40.0774 27.9472 39.9856 27.1815 40.3957 26.6219C40.8028 26.0624 41.557 25.921 42.0774 26.3046C42.5978 26.6882 42.6882 27.454 42.2796 28.0136Z" fill="#B8ADFC"/>
<path d="M42.2565 27.9964C41.858 28.5415 41.1239 28.6814 40.6178 28.305C40.1103 27.9315 40.0214 27.1844 40.42 26.6393C40.8171 26.0942 41.5512 25.9543 42.0587 26.3307C42.5662 26.7042 42.6551 27.4512 42.2565 27.9964Z" fill="#B9ADFC"/>
<path d="M42.2322 27.9786C41.8436 28.5108 41.1282 28.6449 40.635 28.28C40.1404 27.9151 40.0544 27.1883 40.4415 26.6561C40.83 26.124 41.5454 25.9899 42.0386 26.3547C42.5332 26.7196 42.6193 27.4464 42.2307 27.9786H42.2322Z" fill="#BAAEFC"/>
<path d="M42.2092 27.9616C41.8322 28.4793 41.1354 28.6106 40.6537 28.2558C40.172 27.901 40.0888 27.1929 40.4659 26.6752C40.8444 26.1575 41.5397 26.0262 42.0214 26.381C42.5031 26.7358 42.5863 27.4439 42.2092 27.9616Z" fill="#BBAFFC"/>
<path d="M42.1849 27.9428C41.8179 28.4461 41.1398 28.5744 40.671 28.2283C40.2021 27.8822 40.1204 27.1943 40.4889 26.691C40.8573 26.1877 41.534 26.0593 42.0029 26.4054C42.4717 26.7515 42.5534 27.4395 42.1849 27.9428Z" fill="#BDB0FB"/>
<path d="M42.162 27.9272C41.805 28.4161 41.1455 28.5416 40.6896 28.2055C40.2337 27.8695 40.1549 27.2004 40.5118 26.71C40.8688 26.2211 41.5283 26.0957 41.9842 26.4317C42.4402 26.7677 42.519 27.4369 42.162 27.9272Z" fill="#BEB1FB"/>
<path d="M42.1376 27.9097C41.7907 28.3856 41.1498 28.5068 40.7083 28.1794C40.2652 27.8521 40.1893 27.2031 40.5362 26.7272C40.8832 26.2513 41.524 26.1301 41.9656 26.4575C42.4086 26.7849 42.4846 27.4338 42.1376 27.9097Z" fill="#BFB2FB"/>
<path d="M42.1146 27.8922C41.7777 28.3537 41.1569 28.472 40.7268 28.1547C40.2967 27.8374 40.2221 27.2072 40.5591 26.7443C40.896 26.2828 41.5168 26.1645 41.9469 26.4818C42.377 26.7991 42.4515 27.4293 42.1146 27.8922Z" fill="#C0B2FB"/>
<path d="M42.0917 27.8741C41.7648 28.3226 41.1626 28.4351 40.7454 28.1279C40.3282 27.8208 40.2565 27.2078 40.5834 26.7608C40.9103 26.3123 41.5125 26.1998 41.9297 26.507C42.3469 26.8141 42.4186 27.4271 42.0917 27.8741Z" fill="#C1B3FB"/>
<path d="M42.0674 27.8566C41.7505 28.2907 41.167 28.4003 40.7641 28.1032C40.3613 27.8047 40.291 27.212 40.6064 26.7779C40.9233 26.3438 41.5068 26.2342 41.9097 26.5313C42.314 26.8298 42.3842 27.4225 42.0674 27.8566Z" fill="#C2B4FA"/>
<path d="M42.0444 27.8407C41.7376 28.2604 41.1727 28.3671 40.7828 28.0787C40.3928 27.7902 40.324 27.2162 40.6308 26.7966C40.9376 26.3769 41.5025 26.2702 41.8924 26.5586C42.2838 26.8471 42.3512 27.421 42.0444 27.8407Z" fill="#C3B5FA"/>
<path d="M42.02 27.8236C41.7233 28.2303 41.1785 28.3327 40.8 28.0543C40.4229 27.776 40.357 27.2208 40.6523 26.8141C40.9476 26.4074 41.4939 26.305 41.8724 26.5833C42.2509 26.8617 42.3154 27.4169 42.02 27.8236Z" fill="#C4B6FA"/>
<path d="M41.9971 27.8047C41.7118 28.197 41.1842 28.2965 40.8201 28.0268C40.4559 27.7572 40.3914 27.2221 40.6781 26.8298C40.9649 26.4376 41.4925 26.3381 41.8552 26.6078C42.2193 26.8774 42.2839 27.4125 41.9971 27.8047Z" fill="#C5B6FA"/>
<path d="M41.9741 27.7868C41.6988 28.1646 41.1899 28.2612 40.8386 28.0016C40.4874 27.7421 40.4257 27.2258 40.701 26.8479C40.9777 26.4701 41.4852 26.3735 41.8379 26.633C42.1891 26.8926 42.2508 27.4089 41.9741 27.7868Z" fill="#C6B7F9"/>
<path d="M41.9498 27.7698C41.6846 28.1346 41.1943 28.2269 40.8559 27.976C40.5175 27.7265 40.4573 27.2289 40.724 26.8641C40.9892 26.4992 41.4796 26.4069 41.8179 26.6579C42.1563 26.9073 42.215 27.4049 41.9498 27.7698Z" fill="#C7B8F9"/>
<path d="M41.9269 27.7531C41.6717 28.1035 41.2 28.1915 40.8746 27.9521C40.5491 27.7127 40.4918 27.2339 40.747 26.8835C41.0022 26.533 41.4738 26.4451 41.7993 26.6845C42.1247 26.9239 42.1821 27.4027 41.9255 27.7531H41.9269Z" fill="#C8B9F9"/>
<path d="M41.9025 27.7354C41.6573 28.0714 41.2057 28.1579 40.8917 27.9257C40.5792 27.695 40.5247 27.2349 40.7699 26.8989C41.015 26.5629 41.4666 26.4764 41.7806 26.7085C42.0932 26.9393 42.1476 27.3993 41.9025 27.7354Z" fill="#C9BAF9"/>
<path d="M41.8796 27.7177C41.6444 28.0393 41.2115 28.1215 40.9118 27.9009C40.6122 27.6788 40.5606 27.2389 40.7957 26.9173C41.0308 26.5957 41.4638 26.5135 41.7634 26.7342C42.0631 26.9563 42.1147 27.3961 41.8796 27.7177Z" fill="#CABBF9"/>
<path d="M41.8565 27.7007C41.6314 28.0093 41.2171 28.0872 40.9304 27.8752C40.6436 27.6632 40.5935 27.2421 40.8185 26.9335C41.0436 26.6249 41.458 26.547 41.7447 26.759C42.0314 26.971 42.0816 27.3921 41.8565 27.7007Z" fill="#CBBBF8"/>
<path d="M41.8323 27.6837C41.6172 27.9779 41.2215 28.0529 40.9477 27.851C40.6738 27.6491 40.6265 27.2467 40.8416 26.9525C41.0566 26.6583 41.4523 26.5834 41.7262 26.7853C42 26.9872 42.0473 27.3895 41.8323 27.6837Z" fill="#CCBCF8"/>
<path d="M41.8093 27.6657C41.6043 27.947 41.2273 28.0176 40.9663 27.8244C40.7054 27.6311 40.6595 27.249 40.8645 26.9677C41.0696 26.6865 41.4466 26.6159 41.7061 26.8091C41.967 27.0023 42.0129 27.3845 41.8079 27.6657H41.8093Z" fill="#CDBDF8"/>
<path d="M41.7864 27.6487C41.5914 27.9155 41.233 27.9833 40.985 27.8002C40.7369 27.617 40.6939 27.2536 40.8889 26.9868C41.0839 26.72 41.4423 26.6522 41.6889 26.8354C41.9369 27.0185 41.9799 27.3819 41.7864 27.6487Z" fill="#CDBDF8"/>
<path d="M41.7462 27.6204C41.5684 27.8627 41.2415 27.9247 41.0164 27.7588C40.7914 27.5915 40.7512 27.2598 40.929 27.0175C41.1053 26.7753 41.4322 26.7133 41.6587 26.8791C41.8853 27.0464 41.924 27.3781 41.7476 27.6204H41.7462Z" fill="#CEBEF9"/>
</g>
<path d="M36.5872 16.7852H36.2904V20.4381H36.5872V16.7852Z" fill="#5F40C1"/>
<path d="M36.5872 21.4873H36.2904V25.1403H36.5872V21.4873Z" fill="#5F40C1"/>
<circle cx="24" cy="24" r="24" fill="#FFD66C"/>
<mask id="mask1_1056_491642" style="mask-type:alpha" maskUnits="userSpaceOnUse" x="0" y="0" width="48" height="48">
<circle cx="24" cy="24" r="24" fill="#D9D9D9"/>
</mask>
<g mask="url(#mask1_1056_491642)">
<g opacity="0.7">
<path d="M8.37647 30.0986L13.522 29.0285C14.2833 28.8699 15.0331 29.3891 15.198 30.1866L15.8059 33.143C15.9693 33.9405 15.4847 34.7149 14.7234 34.8736L13.013 35.2283C12.8998 35.5038 12.7292 35.9191 12.6231 36.1787C12.5112 36.4513 12.1184 36.5782 11.9277 36.4571C11.727 36.2609 11.5163 35.7908 11.3041 35.5831L9.5779 35.9422C8.81661 36.1008 8.06679 35.5817 7.90192 34.7856L7.29403 31.8292C7.13059 31.0317 7.61518 30.2572 8.37647 30.0986Z" fill="#C1365B"/>
<path d="M8.11414 30.1539L13.2597 29.0852C14.021 28.9266 14.7708 29.4443 14.9356 30.2418L15.5435 33.1982C15.707 33.9958 15.2224 34.7702 14.4611 34.9288L12.7507 35.2836C12.6374 35.5591 12.4668 35.9744 12.3607 36.234C12.2489 36.5065 11.9851 36.5613 11.7744 36.3566C11.5736 36.1604 11.2539 35.846 11.0417 35.6384L9.31558 35.9975C8.55429 36.1561 7.80446 35.6384 7.63959 34.8409L7.0317 31.883C6.86826 31.0855 7.35285 30.3111 8.11414 30.1524V30.1539Z" fill="#E06376"/>
<path d="M12.6432 31.0847C12.2145 30.802 11.5952 30.9765 11.2038 31.4712C10.6504 31.1741 10.0124 31.2592 9.73137 31.6904C9.45037 32.1216 9.62384 32.7446 10.1142 33.1383C10.1514 33.1671 10.1902 33.196 10.2303 33.2234L11.6482 34.1608C11.6884 34.1882 11.7299 34.2112 11.7715 34.2343C11.8016 34.1968 11.8289 34.1579 11.8561 34.1175L12.788 32.6912C12.8152 32.6494 12.8382 32.609 12.8611 32.5672C13.1565 32.0105 13.0719 31.3688 12.6432 31.0861V31.0847Z" fill="url(#paint0_linear_1056_491642)"/>
<path d="M11.0732 31.5029C11.0732 31.5029 10.5198 31.1712 10.0008 31.5303C10.0008 31.5303 9.53203 31.8389 9.6668 32.3192C9.6668 32.3192 9.6883 32.8528 10.5499 33.3575L11.7543 34.1521L10.2216 32.9393C10.2216 32.9393 9.60085 32.4043 9.86895 31.8865C9.86895 31.8865 10.0668 31.288 11.0718 31.5043L11.0732 31.5029Z" fill="white"/>
</g>
<mask id="mask2_1056_491642" style="mask-type:luminance" maskUnits="userSpaceOnUse" x="7" y="10" width="5" height="5">
<path d="M11.5935 12.3103C11.5935 13.5866 10.5656 14.6207 9.29677 14.6207C8.02796 14.6207 7 13.5866 7 12.3103C7 11.034 8.02796 10 9.29677 10C10.5656 10 11.5935 11.034 11.5935 12.3103Z" fill="white"/>
</mask>
<g mask="url(#mask2_1056_491642)">
<path d="M11.5935 10H7V14.6207H11.5935V10Z" fill="#6A7AFD"/>
<path d="M11.119 13.371C9.91322 15.0222 7.691 15.4434 6.15552 14.3084H6.85659V9.85501H11.4315V9.36035C11.6537 9.75694 11.7928 10.1968 11.8473 10.654C11.9548 11.5668 11.7211 12.5446 11.119 13.371Z" fill="#6A7AFD"/>
<path d="M11.0372 13.3118C9.86734 14.9155 7.70964 15.3236 6.21716 14.2232H6.85516V9.85638H11.3412V9.41797C11.5562 9.80302 11.6924 10.2313 11.7455 10.6741C11.8501 11.561 11.6236 12.5099 11.0387 13.3118H11.0372Z" fill="#6B7AFC"/>
<path d="M10.957 13.2521C9.82149 14.8082 7.7283 15.2048 6.28027 14.1347H6.85518V9.85436H11.2509V9.47363C11.4602 9.84715 11.5921 10.2625 11.6423 10.6923C11.7441 11.5518 11.5233 12.4733 10.9555 13.2521H10.957Z" fill="#6C79FB"/>
<path d="M10.8767 13.1929C9.77564 14.7014 7.74697 15.085 6.34338 14.0481H6.85521V9.85573H11.162V9.53125C11.3642 9.89323 11.4918 10.2956 11.542 10.7124C11.6409 11.5459 11.4273 12.4386 10.8767 13.1929Z" fill="#6D79FA"/>
<path d="M10.7964 13.1341C9.73113 14.595 7.76554 14.9657 6.40784 13.9634H6.85658V9.85613H11.0731V9.58789C11.2695 9.93833 11.3928 10.3277 11.4415 10.7315C11.5376 11.5391 11.3297 12.403 10.7978 13.1341H10.7964Z" fill="#6F78F8"/>
<path d="M10.7161 13.0735C9.68528 14.4868 7.78421 14.8459 6.47095 13.8753H6.85661V9.85457H10.9842V9.64258C11.1749 9.98293 11.2939 10.3593 11.3398 10.7487C11.4315 11.5289 11.2322 12.3654 10.7161 13.072V13.0735Z" fill="#7078F7"/>
<path d="M10.6358 13.0145C9.63943 14.3788 7.80431 14.7263 6.53406 13.7889H6.85664V9.85619H10.1412V8.84668C11.41 9.78408 11.6323 11.6502 10.6358 13.0145Z" fill="#7177F6"/>
<path d="M10.5555 12.9552C9.5949 14.2719 7.82142 14.6065 6.59705 13.7023H6.85654V9.85462H10.078V8.93164C11.3024 9.83587 11.5175 11.6371 10.5555 12.9538V12.9552Z" fill="#7277F5"/>
<path d="M10.4737 12.8966C9.54758 14.1656 7.84005 14.4887 6.65869 13.6176H6.85511V9.85793H10.0135V9.02148C11.1935 9.89255 11.3999 11.6289 10.4737 12.898V12.8966Z" fill="#7277F5"/>
<path d="M10.4595 12.8848C9.54048 14.1438 7.84442 14.4654 6.6731 13.6001H6.85661V9.85625H10.0021V9.03711C11.1749 9.9024 11.3785 11.6258 10.4595 12.8848Z" fill="#7378F5"/>
<path d="M10.4437 12.8735C9.53048 14.1253 7.84876 14.4426 6.68604 13.5845H6.85808V9.85797H9.99213V9.05469C11.1549 9.91421 11.3584 11.6246 10.4452 12.875L10.4437 12.8735Z" fill="#7479F5"/>
<path d="M10.428 12.8617C9.52188 14.1034 7.85163 14.4193 6.69751 13.5669H6.85665V9.85629H9.9778V9.07031C11.1319 9.92263 11.3341 11.62 10.428 12.8617Z" fill="#7579F6"/>
<path d="M10.4122 12.85C9.51328 14.083 7.85594 14.3959 6.70898 13.5494H6.85665V9.85605H9.96633V9.08594C11.1119 9.93248 11.3126 11.6169 10.4122 12.8485V12.85Z" fill="#767AF6"/>
<path d="M10.3964 12.8387C9.5046 14.0616 7.85872 14.3717 6.7218 13.5324H6.85657V9.85632H9.95334V9.10352C11.0903 9.94285 11.2895 11.6157 10.3964 12.8387Z" fill="#777BF6"/>
<path d="M10.3806 12.8274C9.49457 14.0417 7.86159 14.3503 6.73328 13.5168H6.85657V9.85659H9.94188V9.12109C11.0702 9.95466 11.268 11.6146 10.382 12.8274H10.3806Z" fill="#787CF6"/>
<path d="M10.3648 12.8152C9.48597 14.0194 7.8659 14.3251 6.74475 13.4988H6.85515V9.85589H9.92755V9.1377C11.0473 9.96405 11.2437 11.611 10.3648 12.8152Z" fill="#797CF6"/>
<path d="M10.3491 12.8044C9.4774 13.9999 7.8688 14.3028 6.75769 13.4822H6.85518V9.85663H9.91468V9.1543C11.0258 9.97488 11.2208 11.6088 10.3477 12.8029L10.3491 12.8044Z" fill="#7A7DF6"/>
<path d="M10.3333 12.7921C9.46737 13.9776 7.87311 14.279 6.76917 13.4656H6.85519V9.85592H9.90322V9.1709C11.0072 9.98427 11.1993 11.6067 10.3333 12.7921Z" fill="#7B7EF7"/>
<path d="M10.3175 12.7813C9.45868 13.9581 7.87589 14.2567 6.78198 13.4491H6.8551V9.85666H9.89166V9.1875C10.9856 9.99511 11.1762 11.6045 10.3175 12.7813Z" fill="#7C7FF7"/>
<path d="M10.3032 12.7694C9.45155 13.9361 7.88166 14.2331 6.79635 13.4313H6.858V9.8663H6.37341C6.5856 9.57499 6.8451 9.33703 7.12897 9.1582V9.85621H9.88166V9.20435C10.967 10.0062 11.1562 11.6012 10.3046 12.7694H10.3032Z" fill="#7D7FF7"/>
<path d="M10.2874 12.7581C9.44155 13.9161 7.88313 14.2103 6.80642 13.4157H6.85517V9.87955H6.38635C6.59711 9.58968 6.85374 9.35461 7.13474 9.17578V9.85648H9.86592V9.22049C10.9426 10.0166 11.1304 11.6 10.286 12.7566L10.2874 12.7581Z" fill="#7E80F7"/>
<path d="M10.2717 12.7463C9.43296 13.8957 7.88744 14.187 6.81934 13.3982H6.85661V9.88941H6.40356C6.61288 9.60242 6.86665 9.36879 7.14622 9.19141V9.8548H9.85589V9.23611C10.924 10.025 11.1104 11.5955 10.2731 12.7449L10.2717 12.7463Z" fill="#7F81F7"/>
<path d="M10.2558 12.7344C9.4243 13.8737 7.89025 14.1636 6.83075 13.3805H6.85512V9.90056H6.41785C6.83362 9.33091 7.4243 8.97326 8.04365 8.85645V9.85586H9.8415V9.25448C10.901 10.0376 11.0859 11.5951 10.2544 12.7344H10.2558Z" fill="#8082F8"/>
<path d="M10.2402 12.7227C9.41579 13.8534 7.89465 14.1403 6.84375 13.3645H6.85665V9.9134H6.43372C6.84662 9.34807 7.433 8.9933 8.04662 8.87793V9.85715H9.83013V9.27308C10.881 10.049 11.0645 11.5949 10.2402 12.7242V12.7227Z" fill="#8183F8"/>
<path d="M10.2243 12.712C9.4057 13.8325 7.89746 14.1181 6.85516 13.3479C6.3333 12.9629 6.02792 12.3875 5.95337 11.7688H6.85516V9.92427H6.44799C6.85803 9.36328 7.43867 9.01283 8.04799 8.89746V9.85649H9.81717V9.28828C10.8595 10.0584 11.0415 11.59 10.2243 12.712Z" fill="#8283F8"/>
<path d="M10.2085 12.7003C9.39708 13.8122 7.90174 14.0948 6.86804 13.3319C6.35048 12.9512 6.04797 12.3801 5.97485 11.7658H6.85514V9.93711H6.46374C6.86948 9.38043 7.44582 9.03288 8.05084 8.91895V9.85779H9.80424V9.30688C10.8379 10.0698 11.0186 11.5898 10.2071 12.7017L10.2085 12.7003Z" fill="#8384F8"/>
<path d="M10.1928 12.6885C9.38851 13.7903 7.90464 14.0716 6.87955 13.3144C6.36629 12.9366 6.06521 12.3698 5.99353 11.7598H6.85518V9.94701H6.47955C6.88099 9.3961 7.45303 9.04999 8.05375 8.9375V9.85615H9.79281V9.32111C10.8179 10.0782 10.9971 11.5853 10.1928 12.6885Z" fill="#8485F8"/>
<path d="M10.177 12.6768C9.37989 13.77 7.90892 14.0469 6.89243 13.2969C6.38491 12.9205 6.0867 12.3595 6.01501 11.7567H6.85659V9.95835H6.49673C6.8953 9.41178 7.46304 9.06998 8.05659 8.95605V9.85452H9.78132V9.33678C10.7978 10.0881 10.9756 11.5822 10.177 12.6754V12.6768Z" fill="#8586F8"/>
<path d="M10.1626 12.6651C9.37124 13.7496 7.91317 14.0251 6.90529 13.2809C6.40063 12.9089 6.10529 12.3522 6.03503 11.7537H6.85654V9.97118H6.51245C6.90815 9.42893 7.47016 9.09003 8.05941 8.97754V9.85581H9.7698V9.35538C10.7777 10.0995 10.954 11.5821 10.1626 12.6651Z" fill="#8686F9"/>
<path d="M10.1469 12.6539C9.36267 13.7283 7.91751 14.0023 6.91679 13.2639C6.41787 12.8947 6.12396 12.3438 6.05371 11.7497H6.85658V9.98304H6.52826C6.91966 9.44511 7.47737 9.10909 8.06231 8.99805V9.85613H9.75694V9.37156C10.7562 10.1085 10.9311 11.5781 10.1469 12.6525V12.6539Z" fill="#8787F9"/>
<path d="M10.1312 12.6427C9.35414 13.7084 7.92045 13.9796 6.92977 13.2484C6.43514 12.8821 6.1441 12.3355 6.07385 11.7471H6.85665V9.99489H6.5441C6.93263 9.4613 7.48604 9.12816 8.06525 9.01855V9.85789H9.74554V9.39063C10.7362 10.1218 10.9097 11.5798 10.1326 12.6441L10.1312 12.6427Z" fill="#8888F9"/>
<path d="M10.1153 12.631C9.34545 13.6866 7.92323 13.9549 6.94115 13.2309C6.4494 12.8675 6.16122 12.3267 6.09241 11.7426H6.85513V10.0048H6.55836C6.94402 9.47697 7.49169 9.14527 8.0666 9.03711V9.85625H9.73255V9.4063C10.7146 10.1317 10.8867 11.5753 10.1153 12.6324V12.631Z" fill="#8989F9"/>
<path d="M10.0996 12.6197C9.33549 13.6667 7.9276 13.9335 6.95413 13.2139C6.4681 12.8548 6.18137 12.3169 6.11255 11.7386H6.8552V10.0166H6.5742C6.95556 9.49315 7.49893 9.16434 8.0681 9.05762V9.85657H9.71972V9.42248C10.6932 10.1407 10.8638 11.5727 10.0996 12.6197Z" fill="#8A89F9"/>
<path d="M10.0838 12.6075C9.3268 13.6444 7.93039 13.9084 6.96551 13.1959C6.48236 12.8397 6.19992 12.3076 6.1311 11.7336H6.85512V10.0275H6.58845C6.96695 9.50835 7.50458 9.18387 8.06945 9.07715V9.85591H9.70673V9.43913C10.6716 10.1516 10.8393 11.5706 10.0824 12.6075H10.0838Z" fill="#8B8AF9"/>
<path d="M10.068 12.5963C9.31821 13.6246 7.93469 13.887 6.97842 13.1804C6.02215 12.4752 5.85441 11.0691 6.60566 10.0408C6.98129 9.52598 7.51462 9.20438 8.07376 9.09766V9.85623H9.6967V9.45675C10.653 10.162 10.8193 11.5681 10.0695 12.5963H10.068Z" fill="#8C8BFA"/>
<path d="M10.0523 12.5851C9.3096 13.6047 7.93756 13.8628 6.98989 13.1634C6.04222 12.464 5.87591 11.0708 6.61999 10.0512C6.99132 9.54216 7.52035 9.222 8.07376 9.11816V9.85655H9.68093V9.47293C10.6286 10.1724 10.7935 11.5655 10.0494 12.5851H10.0523Z" fill="#8D8CFA"/>
<path d="M10.0379 12.5729C9.301 13.5824 7.94186 13.8391 7.00279 13.1469C6.06372 12.4532 5.90028 11.0731 6.6372 10.0636C7.00566 9.5588 7.52895 9.24153 8.07806 9.1377V9.85589H9.67089V9.48958C10.61 10.1833 10.7734 11.5634 10.0365 12.5729H10.0379Z" fill="#8F8DFA"/>
<path d="M10.0222 12.5622C9.29242 13.563 7.94619 13.8168 7.01572 13.1304C6.08525 12.4439 5.92325 11.0753 6.653 10.0744C7.01859 9.57401 7.53615 9.26106 8.08095 9.15723V9.85523H9.65945V9.50479C10.5899 10.1913 10.7519 11.5599 10.0222 12.5607V12.5622Z" fill="#908DFA"/>
<path d="M10.0064 12.55C9.28235 13.5422 7.94902 13.7931 7.02715 13.1124C6.10529 12.4317 5.94472 11.0761 6.66873 10.0853C7.03002 9.58921 7.54472 9.27915 8.08378 9.17676V9.85457H9.64794V9.52143C10.5698 10.2021 10.7304 11.5578 10.0078 12.5485L10.0064 12.55Z" fill="#918EFA"/>
<path d="M9.99062 12.5389C9.27378 13.521 7.95335 13.7705 7.04008 13.0955C6.12682 12.4206 5.96768 11.0794 6.68453 10.0973C7.40137 9.11518 8.7218 8.86569 9.63507 9.54062C10.5483 10.2155 10.7075 11.5567 9.99062 12.5389Z" fill="#928FFB"/>
<path d="M9.97485 12.5275C9.26517 13.4995 7.95621 13.7476 7.05155 13.0798C6.14689 12.4121 5.98918 11.081 6.69886 10.109C7.40854 9.13699 8.7175 8.88894 9.62216 9.55665C10.5268 10.2244 10.6845 11.5555 9.97485 12.5275Z" fill="#9390FB"/>
<path d="M9.9591 12.5152C9.2566 13.4785 7.95911 13.7237 7.06448 13.0618C6.16842 12.3998 6.01215 11.0831 6.71466 10.1198C7.41717 9.15642 8.71466 8.91125 9.60928 9.5732C10.5053 10.2351 10.6616 11.5518 9.9591 12.5152Z" fill="#9490FB"/>
<path d="M9.9433 12.5037C9.24652 13.4585 7.96337 13.7007 7.07591 13.046C6.18846 12.3913 6.03362 11.0861 6.7304 10.1328C7.42717 9.17814 8.71032 8.93586 9.59778 9.5906C10.4852 10.2453 10.6401 11.5505 9.9433 12.5037Z" fill="#9591FB"/>
<path d="M9.9276 12.4925C9.238 13.4371 7.96631 13.678 7.08889 13.029C6.21147 12.38 6.05663 11.0878 6.74624 10.1432C7.43585 9.19863 8.70753 8.95779 9.58495 9.60676C10.4624 10.2557 10.6172 11.5479 9.9276 12.4925Z" fill="#9692FB"/>
<path d="M9.91175 12.4811C9.22932 13.4157 7.97053 13.6536 7.10028 13.0119C6.23003 12.3701 6.07949 11.0909 6.76193 10.1549C7.44437 9.22043 8.70315 8.98248 9.5734 9.62423C10.4437 10.266 10.5956 11.5452 9.91175 12.4811Z" fill="#9793FB"/>
<path d="M9.89744 12.4689C9.22217 13.3962 7.97486 13.6313 7.11321 12.9938C6.25157 12.3578 6.10246 11.0916 6.77773 10.1658C7.453 9.23846 8.70031 9.00339 9.56053 9.64082C10.4222 10.2768 10.5727 11.543 9.89601 12.4689H9.89744Z" fill="#9893FC"/>
<path d="M9.8817 12.4579C9.21217 13.3751 7.97919 13.6073 7.12615 12.9785C6.2731 12.3483 6.12543 11.095 6.79353 10.1778C7.46306 9.26061 8.69604 9.02842 9.54908 9.6572C10.4021 10.2874 10.5512 11.5407 9.8817 12.4579Z" fill="#9994FC"/>
<path d="M9.86593 12.4465C9.20356 13.3551 7.98206 13.5844 7.13761 12.9614C6.29317 12.3384 6.14693 11.0967 6.80786 10.1896C7.47023 9.28102 8.69173 9.05171 9.53618 9.67472C10.3806 10.2977 10.5283 11.5394 9.86593 12.4465Z" fill="#9A95FC"/>
<path d="M9.85015 12.4352C9.19495 13.3336 7.98635 13.5615 7.15051 12.9457C6.31467 12.3285 6.16986 11.0997 6.82506 10.2013C7.48026 9.30282 8.69029 9.07496 9.52614 9.69076C10.3605 10.308 10.5068 11.5367 9.85158 12.4352H9.85015Z" fill="#9B96FC"/>
<path d="M9.83437 12.4229C9.18491 13.3127 7.98921 13.5377 7.16197 12.9276C6.33473 12.3176 6.18993 11.1019 6.83939 10.2121C7.48885 9.32225 8.68455 9.09727 9.51179 9.70731C10.339 10.3173 10.4824 11.5331 9.83437 12.4229Z" fill="#9C96FC"/>
<path d="M9.81863 12.4116C9.17634 13.2914 7.99354 13.5149 7.1749 12.9106C6.35627 12.3064 6.2129 11.1022 6.85519 10.2224C7.49748 9.34274 8.68028 9.1192 9.50035 9.72346C10.319 10.3277 10.4609 11.5319 9.81863 12.4116Z" fill="#9D97FD"/>
<path d="M9.80422 12.4002C9.16909 13.2713 7.99633 13.4919 7.18773 12.8949C6.37913 12.2964 6.23719 11.1066 6.87232 10.2355C7.50744 9.36446 8.67877 9.14381 9.4888 9.74086C10.2988 10.3394 10.4393 11.5291 9.80422 12.4002Z" fill="#9E98FD"/>
<path d="M9.78852 12.3885C9.15913 13.2495 8.00071 13.4687 7.19927 12.8774C6.39784 12.2861 6.25877 11.1079 6.88673 10.2469C7.51468 9.38592 8.67454 9.16672 9.47454 9.758C10.276 10.3493 10.415 11.5275 9.78709 12.3885H9.78852Z" fill="#9F99FD"/>
<path d="M9.77274 12.3767C9.15052 13.229 8.00357 13.4453 7.21217 12.8598C6.41934 12.2757 6.2817 11.109 6.90393 10.2567C7.52615 9.40438 8.67167 9.18805 9.4645 9.77357C10.2573 10.3576 10.395 11.5243 9.77418 12.3767H9.77274Z" fill="#A09AFD"/>
<path d="M9.75697 12.3658C9.14192 13.208 8.00787 13.4229 7.22364 12.8446C6.43941 12.2663 6.30321 11.114 6.91826 10.2704C7.53331 9.42813 8.66736 9.21325 9.45159 9.79156C10.2358 10.3699 10.372 11.5221 9.75697 12.3658Z" fill="#A19AFD"/>
<path d="M9.74123 12.3545C9.13334 13.188 8.01076 13.4 7.23657 12.8275C6.46094 12.255 6.32617 11.1157 6.93406 10.2821C7.54338 9.44854 8.66452 9.23654 9.43872 9.80908C10.2143 10.3816 10.3491 11.5209 9.74123 12.3545Z" fill="#A29BFD"/>
<path d="M9.72545 12.3425C9.1233 13.1674 8.01506 13.3765 7.24803 12.8112C6.48101 12.2445 6.34768 11.1181 6.94839 10.2932C7.55054 9.46831 8.65879 9.2592 9.42581 9.82452C10.1928 10.3913 10.3262 11.5176 9.72545 12.3425Z" fill="#A39CFE"/>
<path d="M9.70968 12.3308C9.1147 13.1456 8.01792 13.3533 7.26093 12.7937C6.50251 12.2342 6.37061 11.1194 6.96559 10.3046C7.56057 9.48977 8.65735 9.2821 9.41577 9.84166C10.1742 10.4012 10.3061 11.516 9.71111 12.3308H9.70968Z" fill="#A49DFE"/>
<path d="M9.6939 12.3195C9.10609 13.1257 8.02222 13.3304 7.2724 12.7767C6.52258 12.2229 6.39211 11.1211 6.97993 10.3163C7.56774 9.51018 8.65161 9.30539 9.40143 9.85918C10.1513 10.413 10.2817 11.5148 9.6939 12.3195Z" fill="#A59DFE"/>
<path d="M9.67814 12.3083C9.0975 13.1043 8.0251 13.3077 7.28388 12.7596C6.54409 12.2131 6.41363 11.1242 6.99571 10.3267C7.57635 9.53066 8.64875 9.32732 9.38997 9.87534C10.1312 10.4219 10.2602 11.5107 9.67814 12.3083Z" fill="#A69EFE"/>
<path d="M9.66235 12.2958C9.08744 13.0832 8.02938 13.2837 7.29676 12.7429C6.56415 12.2021 6.43655 11.1262 7.01146 10.3388C7.58493 9.55141 8.64443 9.35095 9.37705 9.89176C10.1097 10.4326 10.2373 11.5084 9.66235 12.2958Z" fill="#A79FFE"/>
<path d="M9.64805 12.2846C9.0803 13.0619 8.03371 13.2609 7.30969 12.7259C6.58568 12.1923 6.45951 11.128 7.02726 10.3492C7.595 9.5719 8.64159 9.37288 9.36561 9.90792C10.0896 10.4415 10.2158 11.5058 9.64805 12.2846Z" fill="#A8A0FE"/>
<path d="M9.63223 12.2736C9.07165 13.0423 8.03653 13.237 7.32255 12.7091C6.60857 12.1813 6.48241 11.13 7.04298 10.3613C7.60355 9.59265 8.63868 9.39796 9.35266 9.92579C10.0681 10.4536 10.1928 11.5049 9.63223 12.2736Z" fill="#A9A0FF"/>
<path d="M9.6165 12.2618C9.06166 13.0218 8.04087 13.2151 7.33406 12.693C6.62725 12.171 6.50395 11.1326 7.05879 10.374C7.61363 9.61403 8.63442 9.42078 9.34123 9.94284C10.048 10.4649 10.1713 11.5033 9.6165 12.2618Z" fill="#AAA1FF"/>
<path d="M9.60063 12.2501C9.05296 13 8.04365 13.1918 7.34687 12.6756C6.64866 12.1607 6.52823 11.1353 7.07447 10.3854C7.62214 9.63549 8.63146 9.44368 9.32967 9.95998C10.0264 10.4748 10.1483 11.5002 9.60063 12.2501Z" fill="#ABA2FF"/>
<path d="M9.58495 12.2383C9.04445 12.9796 8.04803 13.1685 7.35843 12.658C6.66882 12.1503 6.54982 11.1365 7.09033 10.3952C7.63083 9.65394 8.62724 9.46502 9.31685 9.97554C10.005 10.4832 10.1255 11.497 9.58495 12.2383Z" fill="#ABA2FF"/>
<path d="M9.5605 12.2216C9.03003 12.9485 8.05225 13.1331 7.37555 12.6341C6.70028 12.1351 6.58128 11.14 7.11175 10.4146C7.64222 9.68776 8.61999 9.50317 9.2967 10.0022C9.97196 10.5011 10.091 11.4962 9.5605 12.2216Z" fill="#ACA3FF"/>
<path d="M9.53758 12.2045C9.01715 12.9184 8.05801 13.0986 7.39565 12.6097C6.73328 12.1209 6.61715 11.1445 7.13758 10.4321C7.65801 9.71823 8.61715 9.53796 9.28095 10.0268C9.94332 10.5157 10.0594 11.4921 9.53902 12.2045H9.53758Z" fill="#ADA4FF"/>
<path d="M9.51467 12.1863C9.00428 12.8843 8.06377 13.0631 7.41431 12.5828C6.76485 12.1026 6.65159 11.1465 7.16055 10.4485C7.67094 9.75046 8.61145 9.57163 9.26091 10.0519C9.9118 10.5321 10.0236 11.4883 9.51467 12.1863Z" fill="#AEA4FE"/>
<path d="M9.49026 12.1691C8.99133 12.8542 8.06947 13.0287 7.43148 12.5585C6.79492 12.0884 6.68309 11.151 7.18345 10.4659C7.68237 9.78092 8.60424 9.60642 9.24223 10.0766C9.88022 10.5467 9.99062 11.4841 9.49026 12.1691Z" fill="#AFA5FE"/>
<path d="M9.46735 12.1517C8.97703 12.8237 8.07523 12.9939 7.45014 12.5324C6.82649 12.0709 6.71753 11.1537 7.20642 10.4831C7.6953 9.81104 8.59853 9.64087 9.22362 10.1024C9.84728 10.5638 9.95624 11.4811 9.46735 12.1517Z" fill="#B0A6FE"/>
<path d="M9.4444 12.1345C8.96412 12.7921 8.07953 12.958 7.46878 12.508C6.85802 12.0566 6.75193 11.1581 7.23078 10.5005C7.70964 9.84291 8.59422 9.67706 9.20498 10.127C9.81573 10.5784 9.92326 11.4769 9.44297 12.1345H9.4444Z" fill="#B1A7FE"/>
<path d="M9.42002 12.1176C8.94977 12.7608 8.08526 12.9238 7.48741 12.4825C6.88956 12.0412 6.7849 11.1615 7.25515 10.5183C7.72396 9.87506 8.58991 9.71209 9.18776 10.1534C9.78561 10.5947 9.89027 11.4744 9.42146 12.1176H9.42002Z" fill="#B2A8FE"/>
<path d="M9.39711 12.1001C8.93833 12.7289 8.09102 12.889 7.50607 12.4577C6.92113 12.0251 6.81933 11.1656 7.27812 10.5354C7.7369 9.90658 8.58421 9.7465 9.16915 10.1777C9.7541 10.6103 9.85733 11.4699 9.39711 12.1001Z" fill="#B3A9FD"/>
<path d="M9.37416 12.0826C8.92542 12.6984 8.09674 12.8542 7.5247 12.4316C6.95266 12.0091 6.8523 11.1683 7.30248 10.5525C7.75122 9.9367 8.5799 9.78095 9.15051 10.2035C9.72255 10.626 9.82291 11.4668 9.37416 12.0826Z" fill="#B4A9FD"/>
<path d="M9.34979 12.0656C8.91108 12.667 8.10104 12.8199 7.5419 12.4074C6.98276 11.995 6.88527 11.1729 7.32398 10.5715C7.76269 9.97017 8.57129 9.8173 9.13043 10.2298C9.68957 10.6422 9.78706 11.4642 9.34835 12.0656H9.34979Z" fill="#B5AAFD"/>
<path d="M9.32687 12.0482C8.8982 12.6352 8.10823 12.7852 7.562 12.3814C7.01576 11.9776 6.9197 11.1757 7.34981 10.5873C7.77848 10.0004 8.56845 9.85039 9.11469 10.2542C9.66092 10.658 9.75555 11.4598 9.32687 12.0482Z" fill="#B6ABFD"/>
<path d="M9.3025 12.0306C8.88386 12.6046 8.11253 12.7503 7.5792 12.3566C7.04587 11.9629 6.95268 11.1798 7.37131 10.6058C7.78995 10.0318 8.56128 9.88615 9.09461 10.2799C9.62794 10.6736 9.72113 11.4567 9.3025 12.0306Z" fill="#B7ACFC"/>
<path d="M9.27955 12.0136C8.87095 12.5731 8.11826 12.7145 7.59783 12.3309C7.0774 11.9472 6.98564 11.1815 7.39568 10.6219C7.80285 10.0624 8.55697 9.92102 9.0774 10.3046C9.59783 10.6882 9.68815 11.454 9.27955 12.0136Z" fill="#B8ADFC"/>
<path d="M9.2552 11.9964C8.85664 12.5415 8.12259 12.6814 7.61649 12.305C7.10897 11.9315 7.02008 11.1844 7.41864 10.6393C7.81578 10.0942 8.54983 9.95427 9.05735 10.3307C9.56488 10.7042 9.65377 11.4512 9.2552 11.9964Z" fill="#B9ADFC"/>
<path d="M9.23217 11.9786C8.84364 12.5108 8.12823 12.6449 7.63504 12.28C7.14041 11.9151 7.05439 11.1883 7.44149 10.6561C7.83002 10.124 8.54543 9.98987 9.03862 10.3547C9.53325 10.7196 9.61927 11.4464 9.23074 11.9786H9.23217Z" fill="#BAAEFC"/>
<path d="M9.20923 11.9616C8.83217 12.4793 8.13539 12.6106 7.65367 12.2558C7.17195 11.901 7.0888 11.1929 7.46586 10.6752C7.84435 10.1575 8.53969 10.0262 9.02141 10.381C9.50313 10.7358 9.58629 11.4439 9.20923 11.9616Z" fill="#BBAFFC"/>
<path d="M9.18494 11.9447C8.81791 12.448 8.13978 12.5764 7.67096 12.2303C7.20214 11.8841 7.12042 11.1962 7.48888 10.6929C7.85734 10.1896 8.53404 10.0613 9.00286 10.4074C9.47167 10.7535 9.5534 11.4414 9.18494 11.9447Z" fill="#BDB0FB"/>
<path d="M9.16203 11.9272C8.80504 12.4161 8.14554 12.5416 7.68962 12.2055C7.23371 11.8695 7.15486 11.2004 7.51185 10.71C7.86884 10.2211 8.52833 10.0957 8.98425 10.4317C9.44016 10.7677 9.51902 11.4369 9.16203 11.9272Z" fill="#BEB1FB"/>
<path d="M9.13765 11.9097C8.79069 12.3856 8.14983 12.5068 7.70826 12.1794C7.26525 11.852 7.18926 11.2031 7.53621 10.7272C7.88317 10.2513 8.52403 10.1301 8.96561 10.4575C9.40862 10.7849 9.4846 11.4338 9.13765 11.9097Z" fill="#BFB2FB"/>
<path d="M9.11461 11.8922C8.77769 12.3537 8.15691 12.472 7.7268 12.1547C7.29669 11.8374 7.22214 11.2072 7.55906 10.7443C7.89597 10.2828 8.51676 10.1645 8.94687 10.4818C9.37698 10.7991 9.45153 11.4293 9.11461 11.8922Z" fill="#C0B2FB"/>
<path d="M9.09167 11.8741C8.76479 12.3226 8.16264 12.4351 7.74543 12.1279C7.32823 11.8208 7.25654 11.2078 7.58342 10.7608C7.91031 10.3123 8.51246 10.1998 8.92966 10.507C9.34686 10.8141 9.41855 11.4271 9.09167 11.8741Z" fill="#C1B3FB"/>
<path d="M9.06737 11.8566C8.75052 12.2907 8.16701 12.4003 7.76414 12.1032C7.36128 11.8047 7.29103 11.212 7.60644 10.7779C7.92328 10.3438 8.5068 10.2342 8.90966 10.5313C9.31396 10.8298 9.38422 11.4225 9.06737 11.8566Z" fill="#C2B4FA"/>
<path d="M9.04442 11.8407C8.73761 12.2604 8.17274 12.3671 7.78277 12.0787C7.39281 11.7902 7.32399 11.2162 7.6308 10.7966C7.93761 10.3769 8.50249 10.2702 8.89245 10.5586C9.28385 10.8471 9.35123 11.421 9.04442 11.8407Z" fill="#C3B5FA"/>
<path d="M9.02005 11.8236C8.72327 12.2303 8.17847 12.3327 7.79997 12.0543C7.42291 11.776 7.35696 11.2208 7.6523 10.8141C7.94764 10.4074 8.49388 10.305 8.87238 10.5833C9.25087 10.8617 9.31539 11.4169 9.02005 11.8236Z" fill="#C4B6FA"/>
<path d="M8.99713 11.8047C8.71182 12.197 8.18423 12.2965 7.82007 12.0268C7.45591 11.7571 7.39139 11.2221 7.67813 10.8298C7.96487 10.4376 8.49247 10.3381 8.85519 10.6078C9.21935 10.8774 9.28387 11.4125 8.99713 11.8047Z" fill="#C5B6FA"/>
<path d="M8.9741 11.7868C8.69883 12.1646 8.18987 12.2612 7.83861 12.0016C7.48736 11.7421 7.42571 11.2258 7.70098 10.8479C7.97768 10.4701 8.48521 10.3735 8.8379 10.633C9.18915 10.8926 9.2508 11.4089 8.9741 11.7868Z" fill="#C6B7F9"/>
<path d="M8.94981 11.7698C8.68457 12.1346 8.19425 12.2269 7.8559 11.976C7.51755 11.7265 7.45733 11.2289 7.724 10.8641C7.98923 10.4992 8.47956 10.4069 8.81791 10.6579C9.15626 10.9073 9.21504 11.4049 8.94981 11.7698Z" fill="#C7B8F9"/>
<path d="M8.9269 11.7531C8.6717 12.1035 8.20001 12.1915 7.87457 11.9521C7.54912 11.7127 7.49177 11.2339 7.74697 10.8835C8.00216 10.533 8.47385 10.4451 8.7993 10.6845C9.12475 10.9239 9.18209 11.4027 8.92546 11.7531H8.9269Z" fill="#C8B9F9"/>
<path d="M8.90249 11.7354C8.65733 12.0714 8.20571 12.1579 7.89173 11.9257C7.57919 11.695 7.52471 11.2349 7.76987 10.8989C8.01503 10.5629 8.46664 10.4764 8.78062 10.7085C9.09317 10.9393 9.14765 11.3993 8.90249 11.7354Z" fill="#C9BAF9"/>
<path d="M8.87957 11.7177C8.64445 12.0393 8.21147 12.1215 7.91183 11.9009C7.61219 11.6788 7.56058 11.2389 7.7957 10.9173C8.03083 10.5957 8.4638 10.5135 8.76344 10.7342C9.06309 10.9563 9.1147 11.3961 8.87957 11.7177Z" fill="#CABBF9"/>
<path d="M8.85654 11.7007C8.63145 12.0093 8.21711 12.0872 7.93037 11.8752C7.64363 11.6632 7.59345 11.2421 7.81854 10.9335C8.04363 10.6249 8.45797 10.547 8.74471 10.759C9.03145 10.971 9.08163 11.3921 8.85654 11.7007Z" fill="#CBBBF8"/>
<path d="M8.83225 11.6837C8.6172 11.9779 8.2215 12.0529 7.94766 11.851C7.67383 11.6491 7.62652 11.2467 7.84157 10.9525C8.05662 10.6583 8.45232 10.5834 8.72616 10.7853C8.99999 10.9872 9.0473 11.3895 8.83225 11.6837Z" fill="#CCBCF8"/>
<path d="M8.80934 11.6657C8.60432 11.947 8.22726 12.0176 7.96633 11.8244C7.70539 11.6311 7.65952 11.249 7.86453 10.9677C8.06955 10.6865 8.44661 10.6159 8.70611 10.8091C8.96704 11.0023 9.01292 11.3845 8.8079 11.6657H8.80934Z" fill="#CDBDF8"/>
<path d="M8.78639 11.6487C8.59141 11.9155 8.23299 11.9833 7.98496 11.8002C7.73693 11.617 7.69392 11.2536 7.8889 10.9868C8.08388 10.72 8.44231 10.6522 8.6889 10.8354C8.93693 11.0185 8.97994 11.3819 8.78639 11.6487Z" fill="#CDBDF8"/>
<path d="M8.7462 11.6204C8.56842 11.8627 8.24154 11.9247 8.01645 11.7588C7.79136 11.5915 7.75121 11.2598 7.92899 11.0175C8.10534 10.7753 8.43222 10.7133 8.65874 10.8791C8.88526 11.0464 8.92397 11.3781 8.74763 11.6204H8.7462Z" fill="#CEBEF9"/>
</g>
<path d="M36.3062 54.0154C36.3062 56.2161 34.5671 58.0001 32.4223 58.0001H17.1621C15.0173 58.0001 13.2797 56.2161 13.2797 54.0154V14.7239C13.2797 12.5232 15.0173 10.7393 17.1621 10.7393H32.4223C34.5671 10.7393 36.3062 12.5232 36.3062 14.7239V54.0154Z" fill="url(#paint1_linear_1056_491642)"/>
<path d="M35.6738 53.1613C35.6738 55.2769 34.0308 56.9931 32.0036 56.9931H17.5807C15.5534 56.9931 13.9104 55.2784 13.9104 53.1613V15.3855C13.9104 13.2699 15.5534 11.5537 17.5807 11.5537H32.0036C34.0308 11.5537 35.6738 13.2699 35.6738 15.3855V53.1598V53.1613Z" fill="#504289"/>
<path d="M14.3736 27.3701V53.0203C14.3736 53.0203 14.0854 55.7084 16.7793 56.6458C16.7793 56.6458 14.7334 54.9484 14.8094 53.0203V27.3701H14.3736Z" fill="white"/>
<path d="M35.5104 53.1613C35.5104 55.2769 33.8961 56.9931 31.9047 56.9931H17.7355C15.7441 56.9931 14.1298 55.2784 14.1298 53.1613V15.3855C14.1298 13.2699 15.7441 11.5537 17.7355 11.5537H31.9047C33.8961 11.5537 35.5104 13.2699 35.5104 15.3855V53.1598V53.1613Z" fill="#F5F5F5"/>
<path d="M32.2717 11.7388H17.3613C17.3613 11.7388 15.0115 11.5557 14.1512 15.1942H14.2588C14.2588 15.1942 14.805 12.5883 17.552 12.0287H32.3663C32.3663 12.0287 35.4731 13.1276 35.4244 15.9398C35.4244 15.9398 35.7355 12.5363 32.2702 11.7374L32.2717 11.7388Z" fill="white"/>
<path d="M21.2548 17.7021H29.0942C30.2555 17.7021 31.196 18.6871 31.196 19.9014V24.4067C31.196 25.621 30.2555 26.606 29.0942 26.606H26.4878C26.2397 26.9738 25.867 27.529 25.6333 27.8765C25.3881 28.2414 24.7745 28.3077 24.5336 28.0727C24.2999 27.7251 24.1322 26.9738 23.8842 26.606H21.2548C20.0949 26.606 19.1544 25.621 19.1544 24.4067V19.9014C19.1544 18.6871 20.0949 17.7021 21.2548 17.7021Z" fill="#C1365B"/>
<path d="M20.8548 17.7021H28.6942C29.854 17.7021 30.7945 18.6871 30.7945 19.9014V24.4067C30.7945 25.621 29.854 26.606 28.6942 26.606H26.0877C25.8397 26.9738 25.4669 27.529 25.2332 27.8765C24.9881 28.2414 24.5852 28.2414 24.3401 27.8765C24.1064 27.529 23.7322 26.9738 23.4841 26.606H20.8548C19.6949 26.606 18.7544 25.621 18.7544 24.4067V19.9014C18.7544 18.6871 19.6949 17.7021 20.8548 17.7021Z" fill="#E06376"/>
<path d="M27.1931 20.4389C26.6526 19.8952 25.6935 19.963 24.9752 20.5658C24.2569 19.963 23.2978 19.8952 22.7573 20.4389C22.2168 20.9826 22.2828 21.946 22.8835 22.6699C22.9279 22.7247 22.9767 22.7766 23.0268 22.8286L24.8175 24.6298C24.8677 24.6817 24.9222 24.7293 24.9752 24.774C25.0297 24.7279 25.0828 24.6803 25.1329 24.6298L26.9236 22.8286C26.9752 22.7766 27.0225 22.7247 27.067 22.6699C27.6663 21.946 27.7336 20.9826 27.1931 20.4389Z" fill="url(#paint2_linear_1056_491642)"/>
<path d="M24.773 20.5723C24.773 20.5723 24.0633 19.9191 23.1974 20.2854C23.1974 20.2854 22.4189 20.5954 22.4734 21.3367C22.4734 21.3367 22.3458 22.1227 23.4526 23.1221L24.9737 24.6493L23.0984 22.4111C23.0984 22.4111 22.3515 21.4405 22.8992 20.7656C22.8992 20.7656 23.368 19.9508 24.773 20.5723Z" fill="white"/>
</g>
<defs>
<linearGradient id="paint0_linear_1056_491642" x1="9.52334" y1="32.2433" x2="12.9534" y2="32.74" gradientUnits="userSpaceOnUse">
<stop offset="0.53" stop-color="#F2EFF2"/>
<stop offset="1" stop-color="#D7CACC"/>
</linearGradient>
<linearGradient id="paint1_linear_1056_491642" x1="13.7815" y1="11.4575" x2="34.9138" y2="54.913" gradientUnits="userSpaceOnUse">
<stop stop-color="#8C7FD9"/>
<stop offset="1" stop-color="#6957D4"/>
</linearGradient>
<linearGradient id="paint2_linear_1056_491642" x1="22.2713" y1="21.1542" x2="27.1396" y2="22.9097" gradientUnits="userSpaceOnUse">
<stop offset="0.53" stop-color="#F2EFF2"/>
<stop offset="1" stop-color="#D7CACC"/>
</linearGradient>
</defs>
</svg>
