<svg width="18" height="17" viewBox="0 0 18 17" fill="none" xmlns="http://www.w3.org/2000/svg">
<path d="M6.33301 4.00001V3.46668C6.33301 2.28668 6.33301 1.33334 8.46634 1.33334H9.53301C11.6663 1.33334 11.6663 2.28668 11.6663 3.46668V4.00001" fill="#29C78E"/>
<path d="M6.33301 4.00001V3.46668C6.33301 2.28668 6.33301 1.33334 8.46634 1.33334H9.53301C11.6663 1.33334 11.6663 2.28668 11.6663 3.46668V4.00001" stroke="#29C78E" stroke-width="1.5" stroke-miterlimit="10" stroke-linecap="round" stroke-linejoin="round"/>
<path d="M15.712 12.3666L15.712 12.3666L15.713 12.3567L16.2124 7.0294C16.3079 6.15879 16.2602 5.15866 15.6085 4.3839C14.9481 3.59874 13.8443 3.25 12.3329 3.25H5.66623C4.15486 3.25 3.05101 3.59874 2.3906 4.3839C1.73892 5.15866 1.69117 6.15881 1.78674 7.02942L2.28617 12.3567L2.2861 12.3567L2.28716 12.3666C2.36231 13.068 2.54284 13.8976 3.22453 14.5204C3.89942 15.137 4.91604 15.4167 6.33289 15.4167H11.6662C13.0831 15.4167 14.0997 15.137 14.7746 14.5204C15.4563 13.8976 15.6368 13.068 15.712 12.3666Z" fill="#29C78E" stroke="white" stroke-width="1.5" stroke-miterlimit="10" stroke-linecap="round" stroke-linejoin="round"/>
<path d="M10.3337 8.66667V9.33333C10.3337 9.34 10.3337 9.34 10.3337 9.34667C10.3337 10.0733 10.327 10.6667 9.00033 10.6667C7.68033 10.6667 7.66699 10.08 7.66699 9.35333V8.66667C7.66699 8 7.66699 8 8.33366 8H9.66699C10.3337 8 10.3337 8 10.3337 8.66667Z" fill="white"/>
<path d="M16.3333 7.33334C14.5215 8.44593 12.451 9.10818 10.3333 9.33334L16.3333 7.33334Z" fill="#29C78E"/>
<path d="M16.3333 7.33334C14.5215 8.44593 12.451 9.10818 10.3333 9.33334" stroke="white" stroke-width="1.5" stroke-miterlimit="10" stroke-linecap="round" stroke-linejoin="round"/>
<path d="M1.66669 7.33334C3.49596 8.44929 5.561 9.1232 7.66669 9.33334L1.66669 7.33334Z" fill="#29C78E"/>
<path d="M1.66669 7.33334C3.49596 8.44929 5.561 9.1232 7.66669 9.33334" stroke="white" stroke-width="1.5" stroke-miterlimit="10" stroke-linecap="round" stroke-linejoin="round"/>
</svg>
