<svg width="48" height="48" viewBox="0 0 48 48" fill="none" xmlns="http://www.w3.org/2000/svg">
<circle cx="24" cy="24" r="24" fill="#19B3BD"/>
<mask id="mask0_1007_453056" style="mask-type:alpha" maskUnits="userSpaceOnUse" x="0" y="0" width="48" height="48">
<circle cx="24" cy="24" r="24" fill="#19B3BD"/>
</mask>
<g mask="url(#mask0_1007_453056)">
<path d="M41.6947 20.718L28.2295 37.73C27.9957 38.0265 27.5738 38.094 27.258 37.8867C23.3345 35.3097 13.9447 28.8733 11.3737 27.1099C11.0193 26.8664 10.9518 26.3722 11.2278 26.0419L24.5749 10.0942C24.8063 9.81819 25.2041 9.75189 25.5114 9.93872L41.5018 19.644C41.8767 19.8706 41.9671 20.3745 41.6947 20.718Z" fill="#2F3545"/>
<path d="M38.4234 18.7039L28.1175 37.7951C27.9379 38.1278 27.5353 38.2676 27.1882 38.1181C22.8766 36.2619 12.5116 31.5539 9.67417 30.263C9.28363 30.0846 9.13055 29.6097 9.34511 29.2373L19.7185 11.2139C19.8981 10.9018 20.2778 10.768 20.6141 10.8981L38.0473 17.6793C38.4559 17.8384 38.6319 18.3182 38.4246 18.7039H38.4234Z" fill="#D0D5F4"/>
<path d="M34.8507 17.2894L28.0162 37.88C27.8969 38.238 27.5244 38.4466 27.158 38.3598C22.5897 37.281 11.5642 34.4436 8.54594 33.665C8.13009 33.5577 7.89745 33.1154 8.0433 32.7116L15.1297 13.1611C15.2526 12.8224 15.6034 12.6247 15.9565 12.6947L34.3022 16.3456C34.7313 16.4312 34.9893 16.8735 34.8507 17.2894Z" fill="url(#paint0_linear_1007_453056)"/>
<g filter="url(#filter0_d_1007_453056)">
<path d="M16.8979 23.7412L18.9832 24.955L14.5269 26.358L12.4417 25.1442L16.8979 23.7412Z" fill="#24ACBA"/>
<path d="M17.0474 22.8518C16.9558 23.1519 16.9064 23.4497 16.8979 23.7414L12.4417 25.1444C12.3296 24.068 12.4321 22.9278 12.7804 21.7887C14.0364 17.6725 18.037 15.0497 21.8628 15.744L20.449 20.3761C18.9893 20.2543 17.5271 21.2849 17.0486 22.853L17.0474 22.8518Z" fill="#4ADFDF"/>
<path d="M19.0242 24.5355C19.2713 22.8806 20.819 21.4451 22.533 21.5909C22.4559 21.5535 20.2645 20.2024 20.2296 20.3675C18.442 20.3518 16.9413 21.9959 16.8967 23.7424L18.982 24.9562C18.9856 24.8152 19.0025 24.6741 19.023 24.5343L19.0242 24.5355Z" fill="#1F96A1"/>
<path d="M21.8616 15.7432L23.9469 16.9581L22.533 21.5902L20.4478 20.3765L21.8616 15.7432Z" fill="#177CA9"/>
<path d="M20.1452 27.4797C20.1271 27.4665 20.1114 27.4532 20.0945 27.44C20.0439 27.4014 19.9945 27.3616 19.9475 27.3206C19.9222 27.2977 19.8981 27.2748 19.8739 27.2519C19.8366 27.2158 19.7992 27.1796 19.7643 27.1422C19.7353 27.1121 19.7076 27.0796 19.6811 27.047C19.6437 27.0036 19.6064 26.9602 19.5726 26.9144C19.5654 26.9048 19.5581 26.8951 19.5509 26.8855C19.5051 26.8228 19.4629 26.7589 19.4231 26.6927C19.4111 26.6734 19.4002 26.6541 19.3894 26.6348C19.3556 26.5757 19.3231 26.5155 19.293 26.4552C19.2857 26.4407 19.2785 26.4275 19.2725 26.413C19.2472 26.3576 19.2243 26.3009 19.2014 26.2443C19.1905 26.2165 19.1772 26.1888 19.1664 26.1599C19.1351 26.0743 19.1085 25.9875 19.0844 25.8983L16.9991 24.6846C17.022 24.7738 17.0498 24.8605 17.0811 24.9461C17.092 24.9751 17.104 25.0016 17.1149 25.0293C17.1354 25.0811 17.1546 25.133 17.1775 25.1824C17.18 25.1884 17.1836 25.1932 17.186 25.1992C17.192 25.2137 17.2004 25.227 17.2065 25.2402C17.2366 25.3017 17.2691 25.362 17.3029 25.421C17.3137 25.4403 17.3246 25.4596 17.3366 25.4777C17.3451 25.4921 17.3535 25.5078 17.362 25.5211C17.3945 25.5717 17.4283 25.6211 17.4644 25.6693C17.4716 25.679 17.4789 25.6886 17.4861 25.6983C17.503 25.7212 17.5199 25.7441 17.5367 25.7658C17.5548 25.7887 17.5753 25.8091 17.5946 25.8308C17.6223 25.8634 17.6488 25.8947 17.6778 25.9261C17.6886 25.9381 17.6995 25.9514 17.7103 25.9634C17.7344 25.9887 17.7609 26.0116 17.7862 26.0357C17.8104 26.0586 17.8345 26.0828 17.8598 26.1057C17.8682 26.1141 17.8767 26.1225 17.8851 26.1298C17.9237 26.1635 17.9646 26.1936 18.0056 26.225C18.0225 26.2382 18.0394 26.2527 18.0575 26.2648C18.0611 26.2672 18.0635 26.2696 18.0671 26.272C18.1286 26.3166 18.1925 26.3576 18.2575 26.3961C18.2648 26.401 18.272 26.4046 18.2792 26.4082L20.3645 27.622C20.2874 27.5774 20.2139 27.5279 20.1427 27.4773L20.1452 27.4797Z" fill="#1255DC"/>
<path d="M26.7554 30.4833L24.6701 29.2695C24.646 29.2924 24.6219 29.3141 24.5965 29.3358C24.517 29.4081 24.4374 29.4805 24.3555 29.5492C24.3434 29.56 24.3314 29.5709 24.3181 29.5817C24.2301 29.6564 24.1397 29.7288 24.0493 29.7999C24.0228 29.8204 23.9963 29.8409 23.9685 29.8613C23.9348 29.8867 23.9023 29.912 23.8685 29.9361C23.836 29.9602 23.8034 29.9831 23.7709 30.0072C23.7371 30.0313 23.7034 30.0554 23.6684 30.0795C23.6359 30.1024 23.6021 30.1253 23.5696 30.147C23.5346 30.1699 23.4997 30.194 23.4647 30.2157C23.431 30.2374 23.3972 30.2591 23.3647 30.2808C23.3297 30.3025 23.2947 30.3254 23.2586 30.3471C23.2309 30.364 23.2019 30.3808 23.173 30.3977C23.079 30.4544 22.9838 30.5086 22.8885 30.5604C22.8837 30.5629 22.8801 30.5653 22.8753 30.5677C22.7825 30.6183 22.6884 30.6653 22.5944 30.7123C22.5715 30.7244 22.5474 30.7352 22.5245 30.7461C22.4269 30.7931 22.3292 30.8377 22.2304 30.8811C22.2196 30.8859 22.2075 30.8907 22.1967 30.8955C22.1063 30.9341 22.0146 30.9715 21.923 31.0064C21.9001 31.0149 21.876 31.0245 21.8531 31.0329C21.7531 31.0703 21.6518 31.1065 21.5506 31.139C21.5349 31.1438 21.518 31.1486 21.5012 31.1547C21.4108 31.1836 21.3204 31.2101 21.23 31.2354C21.2071 31.2415 21.1842 31.2487 21.1612 31.2547C21.0588 31.2824 20.9563 31.3077 20.8527 31.3319C20.8322 31.3367 20.8129 31.3403 20.7924 31.3451C20.702 31.3644 20.6104 31.3825 20.5188 31.3994C20.4971 31.403 20.4766 31.4078 20.4549 31.4114C20.3512 31.4295 20.2464 31.4439 20.1415 31.4572C20.1186 31.4596 20.0969 31.462 20.074 31.4644C19.9812 31.4753 19.8884 31.4837 19.7956 31.491C19.7763 31.4922 19.7582 31.4946 19.7389 31.4958C19.6328 31.503 19.528 31.5078 19.4219 31.5102C19.3978 31.5102 19.3737 31.5102 19.3496 31.5102C19.2544 31.5114 19.1579 31.5102 19.0627 31.509C19.0482 31.509 19.0326 31.509 19.0181 31.509C18.912 31.5054 18.8048 31.4994 18.6987 31.491C18.6734 31.4885 18.6481 31.4861 18.6227 31.4837C18.5227 31.4753 18.4227 31.4644 18.3226 31.45C18.313 31.4488 18.3045 31.4476 18.2949 31.4464C18.1876 31.4319 18.0803 31.4138 17.9743 31.3933C17.9489 31.3885 17.9224 31.3837 17.8971 31.3789C17.7898 31.3572 17.6814 31.3343 17.5741 31.3077C16.9473 31.1511 16.3651 30.9124 15.8359 30.6038L17.9212 31.8176C18.4504 32.1262 19.0326 32.3648 19.6594 32.5215C19.7666 32.548 19.8739 32.5709 19.9824 32.5926C20.0077 32.5975 20.0342 32.6023 20.0595 32.6071C20.1668 32.6276 20.2729 32.6457 20.3802 32.6601C20.3898 32.6613 20.3983 32.6625 20.4079 32.6637C20.5079 32.677 20.608 32.6878 20.708 32.6975C20.7333 32.6999 20.7587 32.7023 20.784 32.7047C20.89 32.7132 20.9973 32.7192 21.1034 32.7228C21.1179 32.7228 21.1335 32.7228 21.148 32.7228C21.2432 32.7252 21.3396 32.7252 21.4349 32.724C21.459 32.724 21.4831 32.724 21.5072 32.724C21.6133 32.7216 21.7193 32.7168 21.8242 32.7095C21.8435 32.7083 21.8616 32.7059 21.8809 32.7047C21.9737 32.6975 22.0665 32.6891 22.1593 32.6782C22.1822 32.6758 22.2039 32.6734 22.2268 32.671C22.3317 32.6577 22.4365 32.642 22.5402 32.6252C22.5619 32.6216 22.5824 32.6179 22.6041 32.6131C22.6957 32.5962 22.7861 32.5782 22.8777 32.5589C22.897 32.5541 22.9175 32.5504 22.938 32.5456C23.0416 32.5227 23.1441 32.4962 23.2465 32.4685C23.2694 32.4625 23.2923 32.4552 23.3152 32.4492C23.4056 32.4239 23.496 32.3962 23.5864 32.3672C23.6033 32.3624 23.619 32.3576 23.6359 32.3516C23.7371 32.3178 23.8384 32.2829 23.9384 32.2455C23.9613 32.2371 23.9854 32.2274 24.0083 32.219C24.0999 32.184 24.1915 32.1467 24.2819 32.1081C24.2928 32.1033 24.3036 32.0984 24.3157 32.0936C24.4145 32.0502 24.5122 32.0056 24.6098 31.9586C24.6327 31.9478 24.6568 31.9357 24.6797 31.9249C24.7737 31.8779 24.8678 31.8309 24.9606 31.7802C24.9654 31.7778 24.969 31.7754 24.9738 31.773C25.0703 31.7212 25.1643 31.6657 25.2583 31.6103C25.2691 31.6031 25.2812 31.597 25.2932 31.591C25.3101 31.5802 25.327 31.5693 25.3439 31.5597C25.3788 31.538 25.4138 31.5163 25.4487 31.4946C25.4825 31.4729 25.5162 31.4512 25.55 31.4295C25.5849 31.4066 25.6199 31.3837 25.6537 31.3608C25.6874 31.3379 25.7199 31.3162 25.7525 31.2933C25.7862 31.2692 25.8212 31.2451 25.8549 31.221C25.8875 31.1981 25.92 31.174 25.9526 31.1498C25.9863 31.1257 26.0189 31.1004 26.0526 31.0751C26.0707 31.0619 26.0876 31.0486 26.1057 31.0353C26.1153 31.0281 26.1237 31.0197 26.1334 31.0124C26.2238 30.9413 26.3142 30.869 26.4022 30.7943C26.4142 30.7834 26.4263 30.7726 26.4396 30.7629C26.5215 30.693 26.6011 30.6219 26.6806 30.5484C26.6903 30.5387 26.7011 30.5303 26.7108 30.5207C26.7252 30.5074 26.7385 30.4941 26.7529 30.4809L26.7554 30.4833Z" fill="#1F2F97"/>
<path d="M21.6675 26.0293L23.7528 27.2431L26.7553 30.483L24.6701 29.2692L21.6675 26.0293Z" fill="#1255DC"/>
<path d="M18.9832 26.6953C19.9246 26.9303 20.9093 26.6519 21.6675 26.0287L24.6701 29.2687C22.7451 31.0803 20.0969 31.9373 17.5753 31.3081C14.9862 30.662 13.1721 28.6106 12.5947 26.0709L17.0003 24.6836C17.2559 25.6611 17.9755 26.4422 18.9844 26.6941L18.9832 26.6953Z" fill="#329EE9"/>
<path d="M29.4711 25.2686C30.0051 20.7836 27.8198 18.4295 24.0361 16.542C28.2573 18.9575 28.4092 25.1456 25.3428 28.5616L27.428 29.7753C28.5105 28.5025 29.2301 26.9223 29.4711 25.2674V25.2686Z" fill="#D34AA5"/>
<path d="M22.7247 15.959C26.4035 17.1354 28.3489 21.2407 27.093 25.3569C26.7229 26.5683 26.1142 27.6531 25.3428 28.5607L22.3318 25.3099C22.5427 25.0062 22.7126 24.6639 22.826 24.2926C23.3045 22.7257 22.6343 21.1636 21.312 20.5911L22.7259 15.959H22.7247Z" fill="#F98ED1"/>
</g>
</g>
<defs>
<filter id="filter0_d_1007_453056" x="6.72832" y="12.7928" width="39.8326" height="39.7718" filterUnits="userSpaceOnUse" color-interpolation-filters="sRGB">
<feFlood flood-opacity="0" result="BackgroundImageFix"/>
<feColorMatrix in="SourceAlpha" type="matrix" values="0 0 0 0 0 0 0 0 0 0 0 0 0 0 0 0 0 0 127 0" result="hardAlpha"/>
<feOffset dx="5.67" dy="8.5"/>
<feGaussianBlur stdDeviation="5.67"/>
<feColorMatrix type="matrix" values="0 0 0 0 0.12549 0 0 0 0 0.160784 0 0 0 0 0.356863 0 0 0 0.47 0"/>
<feBlend mode="normal" in2="BackgroundImageFix" result="effect1_dropShadow_1007_453056"/>
<feBlend mode="normal" in="SourceGraphic" in2="effect1_dropShadow_1007_453056" result="shape"/>
</filter>
<linearGradient id="paint0_linear_1007_453056" x1="16.1687" y1="13.2744" x2="27.2189" y2="37.8586" gradientUnits="userSpaceOnUse">
<stop offset="0.04" stop-color="white"/>
<stop offset="0.49" stop-color="#E0E6FF"/>
<stop offset="1" stop-color="#F8F9FF"/>
</linearGradient>
</defs>
</svg>
