<svg width="48" height="48" viewBox="0 0 48 48" fill="none" xmlns="http://www.w3.org/2000/svg">
<circle cx="24" cy="24" r="24" fill="#63BDFF"/>
<mask id="mask0_1056_492064" style="mask-type:alpha" maskUnits="userSpaceOnUse" x="0" y="0" width="48" height="48">
<circle cx="24" cy="24" r="24" fill="#63BDFF"/>
</mask>
<g mask="url(#mask0_1056_492064)">
<path d="M20.1915 25.0037V23.293H28.1233V25.0037C27.8272 27.6805 28.6046 29.6912 29.888 30.6373C31.1637 31.5788 32.6415 32.0065 32.6415 32.0065C31.5895 36.214 23.363 35.594 23.363 35.594C17.8623 35.7202 16.2009 32.0065 16.2009 32.0065C17.5738 31.7711 18.3034 30.985 18.9328 30.3265C20.6111 28.5666 20.19 25.0037 20.19 25.0037H20.1915Z" fill="url(#paint0_radial_1056_492064)"/>
<path d="M15.5761 17.8879C15.0578 18.8494 15.4958 20.5847 16.8425 20.9909C17.8652 21.2678 18.4606 20.7739 18.9789 19.8124C19.4988 18.8494 19.0761 17.9048 18.1274 17.2741C17.0307 16.6218 16.0944 16.9264 15.5761 17.8894V17.8879Z" fill="url(#paint1_radial_1056_492064)"/>
<path d="M32.663 17.8879C33.1813 18.8494 32.7432 20.5847 31.3966 20.9909C30.3739 21.2678 29.78 20.7739 29.2601 19.8124C28.7403 18.8494 29.163 17.9048 30.1116 17.2741C31.2084 16.6218 32.1432 16.9264 32.663 17.8894V17.8879Z" fill="url(#paint2_radial_1056_492064)"/>
<path d="M17.1866 18.6674C17.1866 22.5919 19.6393 26.6717 24.1235 26.6717C28.5228 26.6717 31.0619 22.5919 31.0619 18.6674V16.9506C31.0619 13.0261 27.9552 9.84473 24.1235 9.84473C20.2918 9.84473 17.1866 13.0261 17.1866 16.9506V18.6674Z" fill="url(#paint3_radial_1056_492064)"/>
<path d="M26.2784 13.6904C26.2784 13.6904 24.1111 11.6689 22.6179 11.7797C21.4286 11.7627 21.0121 12.2596 20.8578 12.4858C19.5945 14.3134 17.7002 15.8687 17.2853 16.4841C17.1727 17.261 16.5263 16.9271 16.3042 15.8041C16.3042 15.8041 15.4789 10.4366 18.9435 8.93208C20.5971 7.27984 23.8118 6.84448 26.6115 7.58445C27.0157 7.6906 32.8759 8.29057 32.0089 15.8103C32.0089 15.8103 31.847 17.621 30.9615 16.4041C30.3476 16.4364 29.6118 16.2333 29.038 15.741C27.153 14.7888 26.2814 13.6904 26.2814 13.6904H26.2784Z" fill="url(#paint4_linear_1056_492064)"/>
<path d="M25.7724 18.1196C25.7724 18.5073 25.9992 18.8242 26.2784 18.8242C26.5576 18.8242 26.7859 18.5088 26.7859 18.1196C26.7859 17.7304 26.5591 17.415 26.2784 17.415C25.9976 17.415 25.7724 17.7304 25.7724 18.1196Z" fill="url(#paint5_radial_1056_492064)"/>
<path opacity="0.3" d="M26.2783 17.9118C26.2783 18.0256 26.3524 18.1195 26.4434 18.1195C26.5344 18.1195 26.61 18.0272 26.61 17.9118C26.61 17.7964 26.5359 17.7041 26.4434 17.7041C26.3508 17.7041 26.2783 17.7964 26.2783 17.9118Z" fill="white"/>
<path d="M21.4286 18.1196C21.4286 18.5073 21.6553 18.8242 21.9345 18.8242C22.2137 18.8242 22.442 18.5088 22.442 18.1196C22.442 17.7304 22.2137 17.415 21.9345 17.415C21.6553 17.415 21.4286 17.7304 21.4286 18.1196Z" fill="url(#paint6_radial_1056_492064)"/>
<path opacity="0.3" d="M21.9345 17.9118C21.9345 18.0256 22.01 18.1195 22.0995 18.1195C22.189 18.1195 22.2661 18.0272 22.2661 17.9118C22.2661 17.7964 22.1936 17.7041 22.0995 17.7041C22.0054 17.7041 21.9345 17.7964 21.9345 17.9118Z" fill="white"/>
<path d="M23.4216 19.2068C23.346 19.8021 23.4216 20.296 24.1173 20.296C24.6741 20.296 24.8886 19.8021 24.813 19.2068C24.7343 18.5945 24.5014 18.1191 24.1173 18.1191C23.7332 18.1191 23.5003 18.5945 23.4216 19.2068Z" fill="url(#paint7_radial_1056_492064)"/>
<path d="M24.0525 21.8331H24.0556C25.0968 21.8331 25.5627 21.3347 25.5812 21.3131C25.6383 21.25 25.6336 21.1531 25.5704 21.0962C25.5071 21.0393 25.41 21.0439 25.3529 21.1054C25.3359 21.1239 24.9472 21.5254 24.0541 21.5254H24.051C23.8026 21.5254 23.1193 21.4531 22.8848 21.1208C22.8354 21.0516 22.7398 21.0347 22.6704 21.0839C22.601 21.1331 22.584 21.2285 22.6334 21.2977C23.0051 21.8223 23.9831 21.8316 24.0541 21.8316L24.0525 21.8331Z" fill="#C65750"/>
<path d="M4.98651 37.6251C6.85454 34.133 9.98593 32.5499 10.8158 32.1623C11.3881 31.8069 16.7963 29.7362 16.7963 29.7362C17.347 29.4731 17.8792 29.1932 18.1167 28.9932C18.1167 28.9932 20.9257 30.0439 24.0031 30.1639C27.0805 30.0439 29.8895 28.9932 29.8895 28.9932C30.1255 29.1916 30.6577 29.4716 31.2099 29.7362C31.2099 29.7362 36.6181 31.8069 37.1904 32.1623C38.0218 32.5499 41.1517 34.1345 43.0197 37.6251C43.0197 37.6251 48.4495 48.9247 48.4464 55.1044C48.4464 55.1044 47.9636 60.8519 41.9955 65.0825L38.7314 62.1995V58.5058C38.9289 58.1089 39.1155 57.6889 39.2667 57.2628C39.2667 57.2628 39.8852 56.5336 38.7314 53.8091V58.5043C39.2821 59.9104 38.7314 60.8073 38.7314 60.8073V70.1915H25.0289C24.6309 70.1915 24.2916 70.1546 24.0016 70.09C23.7116 70.1546 23.3722 70.1915 22.9742 70.1915H9.27172V62.198L6.00768 65.0809C0.0395432 60.8503 -0.443275 55.1029 -0.443275 55.1029C-0.446358 48.9231 4.98343 37.6236 4.98343 37.6236L4.98651 37.6251ZM8.73955 57.2628C8.88918 57.6889 9.07582 58.1089 9.27327 58.5058V53.8106C8.11944 56.5351 8.73955 57.2643 8.73955 57.2643V57.2628Z" fill="url(#paint8_linear_1056_492064)"/>
<path d="M25.1076 33.1787H23.0884L21.8528 47.0212L23.8535 53.7579L26.1704 47.3597L25.1076 33.1787Z" fill="url(#paint9_linear_1056_492064)"/>
<path d="M24.6402 30.3047H23.5543L22.2554 31.88C22.2554 31.88 22.7598 32.9646 23.0036 33.4553H25.1739C25.1739 33.4553 25.848 32.3708 25.9036 31.88L24.6402 30.3047Z" fill="url(#paint10_linear_1056_492064)"/>
<path d="M24.1373 30.2139C24.1373 30.2139 23.0159 32.0261 22.6349 32.6722C22.6349 32.6722 22.004 33.866 20.9628 32.9522C20.9628 32.9522 18.5271 30.8138 17.7882 29.7047L19.5822 27.5586C19.5822 27.5586 23.3645 29.8893 24.1373 30.2139Z" fill="url(#paint11_linear_1056_492064)"/>
<path d="M24.1373 30.2139C24.1373 30.2139 25.2572 32.0261 25.6382 32.6722C25.6382 32.6722 26.2691 33.866 27.3103 32.9522C27.3103 32.9522 29.7444 30.8138 30.4849 29.7047L28.6909 27.5586C28.6909 27.5586 24.9085 29.8893 24.1357 30.2139H24.1373Z" fill="url(#paint12_linear_1056_492064)"/>
<path d="M21.1186 20.1561C21.7063 20.1561 22.1861 20.0223 22.2061 20.0177C23.6083 19.3962 23.5312 17.6239 23.5296 17.6055C23.5759 17.0501 23.3029 16.8347 23.2905 16.8255C22.7198 16.5148 22.0272 16.3594 21.2204 16.3594C20.1499 16.3594 19.246 16.6394 19.2367 16.6424L19.2228 16.6486C18.7539 16.9101 18.8758 17.6824 18.8819 17.7147C19.1118 19.6054 19.8661 19.8946 19.9648 19.9238C20.2795 20.0777 20.6667 20.1561 21.1171 20.1561H21.1186ZM22.1537 19.8731C22.1537 19.8731 21.6786 20.0023 21.1186 20.0023C20.6898 20.0023 20.3227 19.9285 20.028 19.7823L20.0126 19.7762C20.0126 19.7762 19.2629 19.5562 19.0362 17.6916C19.0362 17.6809 18.9267 16.9993 19.2938 16.7855C19.3833 16.7594 20.2286 16.5117 21.2235 16.5117C22.0025 16.5117 22.6704 16.6594 23.2088 16.9532C23.2088 16.9532 23.417 17.1255 23.3785 17.6024C23.3785 17.6301 23.451 19.2977 22.1568 19.8731H22.1537Z" fill="#2A2F38"/>
<path d="M19.8322 16.5771C19.8322 16.5771 17.2515 16.6341 16.7717 16.6525C16.7717 16.6525 16.565 16.6125 16.6823 16.8202L18.8958 17.3787C18.8958 17.3787 18.939 16.5879 19.8322 16.5771Z" fill="#2A2F38"/>
<path d="M28.421 16.5771C28.421 16.5771 31.0017 16.6341 31.4815 16.6525C31.4815 16.6525 31.6882 16.6125 31.5694 16.8202L29.3558 17.3787C29.3558 17.3787 29.3111 16.5879 28.4195 16.5771H28.421Z" fill="#2A2F38"/>
<path d="M27.1793 20.1561C27.6297 20.1561 28.0169 20.0777 28.3316 19.9238C28.4303 19.8946 29.1846 19.6054 29.416 17.7116C29.4206 17.6824 29.5425 16.9101 29.0736 16.6486L29.0597 16.6424C29.0504 16.6394 28.1465 16.3594 27.076 16.3594C26.2707 16.3594 25.5781 16.5148 25.0166 16.8194C24.9951 16.8347 24.7205 17.0501 24.7683 17.6162C24.7683 17.6239 24.6896 19.3962 26.081 20.0146C26.1119 20.0238 26.5916 20.1577 27.1793 20.1577V20.1561ZM29.0057 16.787C29.3713 16.9993 29.2648 17.6824 29.2633 17.6901C29.0365 19.5562 28.293 19.7762 28.2853 19.7777L28.2699 19.7839C27.9753 19.93 27.6081 20.0038 27.1793 20.0038C26.6132 20.0038 26.1381 19.8715 26.1335 19.8715C24.8485 19.3008 24.921 17.6332 24.9226 17.6162C24.8824 17.1301 25.0922 16.9578 25.1015 16.9501C25.629 16.664 26.297 16.5163 27.076 16.5163C28.0709 16.5163 28.9162 16.7624 29.0057 16.7901V16.787Z" fill="#2A2F38"/>
<path d="M23.4541 17.3786H24.9196V17.0586H23.3708L23.4541 17.3786Z" fill="#2A2F38"/>
<g filter="url(#filter0_d_1056_492064)">
</g>
</g>
<defs>
<filter id="filter0_d_1056_492064" x="8.31127" y="44.8391" width="34.7745" height="22.5153" filterUnits="userSpaceOnUse" color-interpolation-filters="sRGB">
<feFlood flood-opacity="0" result="BackgroundImageFix"/>
<feColorMatrix in="SourceAlpha" type="matrix" values="0 0 0 0 0 0 0 0 0 0 0 0 0 0 0 0 0 0 127 0" result="hardAlpha"/>
<feOffset dx="1.42" dy="1.42"/>
<feGaussianBlur stdDeviation="2.83"/>
<feColorMatrix type="matrix" values="0 0 0 0 0.741176 0 0 0 0 0.741176 0 0 0 0 0.788235 0 0 0 0.75 0"/>
<feBlend mode="normal" in2="BackgroundImageFix" result="effect1_dropShadow_1056_492064"/>
<feBlend mode="normal" in="SourceGraphic" in2="effect1_dropShadow_1056_492064" result="shape"/>
</filter>
<radialGradient id="paint0_radial_1056_492064" cx="0" cy="0" r="1" gradientUnits="userSpaceOnUse" gradientTransform="translate(24.4018 31.206) rotate(-89.8496) scale(7.85353 7.40225)">
<stop stop-color="#F6DCDB"/>
<stop offset="0.39" stop-color="#EDBDC7"/>
<stop offset="0.7" stop-color="#E4AEAD"/>
<stop offset="0.87" stop-color="#D598A9"/>
<stop offset="0.97" stop-color="#BA7F8C"/>
</radialGradient>
<radialGradient id="paint1_radial_1056_492064" cx="0" cy="0" r="1" gradientUnits="userSpaceOnUse" gradientTransform="translate(17.6039 19.152) rotate(-145.043) scale(2.12659 1.90783)">
<stop stop-color="#BA7F8C"/>
<stop offset="0.28" stop-color="#D598A9"/>
<stop offset="0.5" stop-color="#E4AEAD"/>
<stop offset="0.63" stop-color="#EDBDC7"/>
<stop offset="0.82" stop-color="#F6DCDB"/>
<stop offset="1" stop-color="#D598A9"/>
</radialGradient>
<radialGradient id="paint2_radial_1056_492064" cx="0" cy="0" r="1" gradientUnits="userSpaceOnUse" gradientTransform="translate(25.9719 22.7785) rotate(-34.9574) scale(2.12659 1.90783)">
<stop stop-color="#BA7F8C"/>
<stop offset="0.28" stop-color="#D598A9"/>
<stop offset="0.5" stop-color="#E4AEAD"/>
<stop offset="0.63" stop-color="#EDBDC7"/>
<stop offset="0.82" stop-color="#F6DCDB"/>
<stop offset="1" stop-color="#D598A9"/>
</radialGradient>
<radialGradient id="paint3_radial_1056_492064" cx="0" cy="0" r="1" gradientUnits="userSpaceOnUse" gradientTransform="translate(24.1463 17.3295) rotate(180) scale(7.11928 9.00324)">
<stop offset="0.2" stop-color="#F6DCDB"/>
<stop offset="0.39" stop-color="#EDBDC7"/>
<stop offset="0.7" stop-color="#E4AEAD"/>
<stop offset="0.87" stop-color="#D598A9"/>
<stop offset="0.97" stop-color="#BA7F8C"/>
</radialGradient>
<linearGradient id="paint4_linear_1056_492064" x1="16.2178" y1="12.072" x2="32.0953" y2="12.072" gradientUnits="userSpaceOnUse">
<stop stop-color="#482934"/>
<stop offset="0.37" stop-color="#684334"/>
<stop offset="0.6" stop-color="#684334"/>
<stop offset="0.81" stop-color="#4C2C30"/>
<stop offset="0.99" stop-color="#462530"/>
</linearGradient>
<radialGradient id="paint5_radial_1056_492064" cx="0" cy="0" r="1" gradientUnits="userSpaceOnUse" gradientTransform="translate(26.7853 18.1847) rotate(180) scale(0.632569 0.788584)">
<stop stop-color="#584D4E"/>
<stop offset="0.51" stop-color="#362122"/>
<stop offset="1" stop-color="#07070B"/>
</radialGradient>
<radialGradient id="paint6_radial_1056_492064" cx="0" cy="0" r="1" gradientUnits="userSpaceOnUse" gradientTransform="translate(22.417 77.9665) rotate(180) scale(0.632569 0.788584)">
<stop stop-color="#584D4E"/>
<stop offset="0.51" stop-color="#362122"/>
<stop offset="1" stop-color="#07070B"/>
</radialGradient>
<radialGradient id="paint7_radial_1056_492064" cx="0" cy="0" r="1" gradientUnits="userSpaceOnUse" gradientTransform="translate(24.1103 19.1459) rotate(180) scale(1.05039 1.63073)">
<stop offset="0.17" stop-color="#F6D9D6"/>
<stop offset="0.48" stop-color="#EDB4B3"/>
<stop offset="0.68" stop-color="#E4A6A5"/>
<stop offset="0.87" stop-color="#D09392"/>
<stop offset="1" stop-color="#C17E70"/>
</radialGradient>
<linearGradient id="paint8_linear_1056_492064" x1="48.448" y1="49.5923" x2="-0.440186" y2="49.5923" gradientUnits="userSpaceOnUse">
<stop stop-color="#F9F3F8"/>
<stop offset="0.28" stop-color="#F5F7F7"/>
<stop offset="0.56" stop-color="#F5F7F7"/>
<stop offset="0.72" stop-color="#E4E2E8"/>
<stop offset="1" stop-color="#D3CFD5"/>
</linearGradient>
<linearGradient id="paint9_linear_1056_492064" x1="26.1704" y1="43.4675" x2="21.8528" y2="43.4675" gradientUnits="userSpaceOnUse">
<stop stop-color="#E78184"/>
<stop offset="0.51" stop-color="#E26E69"/>
<stop offset="1" stop-color="#D85645"/>
</linearGradient>
<linearGradient id="paint10_linear_1056_492064" x1="25.9036" y1="31.8815" x2="22.257" y2="31.8815" gradientUnits="userSpaceOnUse">
<stop stop-color="#E78184"/>
<stop offset="0.51" stop-color="#E26E69"/>
<stop offset="1" stop-color="#D85645"/>
</linearGradient>
<linearGradient id="paint11_linear_1056_492064" x1="21.7201" y1="28.937" x2="19.7746" y2="31.8633" gradientUnits="userSpaceOnUse">
<stop stop-color="white"/>
<stop offset="1" stop-color="#EAE3EB"/>
</linearGradient>
<linearGradient id="paint12_linear_1056_492064" x1="26.556" y1="28.9385" x2="28.5016" y2="31.8633" gradientUnits="userSpaceOnUse">
<stop stop-color="white"/>
<stop offset="1" stop-color="#EAE3EB"/>
</linearGradient>
</defs>
</svg>
