<svg width="48" height="48" viewBox="0 0 48 48" fill="none" xmlns="http://www.w3.org/2000/svg">
<circle cx="24" cy="24" r="24" fill="#4AD4FF"/>
<mask id="mask0_1056_491498" style="mask-type:alpha" maskUnits="userSpaceOnUse" x="0" y="0" width="48" height="48">
<circle cx="24" cy="24" r="24" fill="#D9D9D9"/>
</mask>
<g mask="url(#mask0_1056_491498)">
<path d="M27.6627 27.0605C27.6627 27.0605 27.0895 26.5687 25.3053 26.4739C25.3053 26.4739 20.2612 25.983 18.6592 27.0605L20.1131 27.9569L26.7858 27.6866L27.6618 27.0605H27.6627Z" fill="#7A8287"/>
<path d="M26.9764 23.6996V22.0645H19.3328V23.6996C19.6185 26.2583 18.8697 28.1787 17.6312 29.0835C16.4022 29.9828 14.9777 30.392 14.9777 30.392C15.9912 34.4122 23.9195 33.8199 23.9195 33.8199C29.2199 33.94 30.821 30.392 30.821 30.392C29.498 30.1677 28.7948 29.4158 28.1883 28.786C26.5702 27.1049 26.9764 23.6996 26.9764 23.6996Z" fill="url(#paint0_radial_1056_491498)"/>
<path d="M31.1968 17.3609C31.6808 18.2799 31.2718 19.9384 30.0134 20.3251C29.0586 20.5898 28.5015 20.1177 28.0175 19.1988C27.5326 18.2789 27.9264 17.376 28.8128 16.7734C29.8378 16.1501 30.7119 16.4411 31.1968 17.3609Z" fill="url(#paint1_radial_1056_491498)"/>
<path d="M15.0775 17.3609C14.5935 18.2799 15.0025 19.9384 16.261 20.3251C17.2157 20.5898 17.7728 20.1177 18.2568 19.1988C18.7418 18.2789 18.3479 17.376 17.4615 16.7734C16.4375 16.1501 15.5625 16.4411 15.0775 17.3609Z" fill="url(#paint2_radial_1056_491498)"/>
<path d="M29.6918 17.6427C29.6918 21.3934 27.3998 25.2916 23.2098 25.2916C19.0986 25.2916 16.726 21.3925 16.726 17.6427V16.0019C16.726 12.2512 19.6291 9.21094 23.2098 9.21094C26.7896 9.21094 29.6918 12.2512 29.6918 16.0019V17.6427Z" fill="url(#paint3_radial_1056_491498)"/>
<path d="M20.6549 11.1574C20.6549 11.1574 21.5859 9.9897 22.8994 10.9143C24.1161 11.9871 28.6421 14.3112 29.0293 14.8987C29.2912 15.5136 29.6917 16.7901 29.6917 16.7901C29.9489 16.3583 30.1083 15.859 30.3095 14.8471C30.3095 14.8471 31.3943 10.1361 27.4434 8.67655C25.8974 7.09778 22.0386 6.15539 20.654 8.06269C19.1867 8.13027 15.756 8.67749 16.1166 14.7073C16.1166 14.7073 16.2922 15.798 16.724 16.3161C16.8388 15.6553 17.1567 14.7673 17.3579 14.4294C18.0953 14.0709 20.653 11.1583 20.653 11.1583L20.6549 11.1574Z" fill="url(#paint4_linear_1056_491498)"/>
<path d="M23.8645 16.6295C23.9376 17.0847 23.8645 17.462 23.1945 17.462C22.6574 17.462 22.4514 17.0847 22.5245 16.6295C22.6004 16.162 22.8244 15.7979 23.1945 15.7979C23.5646 15.7979 23.7896 16.162 23.8645 16.6295Z" fill="url(#paint5_radial_1056_491498)"/>
<path d="M41.8698 57.8702C49.1271 58.4494 47.9257 51.2716 47.9257 51.2716C46.3683 44.5172 40.4026 35.4116 40.4026 35.4116C38.3166 31.9086 35.8026 30.8104 34.6334 30.4152C33.1567 29.7957 29.4573 28.8824 29.4573 28.8824C28.9543 28.644 28.3517 28.4244 28.1353 28.2451C28.1353 28.2451 25.8642 29.5554 23.1737 29.716C20.4831 29.5554 17.9207 28.3897 17.9207 28.3897C17.7043 28.5699 17.2118 28.6835 16.7088 28.9228C16.7088 28.9228 12.1107 30.1702 11.5887 30.4922C10.8304 30.8432 7.7821 31.9818 5.95424 35.4989C5.95424 35.4989 -0.369228 44.5182 -1.92566 51.2726C-1.92566 51.2726 -3.12715 58.4503 4.13018 57.8712C4.13018 57.8712 8.07535 57.3202 9.85007 54.8272V59.0003H36.1518V54.8272C37.9265 57.3211 41.8717 57.8712 41.8717 57.8712L41.8698 57.8702Z" fill="url(#paint6_linear_1056_491498)"/>
<path style="mix-blend-mode:multiply" d="M41.8698 57.8697C49.1271 58.4489 47.9257 51.2712 47.9257 51.2712C46.3683 44.5168 40.0458 35.4975 40.0458 35.4975C38.2179 31.9804 35.1696 30.8418 34.4113 30.4908C33.8893 30.1688 29.4573 28.882 29.4573 28.882C28.9543 28.6436 28.5994 28.3648 28.3839 28.1846C28.3839 28.1846 25.6905 29.2734 23 29.4329C20.3095 29.2734 17.9207 28.3883 17.9207 28.3883C17.7043 28.5685 17.2194 28.8219 16.7164 29.0603C16.7164 29.0603 12.1116 30.1679 11.5887 30.4899C10.8304 30.8409 7.7821 31.9795 5.95424 35.4965C5.95424 35.4965 -0.369228 44.5158 -1.92566 51.2702C-1.92566 51.2702 -3.12715 58.4479 4.13018 57.8688C4.13018 57.8688 8.07535 57.3178 9.85007 54.8248V58.998H36.1518V54.8248C37.9265 57.3188 41.8717 57.8688 41.8717 57.8688L41.8698 57.8697Z" fill="url(#paint7_linear_1056_491498)"/>
<path d="M42.4221 46.7493C42.4221 46.7493 44.2689 47.5922 42.7761 49.2939C42.7761 49.2939 44.0488 50.899 42.3936 52.4468C42.3936 52.4468 43.4158 53.7477 41.3952 54.7614C41.3952 54.7614 41.9941 55.5724 40.4225 56.1928C39.8787 56.4078 38.1656 55.8728 36.4602 55.4879C34.285 54.5634 35.1895 53.3854 35.831 53.4173C35.831 53.4173 34.2205 53.2024 34.3258 51.9943C34.3543 51.5316 35.0661 51.2209 36.5741 51.128C36.5741 51.128 33.8902 51.0707 33.8636 49.9556C33.8636 49.9556 33.5258 48.6594 36.558 48.8161C36.558 48.8161 34.2992 48.9832 34.3828 47.5715C34.3828 47.5715 34.1873 46.4695 38.83 46.3316C38.83 46.3316 41.2994 46.1251 42.4231 46.7493H42.4221Z" fill="url(#paint8_linear_1056_491498)"/>
<path d="M22.2389 32.5479H24.1854L25.3755 52.414L23.2288 57.4366L21.0659 52.414L22.2389 32.5479Z" fill="url(#paint9_linear_1056_491498)"/>
<path d="M22.6887 29.8018H23.7345L24.9854 31.3073C24.9854 31.3073 24.4985 32.3436 24.265 32.8129H22.1734C22.1734 32.8129 21.5252 31.7766 21.4711 31.3073L22.6887 29.8018Z" fill="url(#paint10_linear_1056_491498)"/>
<path d="M23.1737 29.715C23.1737 29.715 24.6181 31.2759 24.9864 31.8945C24.9864 31.8945 26.1186 32.8679 27.1217 31.994C27.1217 31.994 28.7389 29.9365 29.4516 28.8768L27.6627 27.0605C27.6627 27.0605 23.9178 29.4052 23.1737 29.715Z" fill="url(#paint11_linear_1056_491498)"/>
<path d="M23.1623 29.715C23.1623 29.715 21.7179 31.2759 21.3496 31.8945C21.3496 31.8945 20.2184 32.8679 19.2143 31.994C19.2143 31.994 17.5971 29.9365 16.8844 28.8768L18.6601 27.0605C18.6601 27.0605 22.4183 29.4052 23.1633 29.715H23.1623Z" fill="url(#paint12_linear_1056_491498)"/>
<path d="M3.5778 46.7493C3.5778 46.7493 1.73096 47.5922 3.22381 49.2939C3.22381 49.2939 1.95114 50.899 3.60532 52.4468C3.60532 52.4468 2.5832 53.7477 4.60371 54.7614C4.60371 54.7614 4.00487 55.5724 5.57648 56.1928C6.12028 56.4078 7.83331 55.8728 9.53874 55.4879C11.7139 54.5634 10.8095 53.3854 10.168 53.4173C10.168 53.4173 11.7785 53.2024 11.6731 51.9943C11.6447 51.5316 10.9329 51.2209 9.42485 51.128C9.42485 51.128 12.1087 51.0707 12.1353 49.9556C12.1353 49.9556 12.4722 48.6594 9.44098 48.8161C9.44098 48.8161 11.6997 48.9832 11.6162 47.5715C11.6162 47.5715 11.8107 46.4695 7.16803 46.3316C7.16803 46.3316 4.69862 46.1251 3.5759 46.7493H3.5778Z" fill="url(#paint13_linear_1056_491498)"/>
<path d="M25.8338 15.9853C25.775 15.9853 25.7162 15.9581 25.6791 15.9065C25.5358 15.7084 25.3062 15.7056 25.3005 15.7056C25.2929 15.7056 25.2843 15.7056 25.2768 15.7047C25.0158 15.6765 24.862 15.8211 24.8554 15.8276C24.7814 15.899 24.6618 15.899 24.5877 15.8267C24.5147 15.7544 24.5128 15.6371 24.5849 15.5639C24.5963 15.5526 24.862 15.287 25.3081 15.3311C25.3868 15.333 25.7513 15.3611 25.9876 15.6887C26.0483 15.7732 26.0293 15.8905 25.9439 15.9506C25.9107 15.9741 25.8718 15.9853 25.8338 15.9853Z" fill="#2D1713"/>
<path d="M20.655 15.9861C20.617 15.9861 20.5781 15.9749 20.5449 15.9514C20.4595 15.8913 20.4395 15.774 20.5012 15.6895C20.7375 15.3619 21.1029 15.3338 21.1807 15.3319C21.6268 15.2887 21.8925 15.5534 21.9039 15.5647C21.977 15.6388 21.976 15.758 21.9001 15.8303C21.8251 15.9026 21.7065 15.9017 21.6334 15.8284C21.6239 15.82 21.4702 15.6783 21.2121 15.7055C21.2045 15.7055 21.1959 15.7064 21.1883 15.7064C21.1807 15.7064 20.952 15.7092 20.8097 15.9073C20.7727 15.9589 20.7138 15.9861 20.655 15.9861Z" fill="#2D1713"/>
<path d="M24.9872 18.1309C24.9872 18.1309 22.2587 18.1515 21.731 18.1337C21.731 18.1337 21.3343 18.0877 21.2546 18.3683C21.2546 18.3683 21.1426 18.6208 21.4084 19.061C21.4084 19.061 21.8838 20.0034 23.3368 19.9912C23.3368 19.9912 25.0014 19.9828 25.2824 18.5795C25.2824 18.5795 25.4266 18.1327 24.9872 18.1309Z" fill="#250000"/>
<path d="M24.9872 18.1308C24.5098 18.1243 21.5925 18.1308 21.5925 18.1308C21.5469 18.1308 21.5289 18.1487 21.527 18.1571C21.4776 18.3843 21.6817 18.435 21.6817 18.435C23.2286 18.7147 24.7376 18.4603 24.7376 18.4603C25.047 18.4293 24.9872 18.1308 24.9872 18.1308Z" fill="#F3ECE4"/>
<path d="M24.6931 19.5407C24.6931 19.5407 24.1825 19.2168 23.242 19.2168C23.242 19.2168 22.2569 19.2093 21.7273 19.4468C21.7273 19.4468 22.2037 19.9921 23.2287 19.9921C23.2287 19.9921 24.2233 20.0109 24.6931 19.5407Z" fill="url(#paint14_radial_1056_491498)"/>
<path d="M21.5412 18.1423C21.5412 18.1423 21.5621 18.1376 21.6608 18.1338C21.6608 18.1338 24.488 18.1057 24.9872 18.1301V18.1995C24.9872 18.1995 22.6564 18.2089 21.5194 18.1995L21.5412 18.1413V18.1423Z" fill="url(#paint15_linear_1056_491498)"/>
<path opacity="0.3" d="M42.3615 20.9288C42.3378 20.9476 42.3036 20.9429 42.2847 20.9194C42.2657 20.8959 42.2704 20.8622 42.2942 20.8434L44.7503 18.9286C44.774 18.9098 44.8082 18.9145 44.8271 18.938C44.8461 18.9614 44.8414 18.9952 44.8177 19.014L42.3615 20.9288Z" fill="white"/>
<path opacity="0.5" d="M20.5894 15.6645C20.5894 15.6645 20.8209 15.3726 21.2062 15.4411C21.2062 15.4411 20.7725 15.5105 20.67 15.7133C20.67 15.7133 20.6226 15.7593 20.5903 15.7321C20.5903 15.7321 20.56 15.703 20.5894 15.6645Z" fill="white"/>
<path opacity="0.5" d="M24.5991 15.6166C24.5991 15.6166 24.8307 15.3247 25.216 15.3932C25.216 15.3932 24.7823 15.4627 24.6798 15.6654C24.6798 15.6654 24.6324 15.7114 24.6001 15.6842C24.6001 15.6842 24.5697 15.6551 24.5991 15.6166Z" fill="white"/>
</g>
<defs>
<radialGradient id="paint0_radial_1056_491498" cx="0" cy="0" r="1" gradientUnits="userSpaceOnUse" gradientTransform="translate(22.9139 29.6261) rotate(-90.1517) scale(7.50436 7.13234)">
<stop stop-color="#F6DCDB"/>
<stop offset="0.39" stop-color="#EDBDC7"/>
<stop offset="0.7" stop-color="#E4AEAD"/>
<stop offset="0.87" stop-color="#D598A9"/>
<stop offset="0.97" stop-color="#BA7F8C"/>
</radialGradient>
<radialGradient id="paint1_radial_1056_491498" cx="0" cy="0" r="1" gradientUnits="userSpaceOnUse" gradientTransform="translate(28.604 18.8185) rotate(-35.5704) scale(2.00139 1.80741)">
<stop stop-color="#BA7F8C"/>
<stop offset="0.28" stop-color="#D598A9"/>
<stop offset="0.5" stop-color="#E4AEAD"/>
<stop offset="0.63" stop-color="#EDBDC7"/>
<stop offset="0.82" stop-color="#F6DCDB"/>
<stop offset="1" stop-color="#D598A9"/>
</radialGradient>
<radialGradient id="paint2_radial_1056_491498" cx="0" cy="0" r="1" gradientUnits="userSpaceOnUse" gradientTransform="translate(16.9185 18.2236) rotate(-144.43) scale(2.00139 1.80741)">
<stop stop-color="#BA7F8C"/>
<stop offset="0.28" stop-color="#D598A9"/>
<stop offset="0.5" stop-color="#E4AEAD"/>
<stop offset="0.63" stop-color="#EDBDC7"/>
<stop offset="0.82" stop-color="#F6DCDB"/>
<stop offset="1" stop-color="#D598A9"/>
</radialGradient>
<radialGradient id="paint3_radial_1056_491498" cx="0" cy="0" r="1" gradientUnits="userSpaceOnUse" gradientTransform="translate(23.1625 15.8999) scale(6.64793 8.60346)">
<stop offset="0.2" stop-color="#F6DCDB"/>
<stop offset="0.39" stop-color="#EDBDC7"/>
<stop offset="0.7" stop-color="#E4AEAD"/>
<stop offset="0.87" stop-color="#D598A9"/>
<stop offset="0.97" stop-color="#BA7F8C"/>
</radialGradient>
<linearGradient id="paint4_linear_1056_491498" x1="30.4462" y1="11.8961" x2="16.091" y2="11.8961" gradientUnits="userSpaceOnUse">
<stop stop-color="#482934"/>
<stop offset="0.37" stop-color="#684334"/>
<stop offset="0.6" stop-color="#684334"/>
<stop offset="0.81" stop-color="#4C2C30"/>
<stop offset="0.99" stop-color="#462530"/>
</linearGradient>
<radialGradient id="paint5_radial_1056_491498" cx="0" cy="0" r="1" gradientUnits="userSpaceOnUse" gradientTransform="translate(23.1796 16.4753) scale(1.01263 1.24932)">
<stop offset="0.17" stop-color="#F6D9D6"/>
<stop offset="0.48" stop-color="#EDB4B3"/>
<stop offset="0.68" stop-color="#E4A6A5"/>
<stop offset="0.87" stop-color="#D09392"/>
<stop offset="1" stop-color="#C17E70"/>
</radialGradient>
<linearGradient id="paint6_linear_1056_491498" x1="-2.00063" y1="43.6218" x2="48.0006" y2="43.6218" gradientUnits="userSpaceOnUse">
<stop stop-color="#F9F3F8"/>
<stop offset="0.38" stop-color="#F5F7F7"/>
<stop offset="0.64" stop-color="#F5F7F7"/>
<stop offset="1" stop-color="#E4E2E8"/>
</linearGradient>
<linearGradient id="paint7_linear_1056_491498" x1="23" y1="28.0804" x2="23" y2="63.7165" gradientUnits="userSpaceOnUse">
<stop stop-color="white"/>
<stop offset="0.53" stop-color="#F5F7F7"/>
<stop offset="1" stop-color="#E4E2E8"/>
</linearGradient>
<linearGradient id="paint8_linear_1056_491498" x1="43.6654" y1="51.2146" x2="33.7642" y2="51.4237" gradientUnits="userSpaceOnUse">
<stop offset="0.19" stop-color="#E3C9CA"/>
<stop offset="0.53" stop-color="#E8B4C0"/>
<stop offset="0.63" stop-color="#E4A7AD"/>
<stop offset="0.79" stop-color="#D598A9"/>
<stop offset="0.97" stop-color="#B87E85"/>
</linearGradient>
<linearGradient id="paint9_linear_1056_491498" x1="21.0659" y1="44.9922" x2="25.3755" y2="44.9922" gradientUnits="userSpaceOnUse">
<stop stop-color="#7FA9F7"/>
<stop offset="0.51" stop-color="#3C83FB"/>
<stop offset="1" stop-color="#3951B8"/>
</linearGradient>
<linearGradient id="paint10_linear_1056_491498" x1="21.472" y1="31.3073" x2="24.9863" y2="31.3073" gradientUnits="userSpaceOnUse">
<stop stop-color="#7FA9F7"/>
<stop offset="0.51" stop-color="#3C83FB"/>
<stop offset="1" stop-color="#3951B8"/>
</linearGradient>
<linearGradient id="paint11_linear_1056_491498" x1="25.6982" y1="28.385" x2="27.6496" y2="31.3437" gradientUnits="userSpaceOnUse">
<stop stop-color="white"/>
<stop offset="1" stop-color="#EAE3EB"/>
</linearGradient>
<linearGradient id="paint12_linear_1056_491498" x1="20.6379" y1="28.385" x2="18.6873" y2="31.3437" gradientUnits="userSpaceOnUse">
<stop stop-color="white"/>
<stop offset="1" stop-color="#EAE3EB"/>
</linearGradient>
<linearGradient id="paint13_linear_1056_491498" x1="2.33506" y1="51.2145" x2="12.2363" y2="51.4235" gradientUnits="userSpaceOnUse">
<stop offset="0.19" stop-color="#E3C9CA"/>
<stop offset="0.53" stop-color="#E8B4C0"/>
<stop offset="0.63" stop-color="#E4A7AD"/>
<stop offset="0.79" stop-color="#D598A9"/>
<stop offset="0.97" stop-color="#B87E85"/>
</linearGradient>
<radialGradient id="paint14_radial_1056_491498" cx="0" cy="0" r="1" gradientUnits="userSpaceOnUse" gradientTransform="translate(23.2339 19.8695) scale(1.34328 0.480805)">
<stop offset="0.19" stop-color="#D22224"/>
<stop offset="0.73" stop-color="#E22F31"/>
<stop offset="1" stop-color="#5D1C1B"/>
</radialGradient>
<linearGradient id="paint15_linear_1056_491498" x1="23.2533" y1="18.3122" x2="23.2533" y2="18.0972" gradientUnits="userSpaceOnUse">
<stop offset="0.22" stop-color="#F4DFD1"/>
<stop offset="0.71" stop-color="#DABDB8"/>
<stop offset="1" stop-color="#D4ACAA"/>
</linearGradient>
</defs>
</svg>
