<svg width="16" height="16" viewBox="0 0 16 16" fill="none" xmlns="http://www.w3.org/2000/svg">
<path d="M12.8327 8.43359C12.8327 8.15745 12.6088 7.93359 12.3327 7.93359C12.0565 7.93359 11.8327 8.15745 11.8327 8.43359C11.8327 10.1419 10.2229 11.5003 7.99935 11.5003C5.77577 11.5003 4.16602 10.1419 4.16602 8.43359C4.16602 8.15745 3.94216 7.93359 3.66602 7.93359C3.38987 7.93359 3.16602 8.15745 3.16602 8.43359V10.9003C3.16602 13.3199 5.39794 15.1669 7.99935 15.1669C10.6008 15.1669 12.8327 13.3199 12.8327 10.9003V8.43359Z" fill="#29C78E" stroke="white" stroke-linecap="round" stroke-linejoin="round"/>
<path d="M11.3964 2.05674L11.3964 2.05672L11.393 2.05376C10.5128 1.29291 9.31581 0.832031 7.99935 0.832031C5.39794 0.832031 3.16602 2.67909 3.16602 5.0987V8.43203C3.16602 10.8837 5.43626 12.4987 7.99935 12.4987C10.5624 12.4987 12.8327 10.8837 12.8327 8.43203V5.0987C12.8327 3.89518 12.2684 2.82437 11.3964 2.05674Z" fill="#29C78E" stroke="white" stroke-linecap="round" stroke-linejoin="round"/>
<path d="M11.4106 2.14306L11.4105 2.14307C12.2807 2.96154 12.8346 4.09381 12.8346 5.35637C12.8346 6.09144 12.6453 6.77514 12.3089 7.36345C11.4931 8.79676 9.84506 9.66703 8.0013 9.66703C6.15755 9.66703 4.50953 8.79676 3.69368 7.36346C3.35729 6.77515 3.16797 6.09144 3.16797 5.35637C3.16797 4.09427 3.72157 2.9611 4.59362 2.14874L11.4106 2.14306ZM11.4106 2.14306L11.4072 2.13997M11.4106 2.14306L11.4072 2.13997M11.4072 2.13997C10.5284 1.32835 9.32735 0.832031 8.0013 0.832031C6.6752 0.832031 5.47332 1.32844 4.59384 2.14853L11.4072 2.13997Z" fill="#29C78E" stroke="white" stroke-linecap="round" stroke-linejoin="round"/>
</svg>
