<svg width="16" height="16" viewBox="0 0 16 16" fill="none" xmlns="http://www.w3.org/2000/svg">
<path d="M9.99998 14.6667H5.99998C2.66665 14.6667 1.33331 13.3333 1.33331 10V6.00001C1.33331 2.66668 2.66665 1.33334 5.99998 1.33334H9.99998C13.3333 1.33334 14.6666 2.66668 14.6666 6.00001V10C14.6666 13.3333 13.3333 14.6667 9.99998 14.6667Z" fill="#29C78E"/>
<path d="M3.64125 12.3577C4.06689 12.7833 4.75407 12.7833 5.17971 12.3577L11.8464 5.69104C12.272 5.2654 12.272 4.57822 11.8464 4.15257C11.4207 3.72693 10.7336 3.72693 10.3079 4.15257L3.64125 10.8192C3.21561 11.2449 3.21561 11.9321 3.64125 12.3577Z" fill="white"/>
<path d="M11.0819 6.45753L9.54346 4.91907" stroke="#29C78E" stroke-width="1.5" stroke-linecap="round" stroke-linejoin="round"/>
<path d="M6.20508 3.09744L6.97431 2.8718L6.74867 3.64103L6.97431 4.41026L6.20508 4.18462L5.43585 4.41026L5.66149 3.64103L5.43585 2.8718L6.20508 3.09744Z" fill="white"/>
<path d="M4.15381 6.17437L4.92304 5.94873L4.6974 6.71796L4.92304 7.48719L4.15381 7.26155L3.38458 7.48719L3.61022 6.71796L3.38458 5.94873L4.15381 6.17437Z" fill="white"/>
<path d="M11.8461 8.73846L12.6154 8.51282L12.3897 9.28205L12.6154 10.0513L11.8461 9.82564L11.0769 10.0513L11.3025 9.28205L11.0769 8.51282L11.8461 8.73846Z" fill="white"/>
</svg>
