<svg width="16" height="16" viewBox="0 0 16 16" fill="none" xmlns="http://www.w3.org/2000/svg">
<path d="M10.6667 2.67969C12.8867 2.79969 14 3.61969 14 6.66635V10.6664C14 13.333 13.3333 14.6664 10 14.6664H6C2.66667 14.6664 2 13.333 2 10.6664V6.66635C2 3.62635 3.11333 2.79969 5.33333 2.67969" fill="#29C78E"/>
<path d="M10.6667 2.67969C12.8867 2.79969 14 3.61969 14 6.66635V10.6664C14 13.333 13.3333 14.6664 10 14.6664H6C2.66667 14.6664 2 13.333 2 10.6664V6.66635C2 3.62635 3.11333 2.79969 5.33333 2.67969" stroke="#29C78E" stroke-width="1.5" stroke-miterlimit="10" stroke-linecap="round" stroke-linejoin="round"/>
<path d="M6.20636 9.79948L7.20636 10.7995L9.87303 8.13281" stroke="white" stroke-width="1.5" stroke-linecap="round" stroke-linejoin="round"/>
<path d="M6.66665 4.00001H9.33331C10.6666 4.00001 10.6666 3.33334 10.6666 2.66668C10.6666 1.33334 9.99998 1.33334 9.33331 1.33334H6.66665C5.99998 1.33334 5.33331 1.33334 5.33331 2.66668C5.33331 4.00001 5.99998 4.00001 6.66665 4.00001Z" fill="#29C78E" stroke="white" stroke-width="1.5" stroke-miterlimit="10" stroke-linecap="round" stroke-linejoin="round"/>
</svg>
