<svg width="48" height="48" viewBox="0 0 48 48" fill="none" xmlns="http://www.w3.org/2000/svg">
<rect width="48" height="48" rx="24" fill="#F5F5F5"/>
<circle cx="24" cy="24" r="9.75" stroke="#333333" stroke-width="1.5"/>
<path d="M22.9907 25.1709V25.3159H24.731V25.1709C24.7375 24.248 25.0671 23.8196 25.812 23.3779C26.6755 22.8572 27.2358 22.1716 27.2358 21.084C27.2358 19.4558 25.9373 18.5 24.0981 18.5C22.4106 18.5 21.033 19.3899 21 21.2422H22.8721C22.8984 20.4709 23.4719 20.0623 24.085 20.0557C24.7244 20.0623 25.2385 20.4907 25.2319 21.1499C25.2385 21.7563 24.7969 22.165 24.23 22.5342C23.439 23.0286 22.9973 23.5295 22.9907 25.1709ZM22.793 28.188C22.7798 28.801 23.2808 29.2954 23.9004 29.2954C24.4871 29.2954 24.9946 28.801 24.9946 28.188C24.9946 27.5815 24.4871 27.0872 23.9004 27.0938C23.2808 27.0872 22.7798 27.5815 22.793 28.188Z" fill="#29C78E" stroke="#29C78E" stroke-width="0.5"/>
</svg>
