<svg width="48" height="48" viewBox="0 0 48 48" fill="none" xmlns="http://www.w3.org/2000/svg">
<rect width="48" height="48" rx="24" fill="#F5F5F5"/>
<path d="M22.875 23.25C25.5674 23.25 27.75 21.0674 27.75 18.375C27.75 15.6826 25.5674 13.5 22.875 13.5C20.1826 13.5 18 15.6826 18 18.375C18 21.0674 20.1826 23.25 22.875 23.25Z" stroke="#333333" stroke-width="1.5" stroke-linecap="round" stroke-linejoin="round"/>
<path d="M15 33C15 29.2682 18.497 26.25 22.8024 26.25" stroke="#333333" stroke-width="1.5" stroke-linecap="round" stroke-linejoin="round"/>
<path d="M33.75 30C33.75 30.36 33.705 30.7087 33.615 31.0462C33.5138 31.4962 33.3338 31.935 33.0975 32.3175C32.3213 33.6225 30.8925 34.5 29.25 34.5C28.0912 34.5 27.045 34.0612 26.2575 33.3412C25.92 33.0487 25.6275 32.7 25.4025 32.3175C24.9862 31.6425 24.75 30.8438 24.75 30C24.75 28.785 25.2338 27.6713 26.0213 26.8613C26.8425 26.0175 27.99 25.5 29.25 25.5C30.5775 25.5 31.7813 26.0738 32.5913 26.9963C33.3113 27.795 33.75 28.8525 33.75 30Z" fill="#29C78E" stroke="#29C78E" stroke-width="1.5" stroke-miterlimit="10" stroke-linecap="round" stroke-linejoin="round"/>
<path d="M31.0985 29.9766H27.6528" stroke="white" stroke-width="1.5" stroke-miterlimit="10" stroke-linecap="round" stroke-linejoin="round"/>
<path d="M29.3755 28.418V31.6093" stroke="white" stroke-width="1.5" stroke-miterlimit="10" stroke-linecap="round" stroke-linejoin="round"/>
</svg>
