<?xml version="1.0" encoding="utf-8"?>
<!-- Generator: Adobe Illustrator 23.0.0, SVG Export Plug-In . SVG Version: 6.00 Build 0)  -->
<svg version="1.1" id="레이어_1" xmlns="http://www.w3.org/2000/svg" xmlns:xlink="http://www.w3.org/1999/xlink" x="0px"
	 y="0px" viewBox="0 0 41 32" style="enable-background:new 0 0 41 32;" xml:space="preserve">
<g>
	<g>
		<g>
			<path style="fill:#111111;" d="M3.384,23.722c-0.23,0.584-0.569,1.096-1.017,1.535c-0.448,0.438-0.988,0.768-1.62,0.986
				l-0.672-1.057c0.547-0.18,1.016-0.442,1.405-0.788c0.389-0.345,0.684-0.737,0.885-1.177c0.2-0.438,0.3-0.898,0.3-1.38v-0.745
				h1.069v0.745C3.731,22.511,3.614,23.137,3.384,23.722z M6.184,21.557H0.457v-1.053h5.727V21.557z M3.324,29.657H2.022v-2.859
				h1.302V29.657z M9.237,30.117H2.022v-1.057h7.215V30.117z M4.279,23.118c0.191,0.412,0.475,0.781,0.85,1.108
				c0.374,0.328,0.825,0.58,1.353,0.757l-0.65,1.031c-0.616-0.207-1.143-0.521-1.579-0.94s-0.767-0.906-0.99-1.459
				c-0.224-0.552-0.334-1.141-0.331-1.765v-0.754h1.061v0.754C3.991,22.284,4.087,22.707,4.279,23.118z M8.367,23.599H5.794v-1.052
				h2.573V23.599z M8.972,27.481H7.671v-7.74h1.301V27.481z"/>
			<path style="fill:#111111;" d="M13.203,25.115c-0.177,0.686-0.444,1.303-0.802,1.853c-0.358,0.55-0.801,0.98-1.328,1.293
				l-0.759-0.982c0.48-0.278,0.884-0.646,1.208-1.104c0.324-0.458,0.564-0.961,0.721-1.511s0.235-1.116,0.238-1.699V22.58h0.99
				v0.385C13.47,23.714,13.38,24.431,13.203,25.115z M15.481,22.634h-4.807v-1.053h4.807V22.634z M13.708,22.414h-1.227v-2.308
				h1.227V22.414z M13.948,24.6c0.158,0.521,0.397,0.996,0.72,1.426c0.321,0.43,0.722,0.772,1.199,1.029l-0.726,0.957
				c-0.538-0.281-0.988-0.682-1.351-1.199c-0.361-0.518-0.63-1.104-0.804-1.761s-0.26-1.352-0.257-2.087V22.58h0.982v0.385
				C13.713,23.534,13.791,24.079,13.948,24.6z M16.646,24.875h-1.823v-1.073h1.823V24.875z M17.434,29.807h-1.223v-9.875h1.223
				V29.807z M19.588,30.316h-1.234V19.733h1.234V30.316z"/>
			<path style="fill:#111111;" d="M25.339,27.594h-4.16v-6.717h4.16V27.594z M22.401,26.566h1.715v-4.662h-1.715V26.566z
				 M27.112,24.688h-2.42v-1.057h2.42V24.688z M27.813,29.811h-1.239v-9.896h1.239V29.811z M29.988,30.316h-1.252V19.733h1.252
				V30.316z"/>
			<path style="fill:#111111;" d="M40.878,26.558h-9.65V25.51h9.65V26.558z M33.722,23.653h-1.306V20.23h1.306V23.653z M39.784,24.2
				h-7.368v-1.053h7.368V24.2z M34.857,30.316h-1.306v-4.43h1.306V30.316z M38.565,30.316h-1.313v-4.43h1.313V30.316z"/>
		</g>
	</g>
	<g>
		
			<line style="fill:none;stroke:#111111;stroke-width:1.5;stroke-linecap:round;stroke-linejoin:round;stroke-miterlimit:10;" x1="13.499" y1="3" x2="27.499" y2="3"/>
		
			<line style="fill:none;stroke:#111111;stroke-width:1.5;stroke-linecap:round;stroke-linejoin:round;stroke-miterlimit:10;" x1="13.499" y1="8" x2="27.499" y2="8"/>
		
			<line style="fill:none;stroke:#111111;stroke-width:1.5;stroke-linecap:round;stroke-linejoin:round;stroke-miterlimit:10;" x1="13.499" y1="13" x2="27.499" y2="13"/>
	</g>
</g>
</svg>
